<?xml version="1.0" encoding="UTF-8" standalone="no"?>
<!-- Created with Inkscape (http://www.inkscape.org/) -->

<svg
   xmlns:dc="http://purl.org/dc/elements/1.1/"
   xmlns:cc="http://creativecommons.org/ns#"
   xmlns:rdf="http://www.w3.org/1999/02/22-rdf-syntax-ns#"
   xmlns:svg="http://www.w3.org/2000/svg"
   xmlns="http://www.w3.org/2000/svg"
   xmlns:sodipodi="http://sodipodi.sourceforge.net/DTD/sodipodi-0.dtd"
   xmlns:inkscape="http://www.inkscape.org/namespaces/inkscape"
   width="744.09448819"
   height="1052.3622047"
   id="svg5691"
   version="1.1"
   inkscape:version="0.48.4 r9939"
   sodipodi:docname="footer_4.svg">
  <defs
     id="defs5693" />
  <sodipodi:namedview
     id="base"
     pagecolor="#ffffff"
     bordercolor="#666666"
     borderopacity="1.0"
     inkscape:pageopacity="0.0"
     inkscape:pageshadow="2"
     inkscape:zoom="0.49497475"
     inkscape:cx="500.33744"
     inkscape:cy="91.461658"
     inkscape:document-units="px"
     inkscape:current-layer="layer1"
     showgrid="false"
     inkscape:window-width="1301"
     inkscape:window-height="744"
     inkscape:window-x="65"
     inkscape:window-y="24"
     inkscape:window-maximized="1" />
  <metadata
     id="metadata5696">
    <rdf:RDF>
      <cc:Work
         rdf:about="">
        <dc:format>image/svg+xml</dc:format>
        <dc:type
           rdf:resource="http://purl.org/dc/dcmitype/StillImage" />
        <dc:title />
      </cc:Work>
    </rdf:RDF>
  </metadata>
  <g
     inkscape:label="Layer 1"
     inkscape:groupmode="layer"
     id="layer1">
    <rect
       style="fill:#cccccc;fill-opacity:1;stroke:none"
       id="rect3513-1"
       width="1900"
       height="300"
       x="-593"
       y="632.36218" />
    <g
       id="g3070">
      <path
         transform="matrix(0.53779485,0,0,0.53779485,463.46441,551.27379)"
         d="m 612.14286,645.2193 a 42.142857,42.142857 0 1 1 -84.28572,0 42.142857,42.142857 0 1 1 84.28572,0 z"
         sodipodi:ry="42.142857"
         sodipodi:rx="42.142857"
         sodipodi:cy="645.2193"
         sodipodi:cx="570"
         id="path3787-9-0-6-9-3-8-7-1-14"
         style="fill:#ffffff;fill-opacity:1;stroke:none"
         sodipodi:type="arc" />
      <path
         transform="matrix(0.53779485,0,0,0.53779485,978.05726,542.05442)"
         d="m -360,662.36218 a 27.142857,27.142857 0 1 1 -54.28571,0 27.142857,27.142857 0 1 1 54.28571,0 z"
         sodipodi:ry="27.142857"
         sodipodi:rx="27.142857"
         sodipodi:cy="662.36218"
         sodipodi:cx="-387.14285"
         id="path3896-12-9-4-0-8-9-7-5-5"
         style="fill:#333333;fill-opacity:1;stroke:none"
         sodipodi:type="arc" />
      <path
         transform="matrix(0.46875138,0.2636198,-0.2636198,0.46875138,-48.123128,443.50261)"
         d="m 612.14286,645.2193 a 42.142857,42.142857 0 1 1 -84.28572,0 42.142857,42.142857 0 1 1 84.28572,0 z"
         sodipodi:ry="42.142857"
         sodipodi:rx="42.142857"
         sodipodi:cy="645.2193"
         sodipodi:cx="570"
         id="path3787-5-3-8-0-7-2-9-5-9-5-7"
         style="fill:#ffffff;fill-opacity:1;stroke:none"
         sodipodi:type="arc" />
      <rect
         transform="matrix(-0.1991958,-0.97995971,0.96806697,-0.25069174,0,0)"
         ry="0"
         rx="25.875553"
         y="-130.54378"
         x="-889.79706"
         height="86.004723"
         width="15.590189"
         id="rect3855-6-6-5-6-8-6-2-7-852-0-5"
         style="fill:#ffffff;fill-opacity:1;stroke:none" />
      <path
         transform="matrix(0.46875138,0.2636198,-0.2636198,0.46875138,405.14176,687.48324)"
         d="m -360,662.36218 a 27.142857,27.142857 0 1 1 -54.28571,0 27.142857,27.142857 0 1 1 54.28571,0 z"
         sodipodi:ry="27.142857"
         sodipodi:rx="27.142857"
         sodipodi:cy="662.36218"
         sodipodi:cx="-387.14285"
         id="path3896-1-4-7-6-4-6-1-1-4-62-8"
         style="fill:#333333;fill-opacity:1;stroke:none"
         sodipodi:type="arc" />
      <path
         transform="matrix(0.53779485,0,0,0.53779485,-171.71851,527.42052)"
         d="m 612.14286,645.2193 a 42.142857,42.142857 0 1 1 -84.28572,0 42.142857,42.142857 0 1 1 84.28572,0 z"
         sodipodi:ry="42.142857"
         sodipodi:rx="42.142857"
         sodipodi:cy="645.2193"
         sodipodi:cx="570"
         id="path3787-9-0-6-9-3-8-7-75-6"
         style="fill:#ffffff;fill-opacity:1;stroke:none"
         sodipodi:type="arc" />
      <rect
         transform="matrix(0.71802555,-0.69601675,0.73298007,0.68025012,0,0)"
         ry="0"
         rx="25.875553"
         y="632.69745"
         x="-557.60034"
         height="86.004723"
         width="15.590189"
         id="rect3855-6-6-5-6-8-6-2-7-852-0-8"
         style="fill:#ffffff;fill-opacity:1;stroke:none" />
      <rect
         transform="matrix(0.2964604,-0.95504515,0.96937417,0.24558852,0,0)"
         ry="0"
         rx="25.875553"
         y="389.33368"
         x="-824.61035"
         height="86.004723"
         width="15.590189"
         id="rect3855-6-6-5-6-8-6-2-7-852-0-3"
         style="fill:#ffffff;fill-opacity:1;stroke:none" />
      <rect
         transform="matrix(-0.71964844,-0.69433862,0.65534774,-0.7553273,0,0)"
         ry="0"
         rx="25.875553"
         y="-534.91772"
         x="-683.04199"
         height="86.004723"
         width="15.590189"
         id="rect3855-6-6-5-6-8-6-2-7-852-0-9"
         style="fill:#ffffff;fill-opacity:1;stroke:none" />
      <path
         transform="matrix(0.53779485,0,0,0.53779485,342.87444,518.20115)"
         d="m -360,662.36218 a 27.142857,27.142857 0 1 1 -54.28571,0 27.142857,27.142857 0 1 1 54.28571,0 z"
         sodipodi:ry="27.142857"
         sodipodi:rx="27.142857"
         sodipodi:cy="662.36218"
         sodipodi:cx="-387.14285"
         id="path3896-12-9-4-0-8-9-7-54-5"
         style="fill:#333333;fill-opacity:1;stroke:none"
         sodipodi:type="arc" />
      <path
         transform="matrix(0.46875138,0.2636198,-0.2636198,0.46875138,-26.146158,358.46115)"
         d="m 612.14286,645.2193 a 42.142857,42.142857 0 1 1 -84.28572,0 42.142857,42.142857 0 1 1 84.28572,0 z"
         sodipodi:ry="42.142857"
         sodipodi:rx="42.142857"
         sodipodi:cy="645.2193"
         sodipodi:cx="570"
         id="path3787-5-3-8-0-7-2-9-5-9-5"
         style="fill:#ffffff;fill-opacity:1;stroke:none"
         sodipodi:type="arc" />
      <path
         transform="matrix(0.46875138,0.2636198,-0.2636198,0.46875138,427.11876,602.44178)"
         d="m -360,662.36218 a 27.142857,27.142857 0 1 1 -54.28571,0 27.142857,27.142857 0 1 1 54.28571,0 z"
         sodipodi:ry="27.142857"
         sodipodi:rx="27.142857"
         sodipodi:cy="662.36218"
         sodipodi:cx="-387.14285"
         id="path3896-1-4-7-6-4-6-1-1-4-62"
         style="fill:#333333;fill-opacity:1;stroke:none"
         sodipodi:type="arc" />
      <path
         transform="matrix(0.53779485,0,0,0.53779485,-90.499178,549.3974)"
         d="m 612.14286,645.2193 a 42.142857,42.142857 0 1 1 -84.28572,0 42.142857,42.142857 0 1 1 84.28572,0 z"
         sodipodi:ry="42.142857"
         sodipodi:rx="42.142857"
         sodipodi:cy="645.2193"
         sodipodi:cx="570"
         id="path3787-9-0-6-9-3-8-7-75"
         style="fill:#ffffff;fill-opacity:1;stroke:none"
         sodipodi:type="arc" />
      <path
         transform="matrix(0.53779485,0,0,0.53779485,424.09373,540.17804)"
         d="m -360,662.36218 a 27.142857,27.142857 0 1 1 -54.28571,0 27.142857,27.142857 0 1 1 54.28571,0 z"
         sodipodi:ry="27.142857"
         sodipodi:rx="27.142857"
         sodipodi:cy="662.36218"
         sodipodi:cx="-387.14285"
         id="path3896-12-9-4-0-8-9-7-54"
         style="fill:#333333;fill-opacity:1;stroke:none"
         sodipodi:type="arc" />
      <path
         transform="matrix(0.53779485,0,0,0.53779485,-117.25372,461.48952)"
         d="m 612.14286,645.2193 a 42.142857,42.142857 0 1 1 -84.28572,0 42.142857,42.142857 0 1 1 84.28572,0 z"
         sodipodi:ry="42.142857"
         sodipodi:rx="42.142857"
         sodipodi:cy="645.2193"
         sodipodi:cx="570"
         id="path3787-9-0-6-9-3-8-7-1"
         style="fill:#ffffff;fill-opacity:1;stroke:none"
         sodipodi:type="arc" />
      <rect
         transform="matrix(0.54137997,-0.84077805,0.86820648,0.49620309,0,0)"
         ry="0"
         rx="25.875553"
         y="597.20856"
         x="-615.88232"
         height="86.004723"
         width="15.590189"
         id="rect3855-6-6-5-6-8-6-2-7-852-0-58"
         style="fill:#ffffff;fill-opacity:1;stroke:none" />
      <path
         transform="matrix(0.53779485,0,0,0.53779485,397.33915,452.27016)"
         d="m -360,662.36218 a 27.142857,27.142857 0 1 1 -54.28571,0 27.142857,27.142857 0 1 1 54.28571,0 z"
         sodipodi:ry="27.142857"
         sodipodi:rx="27.142857"
         sodipodi:cy="662.36218"
         sodipodi:cx="-387.14285"
         id="path3896-12-9-4-0-8-9-7-5"
         style="fill:#333333;fill-opacity:1;stroke:none"
         sodipodi:type="arc" />
      <path
         transform="matrix(0.53779485,0,0,0.53779485,-45.589658,504.66593)"
         d="m 612.14286,645.2193 a 42.142857,42.142857 0 1 1 -84.28572,0 42.142857,42.142857 0 1 1 84.28572,0 z"
         sodipodi:ry="42.142857"
         sodipodi:rx="42.142857"
         sodipodi:cy="645.2193"
         sodipodi:cx="570"
         id="path3787-9-0-6-9-3-8-7-1-5"
         style="fill:#ffffff;fill-opacity:1;stroke:none"
         sodipodi:type="arc" />
      <rect
         transform="matrix(-0.4537522,-0.8911279,0.86591027,-0.50019937,0,0)"
         ry="0"
         rx="25.875551"
         y="-152.85376"
         x="-881.13794"
         height="86.004723"
         width="15.590189"
         id="rect3855-6-6-5-6-8-6-2-7-852-0-7"
         style="fill:#ffffff;fill-opacity:1;stroke:none" />
      <path
         transform="matrix(0.53779485,0,0,0.53779485,469.0032,495.44656)"
         d="m -360,662.36218 a 27.142857,27.142857 0 1 1 -54.28571,0 27.142857,27.142857 0 1 1 54.28571,0 z"
         sodipodi:ry="27.142857"
         sodipodi:rx="27.142857"
         sodipodi:cy="662.36218"
         sodipodi:cx="-387.14285"
         id="path3896-12-9-4-0-8-9-7-5-3"
         style="fill:#333333;fill-opacity:1;stroke:none"
         sodipodi:type="arc" />
      <path
         transform="matrix(0.46875138,0.2636198,-0.2636198,0.46875138,435.26975,445.75344)"
         d="m 612.14286,645.2193 a 42.142857,42.142857 0 1 1 -84.28572,0 42.142857,42.142857 0 1 1 84.28572,0 z"
         sodipodi:ry="42.142857"
         sodipodi:rx="42.142857"
         sodipodi:cy="645.2193"
         sodipodi:cx="570"
         id="path3787-5-3-8-0-7-2-9-5-9-3"
         style="fill:#ffffff;fill-opacity:1;stroke:none"
         sodipodi:type="arc" />
      <rect
         transform="matrix(0.2964604,-0.95504515,0.96937417,0.24558852,0,0)"
         ry="0"
         rx="25.875553"
         y="689.64569"
         x="-749.74237"
         height="86.004723"
         width="15.590189"
         id="rect3855-6-6-5-6-8-6-2-7-852-0-85"
         style="fill:#ffffff;fill-opacity:1;stroke:none" />
      <rect
         transform="matrix(-0.75346289,-0.65749044,0.61676452,-0.78714772,0,0)"
         ry="0"
         rx="25.875553"
         y="-325.32047"
         x="-983.40332"
         height="86.004723"
         width="15.590189"
         id="rect3855-6-6-5-6-8-6-2-7-852-0-74"
         style="fill:#ffffff;fill-opacity:1;stroke:none" />
      <path
         transform="matrix(0.46875138,0.2636198,-0.2636198,0.46875138,888.53462,689.73406)"
         d="m -360,662.36218 a 27.142857,27.142857 0 1 1 -54.28571,0 27.142857,27.142857 0 1 1 54.28571,0 z"
         sodipodi:ry="27.142857"
         sodipodi:rx="27.142857"
         sodipodi:cy="662.36218"
         sodipodi:cx="-387.14285"
         id="path3896-1-4-7-6-4-6-1-1-4-2"
         style="fill:#333333;fill-opacity:1;stroke:none"
         sodipodi:type="arc" />
      <path
         transform="matrix(0.46875138,0.2636198,-0.2636198,0.46875138,350.22839,423.77642)"
         d="m 612.14286,645.2193 a 42.142857,42.142857 0 1 1 -84.28572,0 42.142857,42.142857 0 1 1 84.28572,0 z"
         sodipodi:ry="42.142857"
         sodipodi:rx="42.142857"
         sodipodi:cy="645.2193"
         sodipodi:cx="570"
         id="path3787-5-3-8-0-7-2-9-5-9"
         style="fill:#ffffff;fill-opacity:1;stroke:none"
         sodipodi:type="arc" />
      <rect
         transform="matrix(-0.23670114,-0.97158251,0.95771995,-0.2877021,0,0)"
         ry="0"
         rx="25.875553"
         y="138.75232"
         x="-972.19275"
         height="86.004723"
         width="15.590189"
         id="rect3855-6-6-5-6-8-6-2-7-852-0-64"
         style="fill:#ffffff;fill-opacity:1;stroke:none" />
      <path
         transform="matrix(0.46875138,0.2636198,-0.2636198,0.46875138,803.49327,667.75704)"
         d="m -360,662.36218 a 27.142857,27.142857 0 1 1 -54.28571,0 27.142857,27.142857 0 1 1 54.28571,0 z"
         sodipodi:ry="27.142857"
         sodipodi:rx="27.142857"
         sodipodi:cy="662.36218"
         sodipodi:cx="-387.14285"
         id="path3896-1-4-7-6-4-6-1-1-4"
         style="fill:#333333;fill-opacity:1;stroke:none"
         sodipodi:type="arc" />
      <path
         transform="matrix(0.53779485,0,0,0.53779485,54.639312,551.64823)"
         d="m 612.14286,645.2193 a 42.142857,42.142857 0 1 1 -84.28572,0 42.142857,42.142857 0 1 1 84.28572,0 z"
         sodipodi:ry="42.142857"
         sodipodi:rx="42.142857"
         sodipodi:cy="645.2193"
         sodipodi:cx="570"
         id="path3787-9-0-6-9-3-8-7-1-1"
         style="fill:#ffffff;fill-opacity:1;stroke:none"
         sodipodi:type="arc" />
      <rect
         transform="matrix(0.9613153,-0.27545034,0.32585474,0.94541985,0,0)"
         ry="0"
         rx="25.875553"
         y="874.39551"
         x="40.133442"
         height="86.004723"
         width="15.590189"
         id="rect3855-6-6-5-6-8-6-2-7-852-0-2"
         style="fill:#ffffff;fill-opacity:1;stroke:none" />
      <path
         transform="matrix(0.53779485,0,0,0.53779485,569.23215,542.42886)"
         d="m -360,662.36218 a 27.142857,27.142857 0 1 1 -54.28571,0 27.142857,27.142857 0 1 1 54.28571,0 z"
         sodipodi:ry="27.142857"
         sodipodi:rx="27.142857"
         sodipodi:cy="662.36218"
         sodipodi:cx="-387.14285"
         id="path3896-12-9-4-0-8-9-7-5-6"
         style="fill:#333333;fill-opacity:1;stroke:none"
         sodipodi:type="arc" />
      <path
         transform="matrix(0.53779485,0,0,0.53779485,26.929182,472.34008)"
         d="m 612.14286,645.2193 a 42.142857,42.142857 0 1 1 -84.28572,0 42.142857,42.142857 0 1 1 84.28572,0 z"
         sodipodi:ry="42.142857"
         sodipodi:rx="42.142857"
         sodipodi:cy="645.2193"
         sodipodi:cx="570"
         id="path3787-9-0-6-9-3-8-7-1-1-3"
         style="fill:#ffffff;fill-opacity:1;stroke:none"
         sodipodi:type="arc" />
      <path
         transform="matrix(0.53779485,0,0,0.53779485,541.52203,463.12071)"
         d="m -360,662.36218 a 27.142857,27.142857 0 1 1 -54.28571,0 27.142857,27.142857 0 1 1 54.28571,0 z"
         sodipodi:ry="27.142857"
         sodipodi:rx="27.142857"
         sodipodi:cy="662.36218"
         sodipodi:cx="-387.14285"
         id="path3896-12-9-4-0-8-9-7-5-6-2"
         style="fill:#333333;fill-opacity:1;stroke:none"
         sodipodi:type="arc" />
      <path
         transform="matrix(0.46875138,0.2636198,-0.2636198,0.46875138,487.82342,377.91137)"
         d="m 612.14286,645.2193 a 42.142857,42.142857 0 1 1 -84.28572,0 42.142857,42.142857 0 1 1 84.28572,0 z"
         sodipodi:ry="42.142857"
         sodipodi:rx="42.142857"
         sodipodi:cy="645.2193"
         sodipodi:cx="570"
         id="path3787-5-3-8-0-7-2-9-5-9-6"
         style="fill:#ffffff;fill-opacity:1;stroke:none"
         sodipodi:type="arc" />
      <path
         transform="matrix(0.46875138,0.2636198,-0.2636198,0.46875138,941.08826,621.89199)"
         d="m -360,662.36218 a 27.142857,27.142857 0 1 1 -54.28571,0 27.142857,27.142857 0 1 1 54.28571,0 z"
         sodipodi:ry="27.142857"
         sodipodi:rx="27.142857"
         sodipodi:cy="662.36218"
         sodipodi:cx="-387.14285"
         id="path3896-1-4-7-6-4-6-1-1-4-6"
         style="fill:#333333;fill-opacity:1;stroke:none"
         sodipodi:type="arc" />
      <g
         transform="matrix(-0.00181066,0.32930717,-0.32930717,-0.00181066,871.59129,-210.09114)"
         style="fill:#ccff00;stroke:none"
         id="g3261-7-4">
        <path
           style="fill:#ccff00;stroke:none"
           d="m 3198.5714,336.6479 c 0,0 -18.5714,24.28571 -15.7143,41.42857 2.8572,17.14286 25.7143,50 25.7143,50 1.3288,13.89088 3.3508,29.78734 3.5504,31.60189 4.2857,37.14285 49.7251,40.59173 49.7251,96.30601 0,55.71429 -6.1326,44.94924 -28.9898,74.94924 -22.8571,30 -26.6853,54.01654 -22.8571,80 5.9594,40.44816 38.3816,100.24775 141.4286,84.28572 71.5424,-11.08194 81.4285,-32.85715 81.4285,-32.85715 0,0 0.7293,5.90898 -39.8687,14.28572 -65.6722,13.5504 -153.277,-26.19054 -139.6113,-92.61204 5.2417,-25.4775 19.9282,-32.39667 41.082,-57.14286 42.001,-55.2481 32.3876,-97.13291 25.5409,-117.07107 -6.8467,-19.93815 -20.9211,-28.24272 -29.2634,-44.68322 -7.9839,-15.73428 -29.2862,-25.17935 -36.9709,-48.23339 -2.5822,-28.96011 -2.683,-42.90223 -15.1943,-58.82885 -9.3441,-11.89482 -30,-21.42857 -40,-21.42857 z"
           id="path3245-1-7"
           inkscape:connector-curvature="0"
           sodipodi:nodetypes="csccsssscssczscac" />
        <path
           style="fill:#ccff00;stroke:none"
           d="m 3281.5373,466.82287 c 23.8824,-13.32688 23.2015,-11.53014 33.7144,-28.35069 0,0 3.8311,-13.79224 -6.8961,-20.68835 -10.7274,-6.89612 -18.3775,-17.98929 -10.1776,-19.43476 3.6713,-0.64718 2.5151,-1.25359 8.6451,-1.25359 6.1299,0 9.4779,-1.67997 8.9815,-4.96996 -34.831,2.85741 -14.0759,-9.20037 -23.54,-19.54957 -5.3637,0 -1.0842,0.2092 -4.9155,8.63779 -9.408,15.52794 -18.4764,-1.11016 -24.2014,-4.80661 -3.8312,2.2987 -0.5393,8.33167 7.7669,17.33627 11.0553,7.83506 -8.8984,23.64281 -1.6371,27.10537 5.1919,2.03051 3.4673,-8.52155 8.0648,-14.65143 4.5974,-6.12988 12.6236,6.98907 12.6236,6.98907 2.0885,5.83451 6.4549,12.36455 5.0662,16.76328 -2.7638,8.75454 -14.7105,13.60454 -17.4855,19.49187 -4.4589,9.4597 1.2399,17.20058 3.9907,17.38131 z"
           id="path3247-0-7"
           inkscape:connector-curvature="0"
           sodipodi:nodetypes="ccsssccccccsccsc" />
        <path
           style="fill:#ccff00;stroke:none"
           d="m 3225.3572,463.79075 c 7.8571,3.21429 16.7857,4.64286 11.4286,10.71429 -5.3572,6.07142 -13.5715,10 -22.5,14.28571 -8.9286,4.28571 -15,10.35714 -21.4286,1.07143 -6.4286,-9.28572 -16.0714,-27.5 -18.5714,-27.14286 -2.5,0.35714 -13.9286,15.35714 -14.6429,20.35714 -0.7143,5 -6.0714,2.5 -6.0714,2.5 0,0 -6.4286,-2.5 0,-7.85714 9.0428,-16.74701 -0.5924,-11.01156 -14.7961,-15.633 -1.3818,-0.44962 0.1532,-4.72414 3.0104,-5.08128 2.8571,-0.35715 14.0996,-1.42497 15.3568,-6.8933 0.7896,-3.43429 -6.7854,-8.1067 -6.7854,-8.1067 0,0 -0.7143,-8.57143 3.5714,-5 4.2857,3.57142 8.2446,5.62834 15.5419,7.47415 5.3586,1.35541 0.8867,-10.3313 4.4582,-12.8313 3.5714,-2.5 6.7857,5 6.7857,5 0,0 -3.2143,14.64286 0.7142,16.78572 3.9286,2.14286 5,8.57143 5,8.57143 0,0 6.2419,12.15147 11.7857,11.78571 7.0327,-0.46399 7.5,-13.21428 12.8571,-16.78571 6.8078,-5.89638 6.6434,4.02445 14.2858,6.78571 z"
           id="path3249-6-0"
           inkscape:connector-curvature="0"
           sodipodi:nodetypes="csssssccssacssccscacc" />
        <path
           style="fill:#ccff00;stroke:none"
           d="m 3233.9286,572.71932 c 0,0 8.5714,-13.92857 20,-12.14285 11.4285,1.78571 17.8571,-5.35715 18.2143,8.21428 0.3571,13.57143 5.3571,15.35715 -6.7858,20.35715 -12.1428,5 -19.6428,4.64285 -24.2857,4.64285 -4.6428,0 -9.6428,1.42857 -12.8571,3.21429 -3.2143,1.78571 -4.2857,1.78571 -6.0714,2.85714 -1.7858,1.07143 -10.3572,5 -15.3572,16.78572 -5,11.78571 -7.1428,12.14285 -7.1428,10.71428 0,-1.42857 2.7918,-12.28378 -1.4025,-15.11314 -4.2319,-2.85478 -7.8883,4.12892 -14.669,4.39886 -1.4285,0 -3.0903,-0.21173 0,-4.28572 4.3549,-5.74117 10.614,-14.49457 -4.9401,-14.0215 -15.5541,0.47308 -11.8456,-2.76421 -8.9884,-4.54993 13.4884,-0.86541 16.6653,-3.89496 6.0714,-4.64285 -7.8572,-1.42858 -10,-5.71429 0.3571,-5.35715 12.5615,1.47747 26.3672,-1.86089 33.5715,-1.78571 6.0714,0 8.5714,-3.57143 13.9285,-5.71429 5.3572,-2.14285 10.3572,-3.57143 10.3572,-3.57143 z"
           id="path3257-6-1"
           inkscape:connector-curvature="0"
           sodipodi:nodetypes="cssssscssacszccccsc" />
        <path
           style="fill:#ccff00;stroke:none"
           d="m 3321.0714,601.29075 c 0,0 -17.1428,-3.92857 -16.0714,-13.57143 1.0714,-9.64285 -1.4286,-20.71428 9.6429,-24.28571 11.0714,-3.57143 15.3571,-4.28571 21.7857,-1.42857 6.4285,2.85714 10,14.28571 10,19.28571 0,5 4.2856,4.28572 4.2856,-1.78571 0,-6.07143 -0.3571,-23.57143 4.2858,-22.14286 1.6483,22.35285 8.3242,6.56003 17.8571,5.71429 -2.8467,8.52027 -3.865,9.15467 -1.2193,12.6557 5.9527,5.622 14.7008,-1.05718 13.3622,4.13001 -1.0412,4.03458 -10.0098,2.38011 -10.3571,6.42857 -0.3676,4.28482 1.822,6.01562 9.6428,8.57143 2.1429,0.71429 3.4458,5.3392 -8.9286,3.57143 -5,-0.71429 -9.2857,-3.92857 -20,-0.35714 -10.7142,3.57143 -17.1428,6.42857 -17.1428,6.42857 0,0 0.3571,-4.64286 -5,-5 -5.3572,-0.35714 -12.1429,1.78571 -12.1429,1.78571 z"
           id="path3259-5-1"
           inkscape:connector-curvature="0"
           sodipodi:nodetypes="cssssscccsacsscsc" />
      </g>
      <path
         transform="matrix(0.53747156,0.01864471,-0.01864471,0.53747156,827.11204,528.75169)"
         d="m 612.14286,645.2193 a 42.142857,42.142857 0 1 1 -84.28572,0 42.142857,42.142857 0 1 1 84.28572,0 z"
         sodipodi:ry="42.142857"
         sodipodi:rx="42.142857"
         sodipodi:cy="645.2193"
         sodipodi:cx="570"
         id="path3787-9-0-6-9-3-8-7"
         style="fill:#ffffff;fill-opacity:1;stroke:none"
         sodipodi:type="arc" />
      <path
         transform="matrix(0.4593302,0.27971238,-0.27971238,0.4593302,1133.7349,436.29806)"
         d="m 612.14286,645.2193 a 42.142857,42.142857 0 1 1 -84.28572,0 42.142857,42.142857 0 1 1 84.28572,0 z"
         sodipodi:ry="42.142857"
         sodipodi:rx="42.142857"
         sodipodi:cy="645.2193"
         sodipodi:cx="570"
         id="path3787-5-3-8-0-7-2-9-5"
         style="fill:#ffffff;fill-opacity:1;stroke:none"
         sodipodi:type="arc" />
      <rect
         transform="matrix(-0.1371933,-0.99054429,0.98191254,-0.18933505,0,0)"
         ry="0"
         rx="25.875553"
         y="900.2959"
         x="-1088.3042"
         height="86.004723"
         width="15.590189"
         id="rect3855-6-6-5-6-8-6-2-7-52"
         style="fill:#ffffff;fill-opacity:1;stroke:none" />
      <rect
         transform="matrix(0.68038989,0.73285032,-0.69587982,0.71815825,0,0)"
         ry="0"
         rx="25.875553"
         y="-294.56973"
         x="1417.6678"
         height="86.004723"
         width="15.590189"
         id="rect3855-5-71-7-0-5-8-4"
         style="fill:#ffffff;fill-opacity:1;stroke:none" />
      <rect
         transform="matrix(0.72935234,-0.68413827,0.72171661,0.69218866,0,0)"
         ry="0"
         rx="25.875553"
         y="1406.406"
         x="197.9743"
         height="86.004723"
         width="15.590189"
         id="rect3855-6-6-5-6-8-6-2-7"
         style="fill:#ffffff;fill-opacity:1;stroke:none" />
      <path
         transform="matrix(0.53747156,0.01864471,-0.01864471,0.53747156,1341.7152,537.37818)"
         d="m -360,662.36218 a 27.142857,27.142857 0 1 1 -54.28571,0 27.142857,27.142857 0 1 1 54.28571,0 z"
         sodipodi:ry="27.142857"
         sodipodi:rx="27.142857"
         sodipodi:cy="662.36218"
         sodipodi:cx="-387.14285"
         id="path3896-12-9-4-0-8-9-7"
         style="fill:#333333;fill-opacity:1;stroke:none"
         sodipodi:type="arc" />
      <path
         transform="matrix(0.4593302,0.27971238,-0.27971238,0.4593302,1578.2688,695.84617)"
         d="m -360,662.36218 a 27.142857,27.142857 0 1 1 -54.28571,0 27.142857,27.142857 0 1 1 54.28571,0 z"
         sodipodi:ry="27.142857"
         sodipodi:rx="27.142857"
         sodipodi:cy="662.36218"
         sodipodi:cx="-387.14285"
         id="path3896-1-4-7-6-4-6-1-1"
         style="fill:#333333;fill-opacity:1;stroke:none"
         sodipodi:type="arc" />
      <path
         transform="matrix(0.53779485,0,0,0.53779485,-734.671,499.29967)"
         d="m 612.14286,645.2193 a 42.142857,42.142857 0 1 1 -84.28572,0 42.142857,42.142857 0 1 1 84.28572,0 z"
         sodipodi:ry="42.142857"
         sodipodi:rx="42.142857"
         sodipodi:cy="645.2193"
         sodipodi:cx="570"
         id="path3787-9-0-6-9-3-8-7-75-2"
         style="fill:#ffffff;fill-opacity:1;stroke:none"
         sodipodi:type="arc" />
      <path
         transform="matrix(0.53779485,0,0,0.53779485,-220.07804,490.0803)"
         d="m -360,662.36218 a 27.142857,27.142857 0 1 1 -54.28571,0 27.142857,27.142857 0 1 1 54.28571,0 z"
         sodipodi:ry="27.142857"
         sodipodi:rx="27.142857"
         sodipodi:cy="662.36218"
         sodipodi:cx="-387.14285"
         id="path3896-12-9-4-0-8-9-7-54-1"
         style="fill:#333333;fill-opacity:1;stroke:none"
         sodipodi:type="arc" />
      <rect
         transform="matrix(0.58012096,0.81453034,-0.78274325,0.62234476,0,0)"
         ry="0"
         rx="25.875553"
         y="527.64832"
         x="625.66992"
         height="86.004723"
         width="15.590189"
         id="rect3855-6-6-5-6-8-6-2-7-3"
         style="fill:#ffffff;fill-opacity:1;stroke:none" />
      <path
         transform="matrix(0.53779485,0,0,0.53779485,-458.78356,485.92448)"
         d="m 612.14286,645.2193 a 42.142857,42.142857 0 1 1 -84.28572,0 42.142857,42.142857 0 1 1 84.28572,0 z"
         sodipodi:ry="42.142857"
         sodipodi:rx="42.142857"
         sodipodi:cy="645.2193"
         sodipodi:cx="570"
         id="path3787-9-0-6-9-3-8-7-5-1"
         style="fill:#ffffff;fill-opacity:1;stroke:none"
         sodipodi:type="arc" />
      <path
         transform="matrix(0.46875138,0.2636198,-0.2636198,0.46875138,-145.54614,391.90301)"
         d="m 612.14286,645.2193 a 42.142857,42.142857 0 1 1 -84.28572,0 42.142857,42.142857 0 1 1 84.28572,0 z"
         sodipodi:ry="42.142857"
         sodipodi:rx="42.142857"
         sodipodi:cy="645.2193"
         sodipodi:cx="570"
         id="path3787-5-3-8-0-7-2-9-5-0-7"
         style="fill:#ccff00;fill-opacity:1;stroke:none"
         sodipodi:type="arc" />
      <rect
         transform="matrix(0.85696467,-0.51537515,0.55993131,0.82853903,0,0)"
         ry="0"
         rx="25.875553"
         y="618.73749"
         x="-601.81641"
         height="86.004723"
         width="15.590189"
         id="rect3855-6-6-5-6-8-6-2-7-39"
         style="fill:#ffffff;fill-opacity:1;stroke:none" />
      <rect
         transform="matrix(0.70225912,0.71192143,-0.67382474,0.73889121,0,0)"
         ry="0"
         rx="25.875553"
         y="689.24872"
         x="442.37656"
         height="86.004723"
         width="15.590189"
         id="rect3855-6-6-5-6-8-6-2-7-8"
         style="fill:#ffffff;fill-opacity:1;stroke:none" />
      <path
         transform="matrix(0.53779485,0,0,0.53779485,55.809465,476.70512)"
         d="m -360,662.36218 a 27.142857,27.142857 0 1 1 -54.28571,0 27.142857,27.142857 0 1 1 54.28571,0 z"
         sodipodi:ry="27.142857"
         sodipodi:rx="27.142857"
         sodipodi:cy="662.36218"
         sodipodi:cx="-387.14285"
         id="path3896-12-9-4-0-8-9-7-1-8"
         style="fill:#333333;fill-opacity:1;stroke:none"
         sodipodi:type="arc" />
      <path
         transform="matrix(0.46875138,0.2636198,-0.2636198,0.46875138,307.71876,635.88363)"
         d="m -360,662.36218 a 27.142857,27.142857 0 1 1 -54.28571,0 27.142857,27.142857 0 1 1 54.28571,0 z"
         sodipodi:ry="27.142857"
         sodipodi:rx="27.142857"
         sodipodi:cy="662.36218"
         sodipodi:cx="-387.14285"
         id="path3896-1-4-7-6-4-6-1-1-7-7"
         style="fill:#333333;fill-opacity:1;stroke:none"
         sodipodi:type="arc" />
      <rect
         transform="matrix(0.85696467,-0.51537515,0.55993131,0.82853903,0,0)"
         ry="0"
         rx="25.875553"
         y="569.17621"
         x="-683.16919"
         height="86.004723"
         width="15.590189"
         id="rect3855-6-6-5-6-8-6-2-7-1"
         style="fill:#ffffff;fill-opacity:1;stroke:none" />
      <path
         transform="matrix(0.46875138,0.2636198,-0.2636198,0.46875138,-307.22004,442.13635)"
         d="m 612.14286,645.2193 a 42.142857,42.142857 0 1 1 -84.28572,0 42.142857,42.142857 0 1 1 84.28572,0 z"
         sodipodi:ry="42.142857"
         sodipodi:rx="42.142857"
         sodipodi:cy="645.2193"
         sodipodi:cx="570"
         id="path3787-5-3-8-0-7-2-9-5-92-1"
         style="fill:#ffffff;fill-opacity:1;stroke:none"
         sodipodi:type="arc" />
      <rect
         transform="matrix(0.31310901,-0.94971719,0.96493325,0.26249538,0,0)"
         ry="0"
         rx="25.875553"
         y="-26.11598"
         x="-928.39484"
         height="86.004723"
         width="15.590189"
         id="rect3855-6-6-5-6-8-6-2-7-28"
         style="fill:#ffffff;fill-opacity:1;stroke:none" />
      <path
         transform="matrix(0.46875138,0.2636198,-0.2636198,0.46875138,146.04486,686.11698)"
         d="m -360,662.36218 a 27.142857,27.142857 0 1 1 -54.28571,0 27.142857,27.142857 0 1 1 54.28571,0 z"
         sodipodi:ry="27.142857"
         sodipodi:rx="27.142857"
         sodipodi:cy="662.36218"
         sodipodi:cx="-387.14285"
         id="path3896-1-4-7-6-4-6-1-1-6-3"
         style="fill:#333333;fill-opacity:1;stroke:none"
         sodipodi:type="arc" />
      <path
         transform="matrix(0.46875138,0.2636198,-0.2636198,0.46875138,-358.81808,365.69475)"
         d="m 612.14286,645.2193 a 42.142857,42.142857 0 1 1 -84.28572,0 42.142857,42.142857 0 1 1 84.28572,0 z"
         sodipodi:ry="42.142857"
         sodipodi:rx="42.142857"
         sodipodi:cy="645.2193"
         sodipodi:cx="570"
         id="path3787-5-3-8-0-7-2-9-5-92"
         style="fill:#ccff00;fill-opacity:1;stroke:none"
         sodipodi:type="arc" />
      <path
         transform="matrix(0.4593302,0.27971238,-0.27971238,0.4593302,955.6949,442.24159)"
         d="m 612.14286,645.2193 a 42.142857,42.142857 0 1 1 -84.28572,0 42.142857,42.142857 0 1 1 84.28572,0 z"
         sodipodi:ry="42.142857"
         sodipodi:rx="42.142857"
         sodipodi:cy="645.2193"
         sodipodi:cx="570"
         id="path3787-5-3-8-0-7-2-9-5-9-60"
         style="fill:#ffffff;fill-opacity:1;stroke:none"
         sodipodi:type="arc" />
      <rect
         transform="matrix(0.53812112,-0.84286752,0.87012087,0.49283839,0,0)"
         ry="0"
         rx="25.875553"
         y="1271.984"
         x="-278.50284"
         height="86.004723"
         width="15.590189"
         id="rect3855-6-6-5-6-8-6-2-7-80"
         style="fill:#ffffff;fill-opacity:1;stroke:none" />
      <path
         transform="matrix(0.4593302,0.27971238,-0.27971238,0.4593302,1400.2289,701.7897)"
         d="m -360,662.36218 a 27.142857,27.142857 0 1 1 -54.28571,0 27.142857,27.142857 0 1 1 54.28571,0 z"
         sodipodi:ry="27.142857"
         sodipodi:rx="27.142857"
         sodipodi:cy="662.36218"
         sodipodi:cx="-387.14285"
         id="path3896-1-4-7-6-4-6-1-1-4-5"
         style="fill:#333333;fill-opacity:1;stroke:none"
         sodipodi:type="arc" />
      <rect
         transform="matrix(-0.47052634,-0.88238595,0.8562943,-0.51648821,0,0)"
         ry="0"
         rx="25.875553"
         y="361.83975"
         x="-1234.8756"
         height="86.004723"
         width="15.590189"
         id="rect3855-6-6-5-6-8-6-2-7-852-1"
         style="fill:#ffffff;fill-opacity:1;stroke:none" />
      <path
         transform="matrix(0.53747156,0.01864471,-0.01864471,0.53747156,665.67627,497.02736)"
         d="m 612.14286,645.2193 a 42.142857,42.142857 0 1 1 -84.28572,0 42.142857,42.142857 0 1 1 84.28572,0 z"
         sodipodi:ry="42.142857"
         sodipodi:rx="42.142857"
         sodipodi:cy="645.2193"
         sodipodi:cx="570"
         id="path3787-9-0-6-9-3-8-7-75-7"
         style="fill:#ffffff;fill-opacity:1;stroke:none"
         sodipodi:type="arc" />
      <path
         transform="matrix(0.53747156,0.01864471,-0.01864471,0.53747156,1180.2794,505.65386)"
         d="m -360,662.36218 a 27.142857,27.142857 0 1 1 -54.28571,0 27.142857,27.142857 0 1 1 54.28571,0 z"
         sodipodi:ry="27.142857"
         sodipodi:rx="27.142857"
         sodipodi:cy="662.36218"
         sodipodi:cx="-387.14285"
         id="path3896-12-9-4-0-8-9-7-54-4"
         style="fill:#333333;fill-opacity:1;stroke:none"
         sodipodi:type="arc" />
      <rect
         transform="matrix(-0.39680216,-0.91790416,0.89565796,-0.44474354,0,0)"
         ry="0"
         rx="25.875553"
         y="-706.19562"
         x="-645.12421"
         height="86.004723"
         width="15.590189"
         id="rect3855-6-6-5-6-8-6-2-7-852-0"
         style="fill:#ffffff;fill-opacity:1;stroke:none" />
      <path
         transform="matrix(0.53747156,0.01864471,-0.01864471,0.53747156,593.42013,540.41347)"
         d="m 612.14286,645.2193 a 42.142857,42.142857 0 1 1 -84.28572,0 42.142857,42.142857 0 1 1 84.28572,0 z"
         sodipodi:ry="42.142857"
         sodipodi:rx="42.142857"
         sodipodi:cy="645.2193"
         sodipodi:cx="570"
         id="path3787-9-0-6-9-3-8-7-75-0"
         style="fill:#ffffff;fill-opacity:1;stroke:none"
         sodipodi:type="arc" />
      <rect
         transform="matrix(0.56570921,-0.82460481,0.85334121,0.52135284,0,0)"
         ry="0"
         rx="25.875553"
         y="1157.2717"
         x="-310.0784"
         height="86.004723"
         width="15.590189"
         id="rect3855-6-6-5-6-8-6-2-7-852-4"
         style="fill:#ffffff;fill-opacity:1;stroke:none" />
      <path
         transform="matrix(0.53747156,0.01864471,-0.01864471,0.53747156,1108.0233,549.03997)"
         d="m -360,662.36218 a 27.142857,27.142857 0 1 1 -54.28571,0 27.142857,27.142857 0 1 1 54.28571,0 z"
         sodipodi:ry="27.142857"
         sodipodi:rx="27.142857"
         sodipodi:cy="662.36218"
         sodipodi:cx="-387.14285"
         id="path3896-12-9-4-0-8-9-7-54-9"
         style="fill:#333333;fill-opacity:1;stroke:none"
         sodipodi:type="arc" />
      <path
         transform="matrix(0.53747156,0.01864471,-0.01864471,0.53747156,525.1997,495.02262)"
         d="m 612.14286,645.2193 a 42.142857,42.142857 0 1 1 -84.28572,0 42.142857,42.142857 0 1 1 84.28572,0 z"
         sodipodi:ry="42.142857"
         sodipodi:rx="42.142857"
         sodipodi:cy="645.2193"
         sodipodi:cx="570"
         id="path3787-9-0-6-9-3-8-7-5-3"
         style="fill:#ccff00;fill-opacity:1;stroke:none"
         sodipodi:type="arc" />
      <path
         transform="matrix(0.53747156,0.01864471,-0.01864471,0.53747156,1039.8029,503.64913)"
         d="m -360,662.36218 a 27.142857,27.142857 0 1 1 -54.28571,0 27.142857,27.142857 0 1 1 54.28571,0 z"
         sodipodi:ry="27.142857"
         sodipodi:rx="27.142857"
         sodipodi:cy="662.36218"
         sodipodi:cx="-387.14285"
         id="path3896-12-9-4-0-8-9-7-1-86"
         style="fill:#333333;fill-opacity:1;stroke:none"
         sodipodi:type="arc" />
      <path
         transform="matrix(0.53779485,0,0,0.53779485,-684.02833,546.12026)"
         d="m 612.14286,645.2193 a 42.142857,42.142857 0 1 1 -84.28572,0 42.142857,42.142857 0 1 1 84.28572,0 z"
         sodipodi:ry="42.142857"
         sodipodi:rx="42.142857"
         sodipodi:cy="645.2193"
         sodipodi:cx="570"
         id="path3787-9-0-6-9-3-8-7-1-1-6"
         style="fill:#ffffff;fill-opacity:1;stroke:none"
         sodipodi:type="arc" />
      <path
         transform="matrix(0.53779485,0,0,0.53779485,-169.43554,536.90089)"
         d="m -360,662.36218 a 27.142857,27.142857 0 1 1 -54.28571,0 27.142857,27.142857 0 1 1 54.28571,0 z"
         sodipodi:ry="27.142857"
         sodipodi:rx="27.142857"
         sodipodi:cy="662.36218"
         sodipodi:cx="-387.14285"
         id="path3896-12-9-4-0-8-9-7-5-6-3"
         style="fill:#333333;fill-opacity:1;stroke:none"
         sodipodi:type="arc" />
      <path
         transform="matrix(0.53779485,0,0,0.53779485,-615.23089,517.45459)"
         d="m 612.14286,645.2193 a 42.142857,42.142857 0 1 1 -84.28572,0 42.142857,42.142857 0 1 1 84.28572,0 z"
         sodipodi:ry="42.142857"
         sodipodi:rx="42.142857"
         sodipodi:cy="645.2193"
         sodipodi:cx="570"
         id="path3787-9-0-6-9-3-8-7-75-2-5"
         style="fill:#ffffff;fill-opacity:1;stroke:none"
         sodipodi:type="arc" />
      <path
         transform="matrix(0.53779485,0,0,0.53779485,-100.63794,508.23523)"
         d="m -360,662.36218 a 27.142857,27.142857 0 1 1 -54.28571,0 27.142857,27.142857 0 1 1 54.28571,0 z"
         sodipodi:ry="27.142857"
         sodipodi:rx="27.142857"
         sodipodi:cy="662.36218"
         sodipodi:cx="-387.14285"
         id="path3896-12-9-4-0-8-9-7-54-1-4"
         style="fill:#333333;fill-opacity:1;stroke:none"
         sodipodi:type="arc" />
      <path
         transform="matrix(0.53779485,0,0,0.53779485,-813.97919,488.78899)"
         d="m 612.14286,645.2193 a 42.142857,42.142857 0 1 1 -84.28572,0 42.142857,42.142857 0 1 1 84.28572,0 z"
         sodipodi:ry="42.142857"
         sodipodi:rx="42.142857"
         sodipodi:cy="645.2193"
         sodipodi:cx="570"
         id="path3787-9-0-6-9-3-8-7-1-15"
         style="fill:#ffffff;fill-opacity:1;stroke:none"
         sodipodi:type="arc" />
      <rect
         transform="matrix(0.97383697,-0.22724778,0.27838106,0.96047071,0,0)"
         ry="0"
         rx="25.875553"
         y="694.99469"
         x="-727.97723"
         height="86.004723"
         width="15.590189"
         id="rect3855-6-6-5-6-8-6-2-7-852-3"
         style="fill:#ffffff;fill-opacity:1;stroke:none" />
      <path
         transform="matrix(0.53779485,0,0,0.53779485,-299.38634,479.56963)"
         d="m -360,662.36218 a 27.142857,27.142857 0 1 1 -54.28571,0 27.142857,27.142857 0 1 1 54.28571,0 z"
         sodipodi:ry="27.142857"
         sodipodi:rx="27.142857"
         sodipodi:cy="662.36218"
         sodipodi:cx="-387.14285"
         id="path3896-12-9-4-0-8-9-7-5-0"
         style="fill:#333333;fill-opacity:1;stroke:none"
         sodipodi:type="arc" />
      <path
         transform="matrix(0.53779485,0,0,0.53779485,-796.69241,552.1157)"
         d="m 612.14286,645.2193 a 42.142857,42.142857 0 1 1 -84.28572,0 42.142857,42.142857 0 1 1 84.28572,0 z"
         sodipodi:ry="42.142857"
         sodipodi:rx="42.142857"
         sodipodi:cy="645.2193"
         sodipodi:cx="570"
         id="path3787-9-0-6-9-3-8-7-5"
         style="fill:#ffffff;fill-opacity:1;stroke:none"
         sodipodi:type="arc" />
      <path
         transform="matrix(0.53779485,0,0,0.53779485,-282.09944,542.89633)"
         d="m -360,662.36218 a 27.142857,27.142857 0 1 1 -54.28571,0 27.142857,27.142857 0 1 1 54.28571,0 z"
         sodipodi:ry="27.142857"
         sodipodi:rx="27.142857"
         sodipodi:cy="662.36218"
         sodipodi:cx="-387.14285"
         id="path3896-12-9-4-0-8-9-7-1"
         style="fill:#333333;fill-opacity:1;stroke:none"
         sodipodi:type="arc" />
      <path
         transform="matrix(0.46875138,0.2636198,-0.2636198,0.46875138,-208.36614,441.63909)"
         d="m 612.14286,645.2193 a 42.142857,42.142857 0 1 1 -84.28572,0 42.142857,42.142857 0 1 1 84.28572,0 z"
         sodipodi:ry="42.142857"
         sodipodi:rx="42.142857"
         sodipodi:cy="645.2193"
         sodipodi:cx="570"
         id="path3787-5-3-8-0-7-2-9-5-92-4"
         style="fill:#ffffff;fill-opacity:1;stroke:none"
         sodipodi:type="arc" />
      <path
         transform="matrix(0.46875138,0.2636198,-0.2636198,0.46875138,244.89866,685.61971)"
         d="m -360,662.36218 a 27.142857,27.142857 0 1 1 -54.28571,0 27.142857,27.142857 0 1 1 54.28571,0 z"
         sodipodi:ry="27.142857"
         sodipodi:rx="27.142857"
         sodipodi:cy="662.36218"
         sodipodi:cx="-387.14285"
         id="path3896-1-4-7-6-4-6-1-1-6-1"
         style="fill:#333333;fill-opacity:1;stroke:none"
         sodipodi:type="arc" />
      <path
         transform="matrix(0.46875138,0.2636198,-0.2636198,0.46875138,1072.8099,388.13807)"
         d="m 612.14286,645.2193 a 42.142857,42.142857 0 1 1 -84.28572,0 42.142857,42.142857 0 1 1 84.28572,0 z"
         sodipodi:ry="42.142857"
         sodipodi:rx="42.142857"
         sodipodi:cy="645.2193"
         sodipodi:cx="570"
         id="path3787-5-3-8-0-7-2-9-5-9-6-41"
         style="fill:#ccff00;fill-opacity:1;stroke:none"
         sodipodi:type="arc" />
      <path
         transform="matrix(0.46875138,0.2636198,-0.2636198,0.46875138,1526.0545,632.09838)"
         d="m -360,662.36218 a 27.142857,27.142857 0 1 1 -54.28571,0 27.142857,27.142857 0 1 1 54.28571,0 z"
         sodipodi:ry="27.142857"
         sodipodi:rx="27.142857"
         sodipodi:cy="662.36218"
         sodipodi:cx="-387.14285"
         id="path3896-1-4-7-6-4-6-1-1-4-6-0"
         style="fill:#333333;fill-opacity:1;stroke:none"
         sodipodi:type="arc" />
      <path
         transform="matrix(0.53747156,0.01864471,-0.01864471,0.53747156,-42.191535,469.20382)"
         d="m -360,662.36218 a 27.142857,27.142857 0 1 1 -54.28571,0 27.142857,27.142857 0 1 1 54.28571,0 z"
         sodipodi:ry="27.142857"
         sodipodi:rx="27.142857"
         sodipodi:cy="662.36218"
         sodipodi:cx="-387.14285"
         id="path3896-12-9-4-0-8-9-7-54-9-8"
         style="fill:#333333;fill-opacity:1;stroke:none"
         sodipodi:type="arc" />
    </g>
  </g>
</svg>
