<?xml version="1.0" encoding="UTF-8" standalone="no"?>
<!-- Created with Inkscape (http://www.inkscape.org/) -->

<svg
   xmlns:dc="http://purl.org/dc/elements/1.1/"
   xmlns:cc="http://creativecommons.org/ns#"
   xmlns:rdf="http://www.w3.org/1999/02/22-rdf-syntax-ns#"
   xmlns:svg="http://www.w3.org/2000/svg"
   xmlns="http://www.w3.org/2000/svg"
   xmlns:sodipodi="http://sodipodi.sourceforge.net/DTD/sodipodi-0.dtd"
   xmlns:inkscape="http://www.inkscape.org/namespaces/inkscape"
   width="744.09448819"
   height="1052.3622047"
   id="svg5691"
   version="1.1"
   inkscape:version="0.48.4 r9939"
   sodipodi:docname="New document 20">
  <defs
     id="defs5693" />
  <sodipodi:namedview
     id="base"
     pagecolor="#ffffff"
     bordercolor="#666666"
     borderopacity="1.0"
     inkscape:pageopacity="0.0"
     inkscape:pageshadow="2"
     inkscape:zoom="0.35"
     inkscape:cx="375"
     inkscape:cy="520"
     inkscape:document-units="px"
     inkscape:current-layer="layer1"
     showgrid="false"
     inkscape:window-width="1301"
     inkscape:window-height="744"
     inkscape:window-x="65"
     inkscape:window-y="24"
     inkscape:window-maximized="1" />
  <metadata
     id="metadata5696">
    <rdf:RDF>
      <cc:Work
         rdf:about="">
        <dc:format>image/svg+xml</dc:format>
        <dc:type
           rdf:resource="http://purl.org/dc/dcmitype/StillImage" />
        <dc:title></dc:title>
      </cc:Work>
    </rdf:RDF>
  </metadata>
  <g
     inkscape:label="Layer 1"
     inkscape:groupmode="layer"
     id="layer1">
    <g
       transform="translate(-369.97899,-4816.0001)"
       id="g5163">
      <rect
         y="4948.3623"
         x="-205.02101"
         height="800"
         width="1900"
         id="rect3513-1"
         style="fill:#cccccc;fill-opacity:1;stroke:none" />
      <path
         transform="matrix(0.80404136,0,0,0.80404136,951.58508,4564.8873)"
         d="m 612.14286,645.2193 c 0,23.27486 -18.868,42.14286 -42.14286,42.14286 -23.27486,0 -42.14286,-18.868 -42.14286,-42.14286 0,-23.27486 18.868,-42.14286 42.14286,-42.14286 23.27486,0 42.14286,18.868 42.14286,42.14286 z"
         sodipodi:ry="42.142857"
         sodipodi:rx="42.142857"
         sodipodi:cy="645.2193"
         sodipodi:cx="570"
         id="path3787-9-0-6-9-3-8-7"
         style="fill:#ffffff;fill-opacity:1;stroke:none"
         sodipodi:type="arc" />
      <path
         transform="matrix(0.7008165,0.39413026,-0.39413026,0.7008165,1404.9403,4410.8527)"
         d="m 612.14286,645.2193 c 0,23.27486 -18.868,42.14286 -42.14286,42.14286 -23.27486,0 -42.14286,-18.868 -42.14286,-42.14286 0,-23.27486 18.868,-42.14286 42.14286,-42.14286 23.27486,0 42.14286,18.868 42.14286,42.14286 z"
         sodipodi:ry="42.142857"
         sodipodi:rx="42.142857"
         sodipodi:cy="645.2193"
         sodipodi:cx="570"
         id="path3787-5-3-8-0-7-2-9-5"
         style="fill:#ffffff;fill-opacity:1;stroke:none"
         sodipodi:type="arc" />
      <rect
         transform="matrix(-0.17145182,-0.98519251,0.97475825,-0.22326296,0,0)"
         ry="0"
         rx="38.685783"
         y="383.05341"
         x="-5283.9619"
         height="128.58315"
         width="23.308435"
         id="rect3855-6-6-5-6-8-6-2-7-52"
         style="fill:#ffffff;fill-opacity:1;stroke:none" />
      <rect
         transform="matrix(0.70538792,0.70882147,-0.6705638,0.74185186,0,0)"
         ry="0"
         rx="38.685783"
         y="2477.5586"
         x="4451.5776"
         height="128.58315"
         width="23.308435"
         id="rect3855-5-71-7-0-5-8-4"
         style="fill:#ffffff;fill-opacity:1;stroke:none" />
      <rect
         transform="matrix(0.9462065,0.32356337,-0.27312062,0.9619798,0,0)"
         ry="0"
         rx="38.685783"
         y="4321.5186"
         x="2872.7944"
         height="128.58315"
         width="23.308435"
         id="rect3855-6-6-5-6-8-6-2-7-9"
         style="fill:#ffffff;fill-opacity:1;stroke:none" />
      <rect
         transform="matrix(0.70519563,-0.70901279,0.7452801,0.66675151,0,0)"
         ry="0"
         rx="38.685783"
         y="4577.3892"
         x="-2761.3552"
         height="128.58315"
         width="23.308435"
         id="rect3855-6-6-5-6-8-6-2-7"
         style="fill:#ffffff;fill-opacity:1;stroke:none" />
      <path
         transform="matrix(0.80404136,0,0,0.80404136,1720.9379,4551.1037)"
         d="m -360,662.36218 c 0,14.99059 -12.15227,27.14286 -27.14285,27.14286 -14.99059,0 -27.14286,-12.15227 -27.14286,-27.14286 0,-14.99058 12.15227,-27.14285 27.14286,-27.14285 14.99058,0 27.14285,12.15227 27.14285,27.14285 z"
         sodipodi:ry="27.142857"
         sodipodi:rx="27.142857"
         sodipodi:cy="662.36218"
         sodipodi:cx="-387.14285"
         id="path3896-12-9-4-0-8-9-7"
         style="fill:#333333;fill-opacity:1;stroke:none"
         sodipodi:type="arc" />
      <path
         transform="matrix(0.7008165,0.39413026,-0.39413026,0.7008165,2082.6034,4775.621)"
         d="m -360,662.36218 c 0,14.99059 -12.15227,27.14286 -27.14285,27.14286 -14.99059,0 -27.14286,-12.15227 -27.14286,-27.14286 0,-14.99058 12.15227,-27.14285 27.14286,-27.14285 14.99058,0 27.14285,12.15227 27.14285,27.14285 z"
         sodipodi:ry="27.142857"
         sodipodi:rx="27.142857"
         sodipodi:cy="662.36218"
         sodipodi:cx="-387.14285"
         id="path3896-1-4-7-6-4-6-1-1"
         style="fill:#333333;fill-opacity:1;stroke:none"
         sodipodi:type="arc" />
      <path
         transform="matrix(0.80404136,0,0,0.80404136,540.15649,4791.5676)"
         d="m 612.14286,645.2193 c 0,23.27486 -18.868,42.14286 -42.14286,42.14286 -23.27486,0 -42.14286,-18.868 -42.14286,-42.14286 0,-23.27486 18.868,-42.14286 42.14286,-42.14286 23.27486,0 42.14286,18.868 42.14286,42.14286 z"
         sodipodi:ry="42.142857"
         sodipodi:rx="42.142857"
         sodipodi:cy="645.2193"
         sodipodi:cx="570"
         id="path3787-9-0-6-9-3-8-7-75-2"
         style="fill:#ffffff;fill-opacity:1;stroke:none"
         sodipodi:type="arc" />
      <path
         transform="matrix(0.7008165,0.39413026,-0.39413026,0.7008165,1336.3689,4997.533)"
         d="m 612.14286,645.2193 c 0,23.27486 -18.868,42.14286 -42.14286,42.14286 -23.27486,0 -42.14286,-18.868 -42.14286,-42.14286 0,-23.27486 18.868,-42.14286 42.14286,-42.14286 23.27486,0 42.14286,18.868 42.14286,42.14286 z"
         sodipodi:ry="42.142857"
         sodipodi:rx="42.142857"
         sodipodi:cy="645.2193"
         sodipodi:cx="570"
         id="path3787-5-3-8-0-7-2-9-5-92-4"
         style="fill:#ffffff;fill-opacity:1;stroke:none"
         sodipodi:type="arc" />
      <path
         transform="matrix(0.80404136,0,0,0.80404136,1309.5093,4777.784)"
         d="m -360,662.36218 c 0,14.99059 -12.15227,27.14286 -27.14285,27.14286 -14.99059,0 -27.14286,-12.15227 -27.14286,-27.14286 0,-14.99058 12.15227,-27.14285 27.14286,-27.14285 14.99058,0 27.14285,12.15227 27.14285,27.14285 z"
         sodipodi:ry="27.142857"
         sodipodi:rx="27.142857"
         sodipodi:cy="662.36218"
         sodipodi:cx="-387.14285"
         id="path3896-12-9-4-0-8-9-7-54-1"
         style="fill:#333333;fill-opacity:1;stroke:none"
         sodipodi:type="arc" />
      <path
         transform="matrix(0.7008165,0.39413026,-0.39413026,0.7008165,2014.032,5362.3013)"
         d="m -360,662.36218 c 0,14.99059 -12.15227,27.14286 -27.14285,27.14286 -14.99059,0 -27.14286,-12.15227 -27.14286,-27.14286 0,-14.99058 12.15227,-27.14285 27.14286,-27.14285 14.99058,0 27.14285,12.15227 27.14285,27.14285 z"
         sodipodi:ry="27.142857"
         sodipodi:rx="27.142857"
         sodipodi:cy="662.36218"
         sodipodi:cx="-387.14285"
         id="path3896-1-4-7-6-4-6-1-1-6-1"
         style="fill:#333333;fill-opacity:1;stroke:none"
         sodipodi:type="arc" />
      <path
         transform="matrix(0.7008165,0.39413026,-0.39413026,0.7008165,1364.9403,4531.8188)"
         d="m 612.14286,645.2193 c 0,23.27486 -18.868,42.14286 -42.14286,42.14286 -23.27486,0 -42.14286,-18.868 -42.14286,-42.14286 0,-23.27486 18.868,-42.14286 42.14286,-42.14286 23.27486,0 42.14286,18.868 42.14286,42.14286 z"
         sodipodi:ry="42.142857"
         sodipodi:rx="42.142857"
         sodipodi:cy="645.2193"
         sodipodi:cx="570"
         id="path3787-5-3-8-0-7-2-9-5-0-9"
         style="fill:#ffffff;fill-opacity:1;stroke:none"
         sodipodi:type="arc" />
      <rect
         transform="matrix(0.85696467,-0.51537515,0.55993131,0.82853903,0,0)"
         ry="0"
         rx="38.685783"
         y="5260.9414"
         x="-1680.7268"
         height="128.58315"
         width="23.308435"
         id="rect3855-6-6-5-6-8-6-2-7-29"
         style="fill:#ffffff;fill-opacity:1;stroke:none" />
      <rect
         transform="matrix(0.87027634,0.4925638,-0.44589662,0.89508447,0,0)"
         ry="0"
         rx="38.685783"
         y="3802.2617"
         x="3660.1814"
         height="128.58315"
         width="23.308435"
         id="rect3855-6-6-5-6-8-6-2-7-3"
         style="fill:#ffffff;fill-opacity:1;stroke:none" />
      <rect
         transform="matrix(0.01661287,-0.999862,0.99934326,-0.03623597,0,0)"
         ry="0"
         rx="38.685783"
         y="1452.7462"
         x="-5276.8569"
         height="128.58315"
         width="23.308435"
         id="rect3855-6-6-5-6-8-6-2-7-5"
         style="fill:#ffffff;fill-opacity:1;stroke:none" />
      <path
         transform="matrix(0.7008165,0.39413026,-0.39413026,0.7008165,2042.6035,4896.587)"
         d="m -360,662.36218 c 0,14.99059 -12.15227,27.14286 -27.14285,27.14286 -14.99059,0 -27.14286,-12.15227 -27.14286,-27.14286 0,-14.99058 12.15227,-27.14285 27.14286,-27.14285 14.99058,0 27.14285,12.15227 27.14285,27.14285 z"
         sodipodi:ry="27.142857"
         sodipodi:rx="27.142857"
         sodipodi:cy="662.36218"
         sodipodi:cx="-387.14285"
         id="path3896-1-4-7-6-4-6-1-1-7-1"
         style="fill:#333333;fill-opacity:1;stroke:none"
         sodipodi:type="arc" />
      <path
         transform="matrix(0.80404136,0,0,0.80404136,983.01364,4797.2819)"
         d="m 612.14286,645.2193 c 0,23.27486 -18.868,42.14286 -42.14286,42.14286 -23.27486,0 -42.14286,-18.868 -42.14286,-42.14286 0,-23.27486 18.868,-42.14286 42.14286,-42.14286 23.27486,0 42.14286,18.868 42.14286,42.14286 z"
         sodipodi:ry="42.142857"
         sodipodi:rx="42.142857"
         sodipodi:cy="645.2193"
         sodipodi:cx="570"
         id="path3787-9-0-6-9-3-8-7-5-1"
         style="fill:#ffffff;fill-opacity:1;stroke:none"
         sodipodi:type="arc" />
      <path
         transform="matrix(0.7008165,0.39413026,-0.39413026,0.7008165,1442.0832,4646.1045)"
         d="m 612.14286,645.2193 c 0,23.27486 -18.868,42.14286 -42.14286,42.14286 -23.27486,0 -42.14286,-18.868 -42.14286,-42.14286 0,-23.27486 18.868,-42.14286 42.14286,-42.14286 23.27486,0 42.14286,18.868 42.14286,42.14286 z"
         sodipodi:ry="42.142857"
         sodipodi:rx="42.142857"
         sodipodi:cy="645.2193"
         sodipodi:cx="570"
         id="path3787-5-3-8-0-7-2-9-5-0-7"
         style="fill:#ccff00;fill-opacity:1;stroke:none"
         sodipodi:type="arc" />
      <rect
         transform="matrix(0.85696467,-0.51537515,0.55993131,0.82853903,0,0)"
         ry="0"
         rx="38.685783"
         y="5318.7241"
         x="-1798.498"
         height="128.58315"
         width="23.308435"
         id="rect3855-6-6-5-6-8-6-2-7-39"
         style="fill:#ffffff;fill-opacity:1;stroke:none" />
      <rect
         transform="matrix(0.4771047,0.87884646,-0.8524122,0.52287038,0,0)"
         ry="0"
         rx="38.685783"
         y="1274.5331"
         x="5278.7729"
         height="128.58315"
         width="23.308435"
         id="rect3855-6-6-5-6-8-6-2-7-8"
         style="fill:#ffffff;fill-opacity:1;stroke:none" />
      <path
         transform="matrix(0.80404136,0,0,0.80404136,1752.3666,4783.4983)"
         d="m -360,662.36218 c 0,14.99059 -12.15227,27.14286 -27.14285,27.14286 -14.99059,0 -27.14286,-12.15227 -27.14286,-27.14286 0,-14.99058 12.15227,-27.14285 27.14286,-27.14285 14.99058,0 27.14285,12.15227 27.14285,27.14285 z"
         sodipodi:ry="27.142857"
         sodipodi:rx="27.142857"
         sodipodi:cy="662.36218"
         sodipodi:cx="-387.14285"
         id="path3896-12-9-4-0-8-9-7-1-8"
         style="fill:#333333;fill-opacity:1;stroke:none"
         sodipodi:type="arc" />
      <path
         transform="matrix(0.7008165,0.39413026,-0.39413026,0.7008165,2119.7463,5010.8728)"
         d="m -360,662.36218 c 0,14.99059 -12.15227,27.14286 -27.14285,27.14286 -14.99059,0 -27.14286,-12.15227 -27.14286,-27.14286 0,-14.99058 12.15227,-27.14285 27.14286,-27.14285 14.99058,0 27.14285,12.15227 27.14285,27.14285 z"
         sodipodi:ry="27.142857"
         sodipodi:rx="27.142857"
         sodipodi:cy="662.36218"
         sodipodi:cx="-387.14285"
         id="path3896-1-4-7-6-4-6-1-1-7-7"
         style="fill:#333333;fill-opacity:1;stroke:none"
         sodipodi:type="arc" />
      <path
         transform="matrix(0.7008165,0.39413026,-0.39413026,0.7008165,1367.7975,4757.533)"
         d="m 612.14286,645.2193 c 0,23.27486 -18.868,42.14286 -42.14286,42.14286 -23.27486,0 -42.14286,-18.868 -42.14286,-42.14286 0,-23.27486 18.868,-42.14286 42.14286,-42.14286 23.27486,0 42.14286,18.868 42.14286,42.14286 z"
         sodipodi:ry="42.142857"
         sodipodi:rx="42.142857"
         sodipodi:cy="645.2193"
         sodipodi:cx="570"
         id="path3787-5-3-8-0-7-2-9-5-92-2"
         style="fill:#ffffff;fill-opacity:1;stroke:none"
         sodipodi:type="arc" />
      <rect
         transform="matrix(0.93108093,0.36481269,-0.31511145,0.94905467,0,0)"
         ry="0"
         rx="38.685783"
         y="4519.833"
         x="3141.6045"
         height="128.58315"
         width="23.308435"
         id="rect3855-6-6-5-6-8-6-2-7-57"
         style="fill:#ffffff;fill-opacity:1;stroke:none" />
      <path
         transform="matrix(0.7008165,0.39413026,-0.39413026,0.7008165,2045.4606,5122.3013)"
         d="m -360,662.36218 c 0,14.99059 -12.15227,27.14286 -27.14285,27.14286 -14.99059,0 -27.14286,-12.15227 -27.14286,-27.14286 0,-14.99058 12.15227,-27.14285 27.14286,-27.14285 14.99058,0 27.14285,12.15227 27.14285,27.14285 z"
         sodipodi:ry="27.142857"
         sodipodi:rx="27.142857"
         sodipodi:cy="662.36218"
         sodipodi:cx="-387.14285"
         id="path3896-1-4-7-6-4-6-1-1-6-9"
         style="fill:#333333;fill-opacity:1;stroke:none"
         sodipodi:type="arc" />
      <path
         transform="matrix(0.7008165,0.39413026,-0.39413026,0.7008165,1322.0832,4886.1045)"
         d="m 612.14286,645.2193 c 0,23.27486 -18.868,42.14286 -42.14286,42.14286 -23.27486,0 -42.14286,-18.868 -42.14286,-42.14286 0,-23.27486 18.868,-42.14286 42.14286,-42.14286 23.27486,0 42.14286,18.868 42.14286,42.14286 z"
         sodipodi:ry="42.142857"
         sodipodi:rx="42.142857"
         sodipodi:cy="645.2193"
         sodipodi:cx="570"
         id="path3787-5-3-8-0-7-2-9-5-0-5"
         style="fill:#ffffff;fill-opacity:1;stroke:none"
         sodipodi:type="arc" />
      <rect
         transform="matrix(0.36346597,-0.93160748,0.94950933,0.31373879,0,0)"
         ry="0"
         rx="38.685783"
         y="3395.1248"
         x="-4843.4048"
         height="128.58315"
         width="23.308435"
         id="rect3855-6-6-5-6-8-6-2-7-26"
         style="fill:#ffffff;fill-opacity:1;stroke:none" />
      <path
         transform="matrix(0.7008165,0.39413026,-0.39413026,0.7008165,1999.7464,5250.8728)"
         d="m -360,662.36218 c 0,14.99059 -12.15227,27.14286 -27.14285,27.14286 -14.99059,0 -27.14286,-12.15227 -27.14286,-27.14286 0,-14.99058 12.15227,-27.14285 27.14286,-27.14285 14.99058,0 27.14285,12.15227 27.14285,27.14285 z"
         sodipodi:ry="27.142857"
         sodipodi:rx="27.142857"
         sodipodi:cy="662.36218"
         sodipodi:cx="-387.14285"
         id="path3896-1-4-7-6-4-6-1-1-7-9"
         style="fill:#333333;fill-opacity:1;stroke:none"
         sodipodi:type="arc" />
      <path
         transform="matrix(0.80404136,0,0,0.80404136,911.58504,4694.4248)"
         d="m 612.14286,645.2193 c 0,23.27486 -18.868,42.14286 -42.14286,42.14286 -23.27486,0 -42.14286,-18.868 -42.14286,-42.14286 0,-23.27486 18.868,-42.14286 42.14286,-42.14286 23.27486,0 42.14286,18.868 42.14286,42.14286 z"
         sodipodi:ry="42.142857"
         sodipodi:rx="42.142857"
         sodipodi:cy="645.2193"
         sodipodi:cx="570"
         id="path3787-9-0-6-9-3-8-7-5-4"
         style="fill:#ffffff;fill-opacity:1;stroke:none"
         sodipodi:type="arc" />
      <rect
         transform="matrix(0.81119671,-0.58477338,0.62681456,0.77916847,0,0)"
         ry="0"
         rx="38.685783"
         y="4903.7749"
         x="-2212.7048"
         height="128.58315"
         width="23.308435"
         id="rect3855-6-6-5-6-8-6-2-7-4"
         style="fill:#ffffff;fill-opacity:1;stroke:none" />
      <path
         transform="matrix(0.80404136,0,0,0.80404136,1680.9379,4680.6412)"
         d="m -360,662.36218 c 0,14.99059 -12.15227,27.14286 -27.14285,27.14286 -14.99059,0 -27.14286,-12.15227 -27.14286,-27.14286 0,-14.99058 12.15227,-27.14285 27.14286,-27.14285 14.99058,0 27.14285,12.15227 27.14285,27.14285 z"
         sodipodi:ry="27.142857"
         sodipodi:rx="27.142857"
         sodipodi:cy="662.36218"
         sodipodi:cx="-387.14285"
         id="path3896-12-9-4-0-8-9-7-1-0"
         style="fill:#333333;fill-opacity:1;stroke:none"
         sodipodi:type="arc" />
      <rect
         transform="matrix(0.85696467,-0.51537515,0.55993131,0.82853903,0,0)"
         ry="0"
         rx="38.685783"
         y="5167.9414"
         x="-1930.0261"
         height="128.58315"
         width="23.308435"
         id="rect3855-6-6-5-6-8-6-2-7-1"
         style="fill:#ffffff;fill-opacity:1;stroke:none" />
      <path
         transform="matrix(0.7008165,0.39413026,-0.39413026,0.7008165,1179.226,4706.1044)"
         d="m 612.14286,645.2193 c 0,23.27486 -18.868,42.14286 -42.14286,42.14286 -23.27486,0 -42.14286,-18.868 -42.14286,-42.14286 0,-23.27486 18.868,-42.14286 42.14286,-42.14286 23.27486,0 42.14286,18.868 42.14286,42.14286 z"
         sodipodi:ry="42.142857"
         sodipodi:rx="42.142857"
         sodipodi:cy="645.2193"
         sodipodi:cx="570"
         id="path3787-5-3-8-0-7-2-9-5-92-1"
         style="fill:#ffffff;fill-opacity:1;stroke:none"
         sodipodi:type="arc" />
      <rect
         transform="matrix(0.85696467,-0.51537515,0.55993131,0.82853903,0,0)"
         ry="0"
         rx="38.685783"
         y="5308.2827"
         x="-1931.7045"
         height="128.58315"
         width="23.308435"
         id="rect3855-6-6-5-6-8-6-2-7-85"
         style="fill:#ffffff;fill-opacity:1;stroke:none" />
      <rect
         transform="matrix(-0.21884618,-0.97575937,0.96283431,-0.27009275,0,0)"
         ry="0"
         rx="38.685783"
         y="-16.74188"
         x="-5559.9243"
         height="128.58315"
         width="23.308435"
         id="rect3855-6-6-5-6-8-6-2-7-28"
         style="fill:#ffffff;fill-opacity:1;stroke:none" />
      <path
         transform="matrix(0.7008165,0.39413026,-0.39413026,0.7008165,1856.8891,5070.8727)"
         d="m -360,662.36218 c 0,14.99059 -12.15227,27.14286 -27.14285,27.14286 -14.99059,0 -27.14286,-12.15227 -27.14286,-27.14286 0,-14.99058 12.15227,-27.14285 27.14286,-27.14285 14.99058,0 27.14285,12.15227 27.14285,27.14285 z"
         sodipodi:ry="27.142857"
         sodipodi:rx="27.142857"
         sodipodi:cy="662.36218"
         sodipodi:cx="-387.14285"
         id="path3896-1-4-7-6-4-6-1-1-6-3"
         style="fill:#333333;fill-opacity:1;stroke:none"
         sodipodi:type="arc" />
      <rect
         transform="matrix(0.2964604,-0.95504515,0.96937417,0.24558852,0,0)"
         ry="0"
         rx="38.685783"
         y="2622.6846"
         x="-4817.3057"
         height="128.58315"
         width="23.308435"
         id="rect3855-6-6-5-6-8-6-2-7-852"
         style="fill:#ffffff;fill-opacity:1;stroke:none" />
      <path
         transform="matrix(0.7008165,0.39413026,-0.39413026,0.7008165,1102.0832,4591.8188)"
         d="m 612.14286,645.2193 c 0,23.27486 -18.868,42.14286 -42.14286,42.14286 -23.27486,0 -42.14286,-18.868 -42.14286,-42.14286 0,-23.27486 18.868,-42.14286 42.14286,-42.14286 23.27486,0 42.14286,18.868 42.14286,42.14286 z"
         sodipodi:ry="42.142857"
         sodipodi:rx="42.142857"
         sodipodi:cy="645.2193"
         sodipodi:cx="570"
         id="path3787-5-3-8-0-7-2-9-5-92"
         style="fill:#ccff00;fill-opacity:1;stroke:none"
         sodipodi:type="arc" />
      <path
         transform="matrix(0.7008165,0.39413026,-0.39413026,0.7008165,1779.7463,4956.5871)"
         d="m -360,662.36218 c 0,14.99059 -12.15227,27.14286 -27.14285,27.14286 -14.99059,0 -27.14286,-12.15227 -27.14286,-27.14286 0,-14.99058 12.15227,-27.14285 27.14286,-27.14285 14.99058,0 27.14285,12.15227 27.14285,27.14285 z"
         sodipodi:ry="27.142857"
         sodipodi:rx="27.142857"
         sodipodi:cy="662.36218"
         sodipodi:cx="-387.14285"
         id="path3896-1-4-7-6-4-6-1-1-6"
         style="fill:#333333;fill-opacity:1;stroke:none"
         sodipodi:type="arc" />
      <path
         transform="matrix(0.7008165,0.39413026,-0.39413026,0.7008165,1139.226,4428.9616)"
         d="m 612.14286,645.2193 c 0,23.27486 -18.868,42.14286 -42.14286,42.14286 -23.27486,0 -42.14286,-18.868 -42.14286,-42.14286 0,-23.27486 18.868,-42.14286 42.14286,-42.14286 23.27486,0 42.14286,18.868 42.14286,42.14286 z"
         sodipodi:ry="42.142857"
         sodipodi:rx="42.142857"
         sodipodi:cy="645.2193"
         sodipodi:cx="570"
         id="path3787-5-3-8-0-7-2-9-5-9-60"
         style="fill:#ffffff;fill-opacity:1;stroke:none"
         sodipodi:type="arc" />
      <rect
         transform="matrix(0.50857641,-0.86101686,0.88668392,0.46237607,0,0)"
         ry="0"
         rx="38.685783"
         y="3577.292"
         x="-3950.5298"
         height="128.58315"
         width="23.308435"
         id="rect3855-6-6-5-6-8-6-2-7-80"
         style="fill:#ffffff;fill-opacity:1;stroke:none" />
      <path
         transform="matrix(0.7008165,0.39413026,-0.39413026,0.7008165,1816.8891,4793.7299)"
         d="m -360,662.36218 c 0,14.99059 -12.15227,27.14286 -27.14285,27.14286 -14.99059,0 -27.14286,-12.15227 -27.14286,-27.14286 0,-14.99058 12.15227,-27.14285 27.14286,-27.14285 14.99058,0 27.14285,12.15227 27.14285,27.14285 z"
         sodipodi:ry="27.142857"
         sodipodi:rx="27.142857"
         sodipodi:cy="662.36218"
         sodipodi:cx="-387.14285"
         id="path3896-1-4-7-6-4-6-1-1-4-5"
         style="fill:#333333;fill-opacity:1;stroke:none"
         sodipodi:type="arc" />
      <rect
         transform="matrix(-0.50083475,-0.86554293,0.83787351,-0.54586444,0,0)"
         ry="0"
         rx="38.685783"
         y="-1643.8815"
         x="-4879.0933"
         height="128.58315"
         width="23.308435"
         id="rect3855-6-6-5-6-8-6-2-7-852-1"
         style="fill:#ffffff;fill-opacity:1;stroke:none" />
      <path
         transform="matrix(0.80404136,0,0,0.80404136,708.72794,4525.8533)"
         d="m 612.14286,645.2193 c 0,23.27486 -18.868,42.14286 -42.14286,42.14286 -23.27486,0 -42.14286,-18.868 -42.14286,-42.14286 0,-23.27486 18.868,-42.14286 42.14286,-42.14286 23.27486,0 42.14286,18.868 42.14286,42.14286 z"
         sodipodi:ry="42.142857"
         sodipodi:rx="42.142857"
         sodipodi:cy="645.2193"
         sodipodi:cx="570"
         id="path3787-9-0-6-9-3-8-7-75-7"
         style="fill:#ffffff;fill-opacity:1;stroke:none"
         sodipodi:type="arc" />
      <path
         transform="matrix(0.80404136,0,0,0.80404136,1478.0807,4512.0697)"
         d="m -360,662.36218 c 0,14.99059 -12.15227,27.14286 -27.14285,27.14286 -14.99059,0 -27.14286,-12.15227 -27.14286,-27.14286 0,-14.99058 12.15227,-27.14285 27.14286,-27.14285 14.99058,0 27.14285,12.15227 27.14285,27.14285 z"
         sodipodi:ry="27.142857"
         sodipodi:rx="27.142857"
         sodipodi:cy="662.36218"
         sodipodi:cx="-387.14285"
         id="path3896-12-9-4-0-8-9-7-54-4"
         style="fill:#333333;fill-opacity:1;stroke:none"
         sodipodi:type="arc" />
      <path
         transform="matrix(0.80404136,0,0,0.80404136,937.29934,4971.5676)"
         d="m 612.14286,645.2193 c 0,23.27486 -18.868,42.14286 -42.14286,42.14286 -23.27486,0 -42.14286,-18.868 -42.14286,-42.14286 0,-23.27486 18.868,-42.14286 42.14286,-42.14286 23.27486,0 42.14286,18.868 42.14286,42.14286 z"
         sodipodi:ry="42.142857"
         sodipodi:rx="42.142857"
         sodipodi:cy="645.2193"
         sodipodi:cx="570"
         id="path3787-9-0-6-9-3-8-7-5-6"
         style="fill:#ffffff;fill-opacity:1;stroke:none"
         sodipodi:type="arc" />
      <rect
         inkscape:transform-center-y="-94.285714"
         transform="matrix(-0.79042749,-0.61255561,0.5699395,-0.82168666,0,0)"
         ry="0"
         rx="38.685783"
         y="-3622.1582"
         x="-4294.0352"
         height="128.58315"
         width="23.308435"
         id="rect3855-6-6-5-6-8-6-2-7-852-6"
         style="fill:#ffffff;fill-opacity:1;stroke:none" />
      <path
         transform="matrix(0.80404136,0,0,0.80404136,1706.6522,4957.784)"
         d="m -360,662.36218 c 0,14.99059 -12.15227,27.14286 -27.14285,27.14286 -14.99059,0 -27.14286,-12.15227 -27.14286,-27.14286 0,-14.99058 12.15227,-27.14285 27.14286,-27.14285 14.99058,0 27.14285,12.15227 27.14285,27.14285 z"
         sodipodi:ry="27.142857"
         sodipodi:rx="27.142857"
         sodipodi:cy="662.36218"
         sodipodi:cx="-387.14285"
         id="path3896-12-9-4-0-8-9-7-1-2"
         style="fill:#333333;fill-opacity:1;stroke:none"
         sodipodi:type="arc" />
      <path
         transform="matrix(0.7008165,0.39413026,-0.39413026,0.7008165,1442.0832,4931.8188)"
         d="m 612.14286,645.2193 c 0,23.27486 -18.868,42.14286 -42.14286,42.14286 -23.27486,0 -42.14286,-18.868 -42.14286,-42.14286 0,-23.27486 18.868,-42.14286 42.14286,-42.14286 23.27486,0 42.14286,18.868 42.14286,42.14286 z"
         sodipodi:ry="42.142857"
         sodipodi:rx="42.142857"
         sodipodi:cy="645.2193"
         sodipodi:cx="570"
         id="path3787-5-3-8-0-7-2-9-5-0"
         style="fill:#ffffff;fill-opacity:1;stroke:none"
         sodipodi:type="arc" />
      <path
         transform="matrix(0.7008165,0.39413026,-0.39413026,0.7008165,2119.7463,5296.5871)"
         d="m -360,662.36218 c 0,14.99059 -12.15227,27.14286 -27.14285,27.14286 -14.99059,0 -27.14286,-12.15227 -27.14286,-27.14286 0,-14.99058 12.15227,-27.14285 27.14286,-27.14285 14.99058,0 27.14285,12.15227 27.14285,27.14285 z"
         sodipodi:ry="27.142857"
         sodipodi:rx="27.142857"
         sodipodi:cy="662.36218"
         sodipodi:cx="-387.14285"
         id="path3896-1-4-7-6-4-6-1-1-7"
         style="fill:#333333;fill-opacity:1;stroke:none"
         sodipodi:type="arc" />
      <path
         transform="matrix(0.80404136,0,0,0.80404136,740.15652,4897.2819)"
         d="m 612.14286,645.2193 c 0,23.27486 -18.868,42.14286 -42.14286,42.14286 -23.27486,0 -42.14286,-18.868 -42.14286,-42.14286 0,-23.27486 18.868,-42.14286 42.14286,-42.14286 23.27486,0 42.14286,18.868 42.14286,42.14286 z"
         sodipodi:ry="42.142857"
         sodipodi:rx="42.142857"
         sodipodi:cy="645.2193"
         sodipodi:cx="570"
         id="path3787-9-0-6-9-3-8-7-1-14"
         style="fill:#ffffff;fill-opacity:1;stroke:none"
         sodipodi:type="arc" />
      <rect
         transform="matrix(0.2964604,-0.95504515,0.96937417,0.24558852,0,0)"
         ry="0"
         rx="38.685783"
         y="2617.6067"
         x="-4974.1768"
         height="128.58315"
         width="23.308435"
         id="rect3855-6-6-5-6-8-6-2-7-852-0"
         style="fill:#ffffff;fill-opacity:1;stroke:none" />
      <path
         transform="matrix(0.80404136,0,0,0.80404136,1509.5093,4883.4983)"
         d="m -360,662.36218 c 0,14.99059 -12.15227,27.14286 -27.14285,27.14286 -14.99059,0 -27.14286,-12.15227 -27.14286,-27.14286 0,-14.99058 12.15227,-27.14285 27.14286,-27.14285 14.99058,0 27.14285,12.15227 27.14285,27.14285 z"
         sodipodi:ry="27.142857"
         sodipodi:rx="27.142857"
         sodipodi:cy="662.36218"
         sodipodi:cx="-387.14285"
         id="path3896-12-9-4-0-8-9-7-5-5"
         style="fill:#333333;fill-opacity:1;stroke:none"
         sodipodi:type="arc" />
      <path
         transform="matrix(0.80404136,0,0,0.80404136,654.44223,4714.4248)"
         d="m 612.14286,645.2193 c 0,23.27486 -18.868,42.14286 -42.14286,42.14286 -23.27486,0 -42.14286,-18.868 -42.14286,-42.14286 0,-23.27486 18.868,-42.14286 42.14286,-42.14286 23.27486,0 42.14286,18.868 42.14286,42.14286 z"
         sodipodi:ry="42.142857"
         sodipodi:rx="42.142857"
         sodipodi:cy="645.2193"
         sodipodi:cx="570"
         id="path3787-9-0-6-9-3-8-7-1-3"
         style="fill:#ffffff;fill-opacity:1;stroke:none"
         sodipodi:type="arc" />
      <rect
         transform="matrix(0.94054555,-0.33966758,0.38888496,0.92128632,0,0)"
         ry="0"
         rx="38.685783"
         y="5173.9614"
         x="-1023.1559"
         height="128.58315"
         width="23.308435"
         id="rect3855-6-6-5-6-8-6-2-7-94"
         style="fill:#ffffff;fill-opacity:1;stroke:none" />
      <path
         transform="matrix(0.80404136,0,0,0.80404136,1423.7951,4700.6412)"
         d="m -360,662.36218 c 0,14.99059 -12.15227,27.14286 -27.14285,27.14286 -14.99059,0 -27.14286,-12.15227 -27.14286,-27.14286 0,-14.99058 12.15227,-27.14285 27.14286,-27.14285 14.99058,0 27.14285,12.15227 27.14285,27.14285 z"
         sodipodi:ry="27.142857"
         sodipodi:rx="27.142857"
         sodipodi:cy="662.36218"
         sodipodi:cx="-387.14285"
         id="path3896-12-9-4-0-8-9-7-5-7"
         style="fill:#333333;fill-opacity:1;stroke:none"
         sodipodi:type="arc" />
      <path
         transform="matrix(0.80404136,0,0,0.80404136,603.01365,4594.4248)"
         d="m 612.14286,645.2193 c 0,23.27486 -18.868,42.14286 -42.14286,42.14286 -23.27486,0 -42.14286,-18.868 -42.14286,-42.14286 0,-23.27486 18.868,-42.14286 42.14286,-42.14286 23.27486,0 42.14286,18.868 42.14286,42.14286 z"
         sodipodi:ry="42.142857"
         sodipodi:rx="42.142857"
         sodipodi:cy="645.2193"
         sodipodi:cx="570"
         id="path3787-9-0-6-9-3-8-7-75-0"
         style="fill:#ffffff;fill-opacity:1;stroke:none"
         sodipodi:type="arc" />
      <rect
         transform="matrix(0.53678108,-0.84372156,0.87090291,0.49145511,0,0)"
         ry="0"
         rx="38.685783"
         y="3519.0156"
         x="-3946.4817"
         height="128.58315"
         width="23.308435"
         id="rect3855-6-6-5-6-8-6-2-7-852-4"
         style="fill:#ffffff;fill-opacity:1;stroke:none" />
      <rect
         transform="matrix(-0.59650347,-0.8026105,0.76997452,-0.63807463,0,0)"
         ry="0"
         rx="38.685783"
         y="-2334.783"
         x="-4633.2402"
         height="128.58315"
         width="23.308435"
         id="rect3855-6-6-5-6-8-6-2-7-852-7"
         style="fill:#ffffff;fill-opacity:1;stroke:none" />
      <path
         transform="matrix(0.80404136,0,0,0.80404136,1372.3665,4580.6412)"
         d="m -360,662.36218 c 0,14.99059 -12.15227,27.14286 -27.14285,27.14286 -14.99059,0 -27.14286,-12.15227 -27.14286,-27.14286 0,-14.99058 12.15227,-27.14285 27.14286,-27.14285 14.99058,0 27.14285,12.15227 27.14285,27.14285 z"
         sodipodi:ry="27.142857"
         sodipodi:rx="27.142857"
         sodipodi:cy="662.36218"
         sodipodi:cx="-387.14285"
         id="path3896-12-9-4-0-8-9-7-54-9"
         style="fill:#333333;fill-opacity:1;stroke:none"
         sodipodi:type="arc" />
      <path
         transform="matrix(0.80404136,0,0,0.80404136,498.72787,4530.1391)"
         d="m 612.14286,645.2193 c 0,23.27486 -18.868,42.14286 -42.14286,42.14286 -23.27486,0 -42.14286,-18.868 -42.14286,-42.14286 0,-23.27486 18.868,-42.14286 42.14286,-42.14286 23.27486,0 42.14286,18.868 42.14286,42.14286 z"
         sodipodi:ry="42.142857"
         sodipodi:rx="42.142857"
         sodipodi:cy="645.2193"
         sodipodi:cx="570"
         id="path3787-9-0-6-9-3-8-7-5-3"
         style="fill:#ccff00;fill-opacity:1;stroke:none"
         sodipodi:type="arc" />
      <path
         transform="matrix(0.80404136,0,0,0.80404136,1268.0807,4516.3555)"
         d="m -360,662.36218 c 0,14.99059 -12.15227,27.14286 -27.14285,27.14286 -14.99059,0 -27.14286,-12.15227 -27.14286,-27.14286 0,-14.99058 12.15227,-27.14285 27.14286,-27.14285 14.99058,0 27.14285,12.15227 27.14285,27.14285 z"
         sodipodi:ry="27.142857"
         sodipodi:rx="27.142857"
         sodipodi:cy="662.36218"
         sodipodi:cx="-387.14285"
         id="path3896-12-9-4-0-8-9-7-1-86"
         style="fill:#333333;fill-opacity:1;stroke:none"
         sodipodi:type="arc" />
      <path
         transform="matrix(0.80404136,0,0,0.80404136,615.87087,4861.5677)"
         d="m 612.14286,645.2193 c 0,23.27486 -18.868,42.14286 -42.14286,42.14286 -23.27486,0 -42.14286,-18.868 -42.14286,-42.14286 0,-23.27486 18.868,-42.14286 42.14286,-42.14286 23.27486,0 42.14286,18.868 42.14286,42.14286 z"
         sodipodi:ry="42.142857"
         sodipodi:rx="42.142857"
         sodipodi:cy="645.2193"
         sodipodi:cx="570"
         id="path3787-9-0-6-9-3-8-7-1-1-6"
         style="fill:#ffffff;fill-opacity:1;stroke:none"
         sodipodi:type="arc" />
      <path
         transform="matrix(0.7008165,0.39413026,-0.39413026,0.7008165,809.22607,4521.8188)"
         d="m 612.14286,645.2193 c 0,23.27486 -18.868,42.14286 -42.14286,42.14286 -23.27486,0 -42.14286,-18.868 -42.14286,-42.14286 0,-23.27486 18.868,-42.14286 42.14286,-42.14286 23.27486,0 42.14286,18.868 42.14286,42.14286 z"
         sodipodi:ry="42.142857"
         sodipodi:rx="42.142857"
         sodipodi:cy="645.2193"
         sodipodi:cx="570"
         id="path3787-5-3-8-0-7-2-9-5-9-6-4"
         style="fill:#ffffff;fill-opacity:1;stroke:none"
         sodipodi:type="arc" />
      <path
         transform="matrix(0.80404136,0,0,0.80404136,1385.2235,4847.7841)"
         d="m -360,662.36218 c 0,14.99059 -12.15227,27.14286 -27.14285,27.14286 -14.99059,0 -27.14286,-12.15227 -27.14286,-27.14286 0,-14.99058 12.15227,-27.14285 27.14286,-27.14285 14.99058,0 27.14285,12.15227 27.14285,27.14285 z"
         sodipodi:ry="27.142857"
         sodipodi:rx="27.142857"
         sodipodi:cy="662.36218"
         sodipodi:cx="-387.14285"
         id="path3896-12-9-4-0-8-9-7-5-6-3"
         style="fill:#333333;fill-opacity:1;stroke:none"
         sodipodi:type="arc" />
      <rect
         transform="matrix(-0.75117437,-0.66010383,0.61949516,-0.78500047,0,0)"
         ry="0"
         rx="38.685783"
         y="-3404.7729"
         x="-3988.6433"
         height="128.58315"
         width="23.308435"
         id="rect3855-6-6-5-6-8-6-2-7-852-07"
         style="fill:#ffffff;fill-opacity:1;stroke:none" />
      <path
         transform="matrix(0.7008165,0.39413026,-0.39413026,0.7008165,1486.8891,4886.5871)"
         d="m -360,662.36218 c 0,14.99059 -12.15227,27.14286 -27.14285,27.14286 -14.99059,0 -27.14286,-12.15227 -27.14286,-27.14286 0,-14.99058 12.15227,-27.14285 27.14286,-27.14285 14.99058,0 27.14285,12.15227 27.14285,27.14285 z"
         sodipodi:ry="27.142857"
         sodipodi:rx="27.142857"
         sodipodi:cy="662.36218"
         sodipodi:cx="-387.14285"
         id="path3896-1-4-7-6-4-6-1-1-4-6-1"
         style="fill:#333333;fill-opacity:1;stroke:none"
         sodipodi:type="arc" />
      <path
         transform="matrix(0.80404136,0,0,0.80404136,718.7279,4818.7105)"
         d="m 612.14286,645.2193 c 0,23.27486 -18.868,42.14286 -42.14286,42.14286 -23.27486,0 -42.14286,-18.868 -42.14286,-42.14286 0,-23.27486 18.868,-42.14286 42.14286,-42.14286 23.27486,0 42.14286,18.868 42.14286,42.14286 z"
         sodipodi:ry="42.142857"
         sodipodi:rx="42.142857"
         sodipodi:cy="645.2193"
         sodipodi:cx="570"
         id="path3787-9-0-6-9-3-8-7-75-2-5"
         style="fill:#ffffff;fill-opacity:1;stroke:none"
         sodipodi:type="arc" />
      <path
         transform="matrix(0.80404136,0,0,0.80404136,1488.0808,4804.9269)"
         d="m -360,662.36218 c 0,14.99059 -12.15227,27.14286 -27.14285,27.14286 -14.99059,0 -27.14286,-12.15227 -27.14286,-27.14286 0,-14.99058 12.15227,-27.14285 27.14286,-27.14285 14.99058,0 27.14285,12.15227 27.14285,27.14285 z"
         sodipodi:ry="27.142857"
         sodipodi:rx="27.142857"
         sodipodi:cy="662.36218"
         sodipodi:cx="-387.14285"
         id="path3896-12-9-4-0-8-9-7-54-1-4"
         style="fill:#333333;fill-opacity:1;stroke:none"
         sodipodi:type="arc" />
      <path
         transform="matrix(0.7008165,0.39413026,-0.39413026,0.7008165,1183.5117,4913.2473)"
         d="m 612.14286,645.2193 c 0,23.27486 -18.868,42.14286 -42.14286,42.14286 -23.27486,0 -42.14286,-18.868 -42.14286,-42.14286 0,-23.27486 18.868,-42.14286 42.14286,-42.14286 23.27486,0 42.14286,18.868 42.14286,42.14286 z"
         sodipodi:ry="42.142857"
         sodipodi:rx="42.142857"
         sodipodi:cy="645.2193"
         sodipodi:cx="570"
         id="path3787-5-3-8-0-7-2-9-5-9-5-6"
         style="fill:#ffffff;fill-opacity:1;stroke:none"
         sodipodi:type="arc" />
      <rect
         transform="matrix(0.59831296,-0.80126251,0.83175406,0.55514429,0,0)"
         ry="0"
         rx="38.685783"
         y="4283.1582"
         x="-3925.5312"
         height="128.58315"
         width="23.308435"
         id="rect3855-6-6-5-6-8-6-2-7-852-71"
         style="fill:#ffffff;fill-opacity:1;stroke:none" />
      <rect
         transform="matrix(-0.7000172,-0.71412599,0.67614465,-0.7367689,0,0)"
         ry="0"
         rx="38.685783"
         y="-3101.2017"
         x="-4773.5244"
         height="128.58315"
         width="23.308435"
         id="rect3855-6-6-5-6-8-6-2-7-852-10"
         style="fill:#ffffff;fill-opacity:1;stroke:none" />
      <path
         transform="matrix(0.7008165,0.39413026,-0.39413026,0.7008165,1861.1748,5278.0156)"
         d="m -360,662.36218 c 0,14.99059 -12.15227,27.14286 -27.14285,27.14286 -14.99059,0 -27.14286,-12.15227 -27.14286,-27.14286 0,-14.99058 12.15227,-27.14285 27.14286,-27.14285 14.99058,0 27.14285,12.15227 27.14285,27.14285 z"
         sodipodi:ry="27.142857"
         sodipodi:rx="27.142857"
         sodipodi:cy="662.36218"
         sodipodi:cx="-387.14285"
         id="path3896-1-4-7-6-4-6-1-1-4-62-2"
         style="fill:#333333;fill-opacity:1;stroke:none"
         sodipodi:type="arc" />
      <path
         transform="matrix(0.80404136,0,0,0.80404136,761.58503,4995.8534)"
         d="m 612.14286,645.2193 c 0,23.27486 -18.868,42.14286 -42.14286,42.14286 -23.27486,0 -42.14286,-18.868 -42.14286,-42.14286 0,-23.27486 18.868,-42.14286 42.14286,-42.14286 23.27486,0 42.14286,18.868 42.14286,42.14286 z"
         sodipodi:ry="42.142857"
         sodipodi:rx="42.142857"
         sodipodi:cy="645.2193"
         sodipodi:cx="570"
         id="path3787-9-0-6-9-3-8-7-75-9"
         style="fill:#ffffff;fill-opacity:1;stroke:none"
         sodipodi:type="arc" />
      <path
         transform="matrix(0.80404136,0,0,0.80404136,1530.9379,4982.0698)"
         d="m -360,662.36218 c 0,14.99059 -12.15227,27.14286 -27.14285,27.14286 -14.99059,0 -27.14286,-12.15227 -27.14286,-27.14286 0,-14.99058 12.15227,-27.14285 27.14286,-27.14285 14.99058,0 27.14285,12.15227 27.14285,27.14285 z"
         sodipodi:ry="27.142857"
         sodipodi:rx="27.142857"
         sodipodi:cy="662.36218"
         sodipodi:cx="-387.14285"
         id="path3896-12-9-4-0-8-9-7-54-8"
         style="fill:#333333;fill-opacity:1;stroke:none"
         sodipodi:type="arc" />
      <path
         transform="matrix(0.7008165,0.39413026,-0.39413026,0.7008165,1089.2261,5007.5331)"
         d="m 612.14286,645.2193 c 0,23.27486 -18.868,42.14286 -42.14286,42.14286 -23.27486,0 -42.14286,-18.868 -42.14286,-42.14286 0,-23.27486 18.868,-42.14286 42.14286,-42.14286 23.27486,0 42.14286,18.868 42.14286,42.14286 z"
         sodipodi:ry="42.142857"
         sodipodi:rx="42.142857"
         sodipodi:cy="645.2193"
         sodipodi:cx="570"
         id="path3787-5-3-8-0-7-2-9-5-9-606"
         style="fill:#ffffff;fill-opacity:1;stroke:none"
         sodipodi:type="arc" />
      <path
         transform="matrix(0.7008165,0.39413026,-0.39413026,0.7008165,1766.8891,5372.3014)"
         d="m -360,662.36218 c 0,14.99059 -12.15227,27.14286 -27.14285,27.14286 -14.99059,0 -27.14286,-12.15227 -27.14286,-27.14286 0,-14.99058 12.15227,-27.14285 27.14286,-27.14285 14.99058,0 27.14285,12.15227 27.14285,27.14285 z"
         sodipodi:ry="27.142857"
         sodipodi:rx="27.142857"
         sodipodi:cy="662.36218"
         sodipodi:cx="-387.14285"
         id="path3896-1-4-7-6-4-6-1-1-4-0"
         style="fill:#333333;fill-opacity:1;stroke:none"
         sodipodi:type="arc" />
      <path
         transform="matrix(0.80404136,0,0,0.80404136,421.58514,4775.8534)"
         d="m 612.14286,645.2193 c 0,23.27486 -18.868,42.14286 -42.14286,42.14286 -23.27486,0 -42.14286,-18.868 -42.14286,-42.14286 0,-23.27486 18.868,-42.14286 42.14286,-42.14286 23.27486,0 42.14286,18.868 42.14286,42.14286 z"
         sodipodi:ry="42.142857"
         sodipodi:rx="42.142857"
         sodipodi:cy="645.2193"
         sodipodi:cx="570"
         id="path3787-9-0-6-9-3-8-7-1-15"
         style="fill:#ffffff;fill-opacity:1;stroke:none"
         sodipodi:type="arc" />
      <rect
         transform="matrix(0.97383697,-0.22724778,0.27838106,0.96047071,0,0)"
         ry="0"
         rx="38.685783"
         y="5356.6992"
         x="-640.05334"
         height="128.58315"
         width="23.308435"
         id="rect3855-6-6-5-6-8-6-2-7-852-3"
         style="fill:#ffffff;fill-opacity:1;stroke:none" />
      <path
         transform="matrix(0.80404136,0,0,0.80404136,1190.9379,4762.0698)"
         d="m -360,662.36218 c 0,14.99059 -12.15227,27.14286 -27.14285,27.14286 -14.99059,0 -27.14286,-12.15227 -27.14286,-27.14286 0,-14.99058 12.15227,-27.14285 27.14286,-27.14285 14.99058,0 27.14285,12.15227 27.14285,27.14285 z"
         sodipodi:ry="27.142857"
         sodipodi:rx="27.142857"
         sodipodi:cy="662.36218"
         sodipodi:cx="-387.14285"
         id="path3896-12-9-4-0-8-9-7-5-0"
         style="fill:#333333;fill-opacity:1;stroke:none"
         sodipodi:type="arc" />
      <path
         transform="matrix(0.80404136,0,0,0.80404136,454.44223,4891.5677)"
         d="m 612.14286,645.2193 c 0,23.27486 -18.868,42.14286 -42.14286,42.14286 -23.27486,0 -42.14286,-18.868 -42.14286,-42.14286 0,-23.27486 18.868,-42.14286 42.14286,-42.14286 23.27486,0 42.14286,18.868 42.14286,42.14286 z"
         sodipodi:ry="42.142857"
         sodipodi:rx="42.142857"
         sodipodi:cy="645.2193"
         sodipodi:cx="570"
         id="path3787-9-0-6-9-3-8-7-5"
         style="fill:#ffffff;fill-opacity:1;stroke:none"
         sodipodi:type="arc" />
      <path
         transform="matrix(0.80404136,0,0,0.80404136,1223.7951,4877.7841)"
         d="m -360,662.36218 c 0,14.99059 -12.15227,27.14286 -27.14285,27.14286 -14.99059,0 -27.14286,-12.15227 -27.14286,-27.14286 0,-14.99058 12.15227,-27.14285 27.14286,-27.14285 14.99058,0 27.14285,12.15227 27.14285,27.14285 z"
         sodipodi:ry="27.142857"
         sodipodi:rx="27.142857"
         sodipodi:cy="662.36218"
         sodipodi:cx="-387.14285"
         id="path3896-12-9-4-0-8-9-7-1"
         style="fill:#333333;fill-opacity:1;stroke:none"
         sodipodi:type="arc" />
      <path
         transform="matrix(0.7008165,0.39413026,-0.39413026,0.7008165,-273.63114,4990.3903)"
         d="m 612.14286,645.2193 c 0,23.27486 -18.868,42.14286 -42.14286,42.14286 -23.27486,0 -42.14286,-18.868 -42.14286,-42.14286 0,-23.27486 18.868,-42.14286 42.14286,-42.14286 23.27486,0 42.14286,18.868 42.14286,42.14286 z"
         sodipodi:ry="42.142857"
         sodipodi:rx="42.142857"
         sodipodi:cy="645.2193"
         sodipodi:cx="570"
         id="path3787-5-3-8-0-7-2-9-5-9-5-7"
         style="fill:#ffffff;fill-opacity:1;stroke:none"
         sodipodi:type="arc" />
      <rect
         transform="matrix(-0.1991958,-0.97995971,0.96806697,-0.25069174,0,0)"
         ry="0"
         rx="38.685783"
         y="-1256.2805"
         x="-5474.6753"
         height="128.58315"
         width="23.308435"
         id="rect3855-6-6-5-6-8-6-2-7-852-0-5"
         style="fill:#ffffff;fill-opacity:1;stroke:none" />
      <path
         transform="matrix(0.7008165,0.39413026,-0.39413026,0.7008165,404.03196,5355.1586)"
         d="m -360,662.36218 c 0,14.99059 -12.15227,27.14286 -27.14285,27.14286 -14.99059,0 -27.14286,-12.15227 -27.14286,-27.14286 0,-14.99058 12.15227,-27.14285 27.14286,-27.14285 14.99058,0 27.14285,12.15227 27.14285,27.14285 z"
         sodipodi:ry="27.142857"
         sodipodi:rx="27.142857"
         sodipodi:cy="662.36218"
         sodipodi:cx="-387.14285"
         id="path3896-1-4-7-6-4-6-1-1-4-62-8"
         style="fill:#333333;fill-opacity:1;stroke:none"
         sodipodi:type="arc" />
      <path
         transform="matrix(0.80404136,0,0,0.80404136,-458.41497,5115.8535)"
         d="m 612.14286,645.2193 c 0,23.27486 -18.868,42.14286 -42.14286,42.14286 -23.27486,0 -42.14286,-18.868 -42.14286,-42.14286 0,-23.27486 18.868,-42.14286 42.14286,-42.14286 23.27486,0 42.14286,18.868 42.14286,42.14286 z"
         sodipodi:ry="42.142857"
         sodipodi:rx="42.142857"
         sodipodi:cy="645.2193"
         sodipodi:cx="570"
         id="path3787-9-0-6-9-3-8-7-75-6"
         style="fill:#ffffff;fill-opacity:1;stroke:none"
         sodipodi:type="arc" />
      <rect
         transform="matrix(0.71802554,-0.69601675,0.73298007,0.68025012,0,0)"
         ry="0"
         rx="38.685783"
         y="3916.8296"
         x="-4147.3164"
         height="128.58315"
         width="23.308435"
         id="rect3855-6-6-5-6-8-6-2-7-852-0-8"
         style="fill:#ffffff;fill-opacity:1;stroke:none" />
      <rect
         transform="matrix(0.2964604,-0.95504515,0.96937417,0.24558852,0,0)"
         ry="0"
         rx="38.685783"
         y="1673.869"
         x="-5483.1128"
         height="128.58315"
         width="23.308435"
         id="rect3855-6-6-5-6-8-6-2-7-852-0-3"
         style="fill:#ffffff;fill-opacity:1;stroke:none" />
      <rect
         transform="matrix(-0.71964844,-0.69433862,0.65534775,-0.7553273,0,0)"
         ry="0"
         rx="38.685783"
         y="-4058.4788"
         x="-3708.5132"
         height="128.58315"
         width="23.308435"
         id="rect3855-6-6-5-6-8-6-2-7-852-0-9"
         style="fill:#ffffff;fill-opacity:1;stroke:none" />
      <path
         transform="matrix(0.80404136,0,0,0.80404136,310.93791,5102.0699)"
         d="m -360,662.36218 c 0,14.99059 -12.15227,27.14286 -27.14285,27.14286 -14.99059,0 -27.14286,-12.15227 -27.14286,-27.14286 0,-14.99058 12.15227,-27.14285 27.14286,-27.14285 14.99058,0 27.14285,12.15227 27.14285,27.14285 z"
         sodipodi:ry="27.142857"
         sodipodi:rx="27.142857"
         sodipodi:cy="662.36218"
         sodipodi:cx="-387.14285"
         id="path3896-12-9-4-0-8-9-7-54-5"
         style="fill:#333333;fill-opacity:1;stroke:none"
         sodipodi:type="arc" />
      <path
         transform="matrix(0.7008165,0.39413026,-0.39413026,0.7008165,-240.774,4863.2473)"
         d="m 612.14286,645.2193 c 0,23.27486 -18.868,42.14286 -42.14286,42.14286 -23.27486,0 -42.14286,-18.868 -42.14286,-42.14286 0,-23.27486 18.868,-42.14286 42.14286,-42.14286 23.27486,0 42.14286,18.868 42.14286,42.14286 z"
         sodipodi:ry="42.142857"
         sodipodi:rx="42.142857"
         sodipodi:cy="645.2193"
         sodipodi:cx="570"
         id="path3787-5-3-8-0-7-2-9-5-9-5"
         style="fill:#ffffff;fill-opacity:1;stroke:none"
         sodipodi:type="arc" />
      <path
         transform="matrix(0.7008165,0.39413026,-0.39413026,0.7008165,436.88913,5228.0156)"
         d="m -360,662.36218 c 0,14.99059 -12.15227,27.14286 -27.14285,27.14286 -14.99059,0 -27.14286,-12.15227 -27.14286,-27.14286 0,-14.99058 12.15227,-27.14285 27.14286,-27.14285 14.99058,0 27.14285,12.15227 27.14285,27.14285 z"
         sodipodi:ry="27.142857"
         sodipodi:rx="27.142857"
         sodipodi:cy="662.36218"
         sodipodi:cx="-387.14285"
         id="path3896-1-4-7-6-4-6-1-1-4-62"
         style="fill:#333333;fill-opacity:1;stroke:none"
         sodipodi:type="arc" />
      <path
         transform="matrix(0.80404136,0,0,0.80404136,-336.98633,5148.7105)"
         d="m 612.14286,645.2193 c 0,23.27486 -18.868,42.14286 -42.14286,42.14286 -23.27486,0 -42.14286,-18.868 -42.14286,-42.14286 0,-23.27486 18.868,-42.14286 42.14286,-42.14286 23.27486,0 42.14286,18.868 42.14286,42.14286 z"
         sodipodi:ry="42.142857"
         sodipodi:rx="42.142857"
         sodipodi:cy="645.2193"
         sodipodi:cx="570"
         id="path3787-9-0-6-9-3-8-7-75"
         style="fill:#ffffff;fill-opacity:1;stroke:none"
         sodipodi:type="arc" />
      <path
         transform="matrix(0.80404136,0,0,0.80404136,432.36651,5134.9269)"
         d="m -360,662.36218 c 0,14.99059 -12.15227,27.14286 -27.14285,27.14286 -14.99059,0 -27.14286,-12.15227 -27.14286,-27.14286 0,-14.99058 12.15227,-27.14285 27.14286,-27.14285 14.99058,0 27.14285,12.15227 27.14285,27.14285 z"
         sodipodi:ry="27.142857"
         sodipodi:rx="27.142857"
         sodipodi:cy="662.36218"
         sodipodi:cx="-387.14285"
         id="path3896-12-9-4-0-8-9-7-54"
         style="fill:#333333;fill-opacity:1;stroke:none"
         sodipodi:type="arc" />
      <path
         transform="matrix(0.80404136,0,0,0.80404136,-376.98627,5017.282)"
         d="m 612.14286,645.2193 c 0,23.27486 -18.868,42.14286 -42.14286,42.14286 -23.27486,0 -42.14286,-18.868 -42.14286,-42.14286 0,-23.27486 18.868,-42.14286 42.14286,-42.14286 23.27486,0 42.14286,18.868 42.14286,42.14286 z"
         sodipodi:ry="42.142857"
         sodipodi:rx="42.142857"
         sodipodi:cy="645.2193"
         sodipodi:cx="570"
         id="path3787-9-0-6-9-3-8-7-1"
         style="fill:#ffffff;fill-opacity:1;stroke:none"
         sodipodi:type="arc" />
      <rect
         transform="matrix(0.54137997,-0.84077805,0.86820648,0.49620309,0,0)"
         ry="0"
         rx="38.685783"
         y="3069.063"
         x="-4783.2676"
         height="128.58315"
         width="23.308435"
         id="rect3855-6-6-5-6-8-6-2-7-852-0-58"
         style="fill:#ffffff;fill-opacity:1;stroke:none" />
      <rect
         transform="matrix(-0.66015449,-0.75112985,0.7152029,-0.69891689,0,0)"
         ry="0"
         rx="38.685783"
         y="-3598.4614"
         x="-4035.2878"
         height="128.58315"
         width="23.308435"
         id="rect3855-6-6-5-6-8-6-2-7-852-0-6"
         style="fill:#ffffff;fill-opacity:1;stroke:none" />
      <path
         transform="matrix(0.80404136,0,0,0.80404136,392.36651,5003.4984)"
         d="m -360,662.36218 c 0,14.99059 -12.15227,27.14286 -27.14285,27.14286 -14.99059,0 -27.14286,-12.15227 -27.14286,-27.14286 0,-14.99058 12.15227,-27.14285 27.14286,-27.14285 14.99058,0 27.14285,12.15227 27.14285,27.14285 z"
         sodipodi:ry="27.142857"
         sodipodi:rx="27.142857"
         sodipodi:cy="662.36218"
         sodipodi:cx="-387.14285"
         id="path3896-12-9-4-0-8-9-7-5"
         style="fill:#333333;fill-opacity:1;stroke:none"
         sodipodi:type="arc" />
      <path
         transform="matrix(0.80404136,0,0,0.80404136,-269.84342,5075.8535)"
         d="m 612.14286,645.2193 c 0,23.27486 -18.868,42.14286 -42.14286,42.14286 -23.27486,0 -42.14286,-18.868 -42.14286,-42.14286 0,-23.27486 18.868,-42.14286 42.14286,-42.14286 23.27486,0 42.14286,18.868 42.14286,42.14286 z"
         sodipodi:ry="42.142857"
         sodipodi:rx="42.142857"
         sodipodi:cy="645.2193"
         sodipodi:cx="570"
         id="path3787-9-0-6-9-3-8-7-1-5"
         style="fill:#ffffff;fill-opacity:1;stroke:none"
         sodipodi:type="arc" />
      <rect
         transform="matrix(-0.4537522,-0.8911279,0.86591027,-0.50019937,0,0)"
         ry="0"
         rx="38.685783"
         y="-2367.9895"
         x="-4955.6899"
         height="128.58315"
         width="23.308435"
         id="rect3855-6-6-5-6-8-6-2-7-852-0-7"
         style="fill:#ffffff;fill-opacity:1;stroke:none" />
      <path
         transform="matrix(0.80404136,0,0,0.80404136,499.50934,5062.0699)"
         d="m -360,662.36218 c 0,14.99059 -12.15227,27.14286 -27.14285,27.14286 -14.99059,0 -27.14286,-12.15227 -27.14286,-27.14286 0,-14.99058 12.15227,-27.14285 27.14286,-27.14285 14.99058,0 27.14285,12.15227 27.14285,27.14285 z"
         sodipodi:ry="27.142857"
         sodipodi:rx="27.142857"
         sodipodi:cy="662.36218"
         sodipodi:cx="-387.14285"
         id="path3896-12-9-4-0-8-9-7-5-3"
         style="fill:#333333;fill-opacity:1;stroke:none"
         sodipodi:type="arc" />
      <path
         transform="matrix(0.7008165,0.39413026,-0.39413026,0.7008165,29.226057,4770.3903)"
         d="m 612.14286,645.2193 c 0,23.27486 -18.868,42.14286 -42.14286,42.14286 -23.27486,0 -42.14286,-18.868 -42.14286,-42.14286 0,-23.27486 18.868,-42.14286 42.14286,-42.14286 23.27486,0 42.14286,18.868 42.14286,42.14286 z"
         sodipodi:ry="42.142857"
         sodipodi:rx="42.142857"
         sodipodi:cy="645.2193"
         sodipodi:cx="570"
         id="path3787-5-3-8-0-7-2-9-5-9-3"
         style="fill:#ffffff;fill-opacity:1;stroke:none"
         sodipodi:type="arc" />
      <rect
         transform="matrix(0.2964604,-0.95504515,0.96937417,0.24558852,0,0)"
         ry="0"
         rx="38.685783"
         y="1655.0093"
         x="-5257.6069"
         height="128.58315"
         width="23.308435"
         id="rect3855-6-6-5-6-8-6-2-7-852-0-85"
         style="fill:#ffffff;fill-opacity:1;stroke:none" />
      <rect
         transform="matrix(-0.75346289,-0.65749044,0.61676452,-0.78714772,0,0)"
         ry="0"
         rx="38.685783"
         y="-3992.105"
         x="-3515.0505"
         height="128.58315"
         width="23.308435"
         id="rect3855-6-6-5-6-8-6-2-7-852-0-74"
         style="fill:#ffffff;fill-opacity:1;stroke:none" />
      <path
         transform="matrix(0.7008165,0.39413026,-0.39413026,0.7008165,706.88912,5135.1586)"
         d="m -360,662.36218 c 0,14.99059 -12.15227,27.14286 -27.14285,27.14286 -14.99059,0 -27.14286,-12.15227 -27.14286,-27.14286 0,-14.99058 12.15227,-27.14285 27.14286,-27.14285 14.99058,0 27.14285,12.15227 27.14285,27.14285 z"
         sodipodi:ry="27.142857"
         sodipodi:rx="27.142857"
         sodipodi:cy="662.36218"
         sodipodi:cx="-387.14285"
         id="path3896-1-4-7-6-4-6-1-1-4-2"
         style="fill:#333333;fill-opacity:1;stroke:none"
         sodipodi:type="arc" />
      <path
         transform="matrix(0.7008165,0.39413026,-0.39413026,0.7008165,-97.916796,4737.5331)"
         d="m 612.14286,645.2193 c 0,23.27486 -18.868,42.14286 -42.14286,42.14286 -23.27486,0 -42.14286,-18.868 -42.14286,-42.14286 0,-23.27486 18.868,-42.14286 42.14286,-42.14286 23.27486,0 42.14286,18.868 42.14286,42.14286 z"
         sodipodi:ry="42.142857"
         sodipodi:rx="42.142857"
         sodipodi:cy="645.2193"
         sodipodi:cx="570"
         id="path3787-5-3-8-0-7-2-9-5-9"
         style="fill:#ffffff;fill-opacity:1;stroke:none"
         sodipodi:type="arc" />
      <rect
         transform="matrix(-0.23670114,-0.97158251,0.95771995,-0.28770211,0,0)"
         ry="0"
         rx="38.685783"
         y="-1370.0406"
         x="-5210.3696"
         height="128.58315"
         width="23.308435"
         id="rect3855-6-6-5-6-8-6-2-7-852-0-64"
         style="fill:#ffffff;fill-opacity:1;stroke:none" />
      <path
         transform="matrix(0.7008165,0.39413026,-0.39413026,0.7008165,579.74629,5102.3014)"
         d="m -360,662.36218 c 0,14.99059 -12.15227,27.14286 -27.14285,27.14286 -14.99059,0 -27.14286,-12.15227 -27.14286,-27.14286 0,-14.99058 12.15227,-27.14285 27.14286,-27.14285 14.99058,0 27.14285,12.15227 27.14285,27.14285 z"
         sodipodi:ry="27.142857"
         sodipodi:rx="27.142857"
         sodipodi:cy="662.36218"
         sodipodi:cx="-387.14285"
         id="path3896-1-4-7-6-4-6-1-1-4"
         style="fill:#333333;fill-opacity:1;stroke:none"
         sodipodi:type="arc" />
      <path
         transform="matrix(0.80404136,0,0,0.80404136,-539.8434,4928.7105)"
         d="m 612.14286,645.2193 c 0,23.27486 -18.868,42.14286 -42.14286,42.14286 -23.27486,0 -42.14286,-18.868 -42.14286,-42.14286 0,-23.27486 18.868,-42.14286 42.14286,-42.14286 23.27486,0 42.14286,18.868 42.14286,42.14286 z"
         sodipodi:ry="42.142857"
         sodipodi:rx="42.142857"
         sodipodi:cy="645.2193"
         sodipodi:cx="570"
         id="path3787-9-0-6-9-3-8-7-1-1"
         style="fill:#ffffff;fill-opacity:1;stroke:none"
         sodipodi:type="arc" />
      <rect
         transform="matrix(0.9613153,-0.27545034,0.32585474,0.94541985,0,0)"
         ry="0"
         rx="38.685783"
         y="5086.5571"
         x="-1867.5931"
         height="128.58315"
         width="23.308435"
         id="rect3855-6-6-5-6-8-6-2-7-852-0-2"
         style="fill:#ffffff;fill-opacity:1;stroke:none" />
      <path
         transform="matrix(0.80404136,0,0,0.80404136,229.50934,4914.9269)"
         d="m -360,662.36218 c 0,14.99059 -12.15227,27.14286 -27.14285,27.14286 -14.99059,0 -27.14286,-12.15227 -27.14286,-27.14286 0,-14.99058 12.15227,-27.14285 27.14286,-27.14285 14.99058,0 27.14285,12.15227 27.14285,27.14285 z"
         sodipodi:ry="27.142857"
         sodipodi:rx="27.142857"
         sodipodi:cy="662.36218"
         sodipodi:cx="-387.14285"
         id="path3896-12-9-4-0-8-9-7-5-6"
         style="fill:#333333;fill-opacity:1;stroke:none"
         sodipodi:type="arc" />
      <path
         transform="matrix(0.80404136,0,0,0.80404136,-581.27199,4810.1392)"
         d="m 612.14286,645.2193 c 0,23.27486 -18.868,42.14286 -42.14286,42.14286 -23.27486,0 -42.14286,-18.868 -42.14286,-42.14286 0,-23.27486 18.868,-42.14286 42.14286,-42.14286 23.27486,0 42.14286,18.868 42.14286,42.14286 z"
         sodipodi:ry="42.142857"
         sodipodi:rx="42.142857"
         sodipodi:cy="645.2193"
         sodipodi:cx="570"
         id="path3787-9-0-6-9-3-8-7-1-1-3"
         style="fill:#ffffff;fill-opacity:1;stroke:none"
         sodipodi:type="arc" />
      <path
         transform="matrix(0.80404136,0,0,0.80404136,188.08074,4796.3556)"
         d="m -360,662.36218 c 0,14.99059 -12.15227,27.14286 -27.14285,27.14286 -14.99059,0 -27.14286,-12.15227 -27.14286,-27.14286 0,-14.99058 12.15227,-27.14285 27.14286,-27.14285 14.99058,0 27.14285,12.15227 27.14285,27.14285 z"
         sodipodi:ry="27.142857"
         sodipodi:rx="27.142857"
         sodipodi:cy="662.36218"
         sodipodi:cx="-387.14285"
         id="path3896-12-9-4-0-8-9-7-5-6-2"
         style="fill:#333333;fill-opacity:1;stroke:none"
         sodipodi:type="arc" />
      <path
         transform="matrix(0.7008165,0.39413026,-0.39413026,0.7008165,157.79748,4853.2474)"
         d="m 612.14286,645.2193 c 0,23.27486 -18.868,42.14286 -42.14286,42.14286 -23.27486,0 -42.14286,-18.868 -42.14286,-42.14286 0,-23.27486 18.868,-42.14286 42.14286,-42.14286 23.27486,0 42.14286,18.868 42.14286,42.14286 z"
         sodipodi:ry="42.142857"
         sodipodi:rx="42.142857"
         sodipodi:cy="645.2193"
         sodipodi:cx="570"
         id="path3787-5-3-8-0-7-2-9-5-9-6-41"
         style="fill:#ccff00;fill-opacity:1;stroke:none"
         sodipodi:type="arc" />
      <path
         transform="matrix(0.7008165,0.39413026,-0.39413026,0.7008165,835.46051,5218.0157)"
         d="m -360,662.36218 c 0,14.99059 -12.15227,27.14286 -27.14285,27.14286 -14.99059,0 -27.14286,-12.15227 -27.14286,-27.14286 0,-14.99058 12.15227,-27.14285 27.14286,-27.14285 14.99058,0 27.14285,12.15227 27.14285,27.14285 z"
         sodipodi:ry="27.142857"
         sodipodi:rx="27.142857"
         sodipodi:cy="662.36218"
         sodipodi:cx="-387.14285"
         id="path3896-1-4-7-6-4-6-1-1-4-6-0"
         style="fill:#333333;fill-opacity:1;stroke:none"
         sodipodi:type="arc" />
      <path
         transform="matrix(0.7008165,0.39413026,-0.39413026,0.7008165,107.79751,4668.9616)"
         d="m 612.14286,645.2193 c 0,23.27486 -18.868,42.14286 -42.14286,42.14286 -23.27486,0 -42.14286,-18.868 -42.14286,-42.14286 0,-23.27486 18.868,-42.14286 42.14286,-42.14286 23.27486,0 42.14286,18.868 42.14286,42.14286 z"
         sodipodi:ry="42.142857"
         sodipodi:rx="42.142857"
         sodipodi:cy="645.2193"
         sodipodi:cx="570"
         id="path3787-5-3-8-0-7-2-9-5-9-6"
         style="fill:#ffffff;fill-opacity:1;stroke:none"
         sodipodi:type="arc" />
      <path
         transform="matrix(0.7008165,0.39413026,-0.39413026,0.7008165,785.46054,5033.7299)"
         d="m -360,662.36218 c 0,14.99059 -12.15227,27.14286 -27.14285,27.14286 -14.99059,0 -27.14286,-12.15227 -27.14286,-27.14286 0,-14.99058 12.15227,-27.14285 27.14286,-27.14285 14.99058,0 27.14285,12.15227 27.14285,27.14285 z"
         sodipodi:ry="27.142857"
         sodipodi:rx="27.142857"
         sodipodi:cy="662.36218"
         sodipodi:cx="-387.14285"
         id="path3896-1-4-7-6-4-6-1-1-4-6"
         style="fill:#333333;fill-opacity:1;stroke:none"
         sodipodi:type="arc" />
      <g
         transform="matrix(-0.00234749,0.42694215,-0.42694215,-0.00234749,597.92163,4059.3523)"
         style="fill:#ccff00;stroke:none"
         id="g3261-7-4">
        <path
           style="fill:#ccff00;stroke:none"
           d="m 3198.5714,336.6479 c 0,0 -18.5714,24.28571 -15.7143,41.42857 2.8572,17.14286 25.7143,50 25.7143,50 1.3288,13.89088 3.3508,29.78734 3.5504,31.60189 4.2857,37.14285 49.7251,40.59173 49.7251,96.30601 0,55.71429 -6.1326,44.94924 -28.9898,74.94924 -22.8571,30 -26.6853,54.01654 -22.8571,80 5.9594,40.44816 38.3816,100.24775 141.4286,84.28572 71.5424,-11.08194 81.4285,-32.85715 81.4285,-32.85715 0,0 0.7293,5.90898 -39.8687,14.28572 -65.6722,13.5504 -153.277,-26.19054 -139.6113,-92.61204 5.2417,-25.4775 19.9282,-32.39667 41.082,-57.14286 42.001,-55.2481 32.3876,-97.13291 25.5409,-117.07107 -6.8467,-19.93815 -20.9211,-28.24272 -29.2634,-44.68322 -7.9839,-15.73428 -29.2862,-25.17935 -36.9709,-48.23339 -2.5822,-28.96011 -2.683,-42.90223 -15.1943,-58.82885 -9.3441,-11.89482 -30,-21.42857 -40,-21.42857 z"
           id="path3245-1-7"
           inkscape:connector-curvature="0"
           sodipodi:nodetypes="csccsssscssczscac" />
        <path
           style="fill:#ccff00;stroke:none"
           d="m 3281.5373,466.82287 c 23.8824,-13.32688 23.2015,-11.53014 33.7144,-28.35069 0,0 3.8311,-13.79224 -6.8961,-20.68835 -10.7274,-6.89612 -18.3775,-17.98929 -10.1776,-19.43476 3.6713,-0.64718 2.5151,-1.25359 8.6451,-1.25359 6.1299,0 9.4779,-1.67997 8.9815,-4.96996 -34.831,2.85741 -14.0759,-9.20037 -23.54,-19.54957 -5.3637,0 -1.0842,0.2092 -4.9155,8.63779 -9.408,15.52794 -18.4764,-1.11016 -24.2014,-4.80661 -3.8312,2.2987 -0.5393,8.33167 7.7669,17.33627 11.0553,7.83506 -8.8984,23.64281 -1.6371,27.10537 5.1919,2.03051 3.4673,-8.52155 8.0648,-14.65143 4.5974,-6.12988 12.6236,6.98907 12.6236,6.98907 2.0885,5.83451 6.4549,12.36455 5.0662,16.76328 -2.7638,8.75454 -14.7105,13.60454 -17.4855,19.49187 -4.4589,9.4597 1.2399,17.20058 3.9907,17.38131 z"
           id="path3247-0-7"
           inkscape:connector-curvature="0"
           sodipodi:nodetypes="ccsssccccccsccsc" />
        <path
           style="fill:#ccff00;stroke:none"
           d="m 3225.3572,463.79075 c 7.8571,3.21429 16.7857,4.64286 11.4286,10.71429 -5.3572,6.07142 -13.5715,10 -22.5,14.28571 -8.9286,4.28571 -15,10.35714 -21.4286,1.07143 -6.4286,-9.28572 -16.0714,-27.5 -18.5714,-27.14286 -2.5,0.35714 -13.9286,15.35714 -14.6429,20.35714 -0.7143,5 -6.0714,2.5 -6.0714,2.5 0,0 -6.4286,-2.5 0,-7.85714 9.0428,-16.74701 -0.5924,-11.01156 -14.7961,-15.633 -1.3818,-0.44962 0.1532,-4.72414 3.0104,-5.08128 2.8571,-0.35715 14.0996,-1.42497 15.3568,-6.8933 0.7896,-3.43429 -6.7854,-8.1067 -6.7854,-8.1067 0,0 -0.7143,-8.57143 3.5714,-5 4.2857,3.57142 8.2446,5.62834 15.5419,7.47415 5.3586,1.35541 0.8867,-10.3313 4.4582,-12.8313 3.5714,-2.5 6.7857,5 6.7857,5 0,0 -3.2143,14.64286 0.7142,16.78572 3.9286,2.14286 5,8.57143 5,8.57143 0,0 6.2419,12.15147 11.7857,11.78571 7.0327,-0.46399 7.5,-13.21428 12.8571,-16.78571 6.8078,-5.89638 6.6434,4.02445 14.2858,6.78571 z"
           id="path3249-6-0"
           inkscape:connector-curvature="0"
           sodipodi:nodetypes="csssssccssacssccscacc" />
        <path
           style="fill:#ccff00;stroke:none"
           d="m 3233.9286,572.71932 c 0,0 8.5714,-13.92857 20,-12.14285 11.4285,1.78571 17.8571,-5.35715 18.2143,8.21428 0.3571,13.57143 5.3571,15.35715 -6.7858,20.35715 -12.1428,5 -19.6428,4.64285 -24.2857,4.64285 -4.6428,0 -9.6428,1.42857 -12.8571,3.21429 -3.2143,1.78571 -4.2857,1.78571 -6.0714,2.85714 -1.7858,1.07143 -10.3572,5 -15.3572,16.78572 -5,11.78571 -7.1428,12.14285 -7.1428,10.71428 0,-1.42857 2.7918,-12.28378 -1.4025,-15.11314 -4.2319,-2.85478 -7.8883,4.12892 -14.669,4.39886 -1.4285,0 -3.0903,-0.21173 0,-4.28572 4.3549,-5.74117 10.614,-14.49457 -4.9401,-14.0215 -15.5541,0.47308 -11.8456,-2.76421 -8.9884,-4.54993 13.4884,-0.86541 16.6653,-3.89496 6.0714,-4.64285 -7.8572,-1.42858 -10,-5.71429 0.3571,-5.35715 12.5615,1.47747 26.3672,-1.86089 33.5715,-1.78571 6.0714,0 8.5714,-3.57143 13.9285,-5.71429 5.3572,-2.14285 10.3572,-3.57143 10.3572,-3.57143 z"
           id="path3257-6-1"
           inkscape:connector-curvature="0"
           sodipodi:nodetypes="cssssscssacszccccsc" />
        <path
           style="fill:#ccff00;stroke:none"
           d="m 3321.0714,601.29075 c 0,0 -17.1428,-3.92857 -16.0714,-13.57143 1.0714,-9.64285 -1.4286,-20.71428 9.6429,-24.28571 11.0714,-3.57143 15.3571,-4.28571 21.7857,-1.42857 6.4285,2.85714 10,14.28571 10,19.28571 0,5 4.2856,4.28572 4.2856,-1.78571 0,-6.07143 -0.3571,-23.57143 4.2858,-22.14286 1.6483,22.35285 8.3242,6.56003 17.8571,5.71429 -2.8467,8.52027 -3.865,9.15467 -1.2193,12.6557 5.9527,5.622 14.7008,-1.05718 13.3622,4.13001 -1.0412,4.03458 -10.0098,2.38011 -10.3571,6.42857 -0.3676,4.28482 1.822,6.01562 9.6428,8.57143 2.1429,0.71429 3.4458,5.3392 -8.9286,3.57143 -5,-0.71429 -9.2857,-3.92857 -20,-0.35714 -10.7142,3.57143 -17.1428,6.42857 -17.1428,6.42857 0,0 0.3571,-4.64286 -5,-5 -5.3572,-0.35714 -12.1429,1.78571 -12.1429,1.78571 z"
           id="path3259-5-1"
           inkscape:connector-curvature="0"
           sodipodi:nodetypes="cssssscccsacsscsc" />
      </g>
    </g>
  </g>
</svg>
