<?xml version="1.0" encoding="UTF-8" standalone="no"?>
<!-- Created with Inkscape (http://www.inkscape.org/) -->

<svg
   xmlns:dc="http://purl.org/dc/elements/1.1/"
   xmlns:cc="http://creativecommons.org/ns#"
   xmlns:rdf="http://www.w3.org/1999/02/22-rdf-syntax-ns#"
   xmlns:svg="http://www.w3.org/2000/svg"
   xmlns="http://www.w3.org/2000/svg"
   xmlns:sodipodi="http://sodipodi.sourceforge.net/DTD/sodipodi-0.dtd"
   xmlns:inkscape="http://www.inkscape.org/namespaces/inkscape"
   width="744.09448819"
   height="1052.3622047"
   id="svg5691"
   version="1.1"
   inkscape:version="0.48.4 r9939"
   sodipodi:docname="footer_2.svg">
  <defs
     id="defs5693" />
  <sodipodi:namedview
     id="base"
     pagecolor="#ffffff"
     bordercolor="#666666"
     borderopacity="1.0"
     inkscape:pageopacity="0.0"
     inkscape:pageshadow="2"
     inkscape:zoom="0.49497475"
     inkscape:cx="433.73049"
     inkscape:cy="266.32344"
     inkscape:document-units="px"
     inkscape:current-layer="layer1"
     showgrid="false"
     inkscape:window-width="1301"
     inkscape:window-height="744"
     inkscape:window-x="65"
     inkscape:window-y="24"
     inkscape:window-maximized="1" />
  <metadata
     id="metadata5696">
    <rdf:RDF>
      <cc:Work
         rdf:about="">
        <dc:format>image/svg+xml</dc:format>
        <dc:type
           rdf:resource="http://purl.org/dc/dcmitype/StillImage" />
        <dc:title />
      </cc:Work>
    </rdf:RDF>
  </metadata>
  <g
     inkscape:label="Layer 1"
     inkscape:groupmode="layer"
     id="layer1">
    <rect
       style="fill:#cccccc;fill-opacity:1;stroke:none"
       id="rect3513-1"
       width="1900"
       height="400"
       x="-575"
       y="532.36218" />
    <g
       id="g3321">
      <path
         transform="matrix(0.69497103,0,0,0.69497103,-347.59577,247.08881)"
         d="m 612.14286,645.2193 a 42.142857,42.142857 0 1 1 -84.28572,0 42.142857,42.142857 0 1 1 84.28572,0 z"
         sodipodi:ry="42.142857"
         sodipodi:rx="42.142857"
         sodipodi:cy="645.2193"
         sodipodi:cx="570"
         id="path3787-9-0-6-9-3-8-7-1-14"
         style="fill:#ffffff;fill-opacity:1;stroke:none"
         sodipodi:type="arc" />
      <path
         transform="matrix(0.69497103,0,0,0.69497103,317.39224,235.17499)"
         d="m -360,662.36218 a 27.142857,27.142857 0 1 1 -54.28571,0 27.142857,27.142857 0 1 1 54.28571,0 z"
         sodipodi:ry="27.142857"
         sodipodi:rx="27.142857"
         sodipodi:cy="662.36218"
         sodipodi:cx="-387.14285"
         id="path3896-12-9-4-0-8-9-7-5-5"
         style="fill:#333333;fill-opacity:1;stroke:none"
         sodipodi:type="arc" />
      <path
         transform="matrix(0.60574889,0.34066545,-0.34066545,0.60574889,-645.80443,295.71641)"
         d="m 612.14286,645.2193 a 42.142857,42.142857 0 1 1 -84.28572,0 42.142857,42.142857 0 1 1 84.28572,0 z"
         sodipodi:ry="42.142857"
         sodipodi:rx="42.142857"
         sodipodi:cy="645.2193"
         sodipodi:cx="570"
         id="path3787-5-3-8-0-7-2-9-5-9-5-7"
         style="fill:#ffffff;fill-opacity:1;stroke:none"
         sodipodi:type="arc" />
      <rect
         transform="matrix(-0.1991958,-0.97995971,0.96806697,-0.25069174,0,0)"
         ry="0"
         rx="33.437954"
         y="-686.08234"
         x="-734.41534"
         height="111.1405"
         width="20.146585"
         id="rect3855-6-6-5-6-8-6-2-7-852-0-5"
         style="fill:#ffffff;fill-opacity:1;stroke:none" />
      <path
         transform="matrix(0.60574889,0.34066545,-0.34066545,0.60574889,-60.06812,611.00293)"
         d="m -360,662.36218 a 27.142857,27.142857 0 1 1 -54.28571,0 27.142857,27.142857 0 1 1 54.28571,0 z"
         sodipodi:ry="27.142857"
         sodipodi:rx="27.142857"
         sodipodi:cy="662.36218"
         sodipodi:cx="-387.14285"
         id="path3896-1-4-7-6-4-6-1-1-4-62-8"
         style="fill:#333333;fill-opacity:1;stroke:none"
         sodipodi:type="arc" />
      <path
         transform="matrix(0.69497103,0,0,0.69497103,-805.52185,404.1602)"
         d="m 612.14286,645.2193 a 42.142857,42.142857 0 1 1 -84.28572,0 42.142857,42.142857 0 1 1 84.28572,0 z"
         sodipodi:ry="42.142857"
         sodipodi:rx="42.142857"
         sodipodi:cy="645.2193"
         sodipodi:cx="570"
         id="path3787-9-0-6-9-3-8-7-75-6"
         style="fill:#ffffff;fill-opacity:1;stroke:none"
         sodipodi:type="arc" />
      <rect
         transform="matrix(0.71802554,-0.69601675,0.73298007,0.68025012,0,0)"
         ry="0"
         rx="33.437954"
         y="211.37262"
         x="-914.50922"
         height="111.1405"
         width="20.146585"
         id="rect3855-6-6-5-6-8-6-2-7-852-0-8"
         style="fill:#ffffff;fill-opacity:1;stroke:none" />
      <rect
         transform="matrix(0.2964604,-0.95504515,0.96937417,0.24558852,0,0)"
         ry="0"
         rx="33.437954"
         y="-137.39386"
         x="-939.85663"
         height="111.1405"
         width="20.146585"
         id="rect3855-6-6-5-6-8-6-2-7-852-0-3"
         style="fill:#ffffff;fill-opacity:1;stroke:none" />
      <rect
         transform="matrix(-0.71964844,-0.69433862,0.65534775,-0.7553273,0,0)"
         ry="0"
         rx="33.437954"
         y="-897.13452"
         x="-259.17926"
         height="111.1405"
         width="20.146585"
         id="rect3855-6-6-5-6-8-6-2-7-852-0-9"
         style="fill:#ffffff;fill-opacity:1;stroke:none" />
      <path
         transform="matrix(0.69497103,0,0,0.69497103,-140.53372,392.24638)"
         d="m -360,662.36218 a 27.142857,27.142857 0 1 1 -54.28571,0 27.142857,27.142857 0 1 1 54.28571,0 z"
         sodipodi:ry="27.142857"
         sodipodi:rx="27.142857"
         sodipodi:cy="662.36218"
         sodipodi:cx="-387.14285"
         id="path3896-12-9-4-0-8-9-7-54-5"
         style="fill:#333333;fill-opacity:1;stroke:none"
         sodipodi:type="arc" />
      <path
         transform="matrix(0.60574889,0.34066545,-0.34066545,0.60574889,-617.40445,185.82069)"
         d="m 612.14286,645.2193 a 42.142857,42.142857 0 1 1 -84.28572,0 42.142857,42.142857 0 1 1 84.28572,0 z"
         sodipodi:ry="42.142857"
         sodipodi:rx="42.142857"
         sodipodi:cy="645.2193"
         sodipodi:cx="570"
         id="path3787-5-3-8-0-7-2-9-5-9-5"
         style="fill:#ffffff;fill-opacity:1;stroke:none"
         sodipodi:type="arc" />
      <path
         transform="matrix(0.60574889,0.34066545,-0.34066545,0.60574889,-31.66811,501.10721)"
         d="m -360,662.36218 a 27.142857,27.142857 0 1 1 -54.28571,0 27.142857,27.142857 0 1 1 54.28571,0 z"
         sodipodi:ry="27.142857"
         sodipodi:rx="27.142857"
         sodipodi:cy="662.36218"
         sodipodi:cx="-387.14285"
         id="path3896-1-4-7-6-4-6-1-1-4-62"
         style="fill:#333333;fill-opacity:1;stroke:none"
         sodipodi:type="arc" />
      <path
         transform="matrix(0.69497103,0,0,0.69497103,-700.56532,432.56006)"
         d="m 612.14286,645.2193 a 42.142857,42.142857 0 1 1 -84.28572,0 42.142857,42.142857 0 1 1 84.28572,0 z"
         sodipodi:ry="42.142857"
         sodipodi:rx="42.142857"
         sodipodi:cy="645.2193"
         sodipodi:cx="570"
         id="path3787-9-0-6-9-3-8-7-75"
         style="fill:#ffffff;fill-opacity:1;stroke:none"
         sodipodi:type="arc" />
      <path
         transform="matrix(0.69497103,0,0,0.69497103,-35.57723,420.64624)"
         d="m -360,662.36218 a 27.142857,27.142857 0 1 1 -54.28571,0 27.142857,27.142857 0 1 1 54.28571,0 z"
         sodipodi:ry="27.142857"
         sodipodi:rx="27.142857"
         sodipodi:cy="662.36218"
         sodipodi:cx="-387.14285"
         id="path3896-12-9-4-0-8-9-7-54"
         style="fill:#333333;fill-opacity:1;stroke:none"
         sodipodi:type="arc" />
      <path
         transform="matrix(0.69497103,0,0,0.69497103,-735.13916,318.96018)"
         d="m 612.14286,645.2193 a 42.142857,42.142857 0 1 1 -84.28572,0 42.142857,42.142857 0 1 1 84.28572,0 z"
         sodipodi:ry="42.142857"
         sodipodi:rx="42.142857"
         sodipodi:cy="645.2193"
         sodipodi:cx="570"
         id="path3787-9-0-6-9-3-8-7-1"
         style="fill:#ffffff;fill-opacity:1;stroke:none"
         sodipodi:type="arc" />
      <rect
         transform="matrix(0.54137997,-0.84077805,0.86820648,0.49620309,0,0)"
         ry="0"
         rx="33.437954"
         y="129.97929"
         x="-844.69666"
         height="111.1405"
         width="20.146585"
         id="rect3855-6-6-5-6-8-6-2-7-852-0-58"
         style="fill:#ffffff;fill-opacity:1;stroke:none" />
      <rect
         transform="matrix(-0.66015449,-0.75112985,0.7152029,-0.69891689,0,0)"
         ry="0"
         rx="33.437954"
         y="-762.16052"
         x="-323.92944"
         height="111.1405"
         width="20.146585"
         id="rect3855-6-6-5-6-8-6-2-7-852-0-6"
         style="fill:#ffffff;fill-opacity:1;stroke:none" />
      <path
         transform="matrix(0.69497103,0,0,0.69497103,-70.15112,307.04636)"
         d="m -360,662.36218 a 27.142857,27.142857 0 1 1 -54.28571,0 27.142857,27.142857 0 1 1 54.28571,0 z"
         sodipodi:ry="27.142857"
         sodipodi:rx="27.142857"
         sodipodi:cy="662.36218"
         sodipodi:cx="-387.14285"
         id="path3896-12-9-4-0-8-9-7-5"
         style="fill:#333333;fill-opacity:1;stroke:none"
         sodipodi:type="arc" />
      <path
         transform="matrix(0.69497103,0,0,0.69497103,-642.53052,369.5863)"
         d="m 612.14286,645.2193 a 42.142857,42.142857 0 1 1 -84.28572,0 42.142857,42.142857 0 1 1 84.28572,0 z"
         sodipodi:ry="42.142857"
         sodipodi:rx="42.142857"
         sodipodi:cy="645.2193"
         sodipodi:cx="570"
         id="path3787-9-0-6-9-3-8-7-1-5"
         style="fill:#ffffff;fill-opacity:1;stroke:none"
         sodipodi:type="arc" />
      <rect
         transform="matrix(-0.4537522,-0.8911279,0.86591027,-0.50019937,0,0)"
         ry="0"
         rx="33.437954"
         y="-586.41083"
         x="-594.57782"
         height="111.1405"
         width="20.146585"
         id="rect3855-6-6-5-6-8-6-2-7-852-0-7"
         style="fill:#ffffff;fill-opacity:1;stroke:none" />
      <path
         transform="matrix(0.69497103,0,0,0.69497103,22.4575,357.67248)"
         d="m -360,662.36218 a 27.142857,27.142857 0 1 1 -54.28571,0 27.142857,27.142857 0 1 1 54.28571,0 z"
         sodipodi:ry="27.142857"
         sodipodi:rx="27.142857"
         sodipodi:cy="662.36218"
         sodipodi:cx="-387.14285"
         id="path3896-12-9-4-0-8-9-7-5-3"
         style="fill:#333333;fill-opacity:1;stroke:none"
         sodipodi:type="arc" />
      <path
         transform="matrix(0.60574889,0.34066545,-0.34066545,0.60574889,-384.03061,105.55999)"
         d="m 612.14286,645.2193 a 42.142857,42.142857 0 1 1 -84.28572,0 42.142857,42.142857 0 1 1 84.28572,0 z"
         sodipodi:ry="42.142857"
         sodipodi:rx="42.142857"
         sodipodi:cy="645.2193"
         sodipodi:cx="570"
         id="path3787-5-3-8-0-7-2-9-5-9-3"
         style="fill:#ffffff;fill-opacity:1;stroke:none"
         sodipodi:type="arc" />
      <rect
         transform="matrix(0.2964604,-0.95504515,0.96937417,0.24558852,0,0)"
         ry="0"
         rx="33.437954"
         y="-153.69524"
         x="-744.94122"
         height="111.1405"
         width="20.146585"
         id="rect3855-6-6-5-6-8-6-2-7-852-0-85"
         style="fill:#ffffff;fill-opacity:1;stroke:none" />
      <rect
         transform="matrix(-0.75346289,-0.65749044,0.61676452,-0.78714772,0,0)"
         ry="0"
         rx="33.437954"
         y="-688.61499"
         x="-234.15147"
         height="111.1405"
         width="20.146585"
         id="rect3855-6-6-5-6-8-6-2-7-852-0-74"
         style="fill:#ffffff;fill-opacity:1;stroke:none" />
      <path
         transform="matrix(0.60574889,0.34066545,-0.34066545,0.60574889,201.70567,420.84651)"
         d="m -360,662.36218 a 27.142857,27.142857 0 1 1 -54.28571,0 27.142857,27.142857 0 1 1 54.28571,0 z"
         sodipodi:ry="27.142857"
         sodipodi:rx="27.142857"
         sodipodi:cy="662.36218"
         sodipodi:cx="-387.14285"
         id="path3896-1-4-7-6-4-6-1-1-4-2"
         style="fill:#333333;fill-opacity:1;stroke:none"
         sodipodi:type="arc" />
      <path
         transform="matrix(0.60574889,0.34066545,-0.34066545,0.60574889,-493.9262,77.159958)"
         d="m 612.14286,645.2193 a 42.142857,42.142857 0 1 1 -84.28572,0 42.142857,42.142857 0 1 1 84.28572,0 z"
         sodipodi:ry="42.142857"
         sodipodi:rx="42.142857"
         sodipodi:cy="645.2193"
         sodipodi:cx="570"
         id="path3787-5-3-8-0-7-2-9-5-9"
         style="fill:#ffffff;fill-opacity:1;stroke:none"
         sodipodi:type="arc" />
      <rect
         transform="matrix(-0.23670114,-0.97158251,0.95771995,-0.28770211,0,0)"
         ry="0"
         rx="33.437954"
         y="-630.08063"
         x="-532.42371"
         height="111.1405"
         width="20.146585"
         id="rect3855-6-6-5-6-8-6-2-7-852-0-64"
         style="fill:#ffffff;fill-opacity:1;stroke:none" />
      <path
         transform="matrix(0.60574889,0.34066545,-0.34066545,0.60574889,91.8101,392.44647)"
         d="m -360,662.36218 a 27.142857,27.142857 0 1 1 -54.28571,0 27.142857,27.142857 0 1 1 54.28571,0 z"
         sodipodi:ry="27.142857"
         sodipodi:rx="27.142857"
         sodipodi:cy="662.36218"
         sodipodi:cx="-387.14285"
         id="path3896-1-4-7-6-4-6-1-1-4"
         style="fill:#333333;fill-opacity:1;stroke:none"
         sodipodi:type="arc" />
      <path
         transform="matrix(0.69497103,0,0,0.69497103,-875.90429,242.40364)"
         d="m 612.14286,645.2193 a 42.142857,42.142857 0 1 1 -84.28572,0 42.142857,42.142857 0 1 1 84.28572,0 z"
         sodipodi:ry="42.142857"
         sodipodi:rx="42.142857"
         sodipodi:cy="645.2193"
         sodipodi:cx="570"
         id="path3787-9-0-6-9-3-8-7-1-1"
         style="fill:#ffffff;fill-opacity:1;stroke:none"
         sodipodi:type="arc" />
      <rect
         transform="matrix(0.9613153,-0.27545034,0.32585474,0.94541985,0,0)"
         ry="0"
         rx="33.437954"
         y="415.96295"
         x="-690.72101"
         height="111.1405"
         width="20.146585"
         id="rect3855-6-6-5-6-8-6-2-7-852-0-2"
         style="fill:#ffffff;fill-opacity:1;stroke:none" />
      <path
         transform="matrix(0.69497103,0,0,0.69497103,-210.91629,230.48982)"
         d="m -360,662.36218 a 27.142857,27.142857 0 1 1 -54.28571,0 27.142857,27.142857 0 1 1 54.28571,0 z"
         sodipodi:ry="27.142857"
         sodipodi:rx="27.142857"
         sodipodi:cy="662.36218"
         sodipodi:cx="-387.14285"
         id="path3896-12-9-4-0-8-9-7-5-6"
         style="fill:#333333;fill-opacity:1;stroke:none"
         sodipodi:type="arc" />
      <path
         transform="matrix(0.69497103,0,0,0.69497103,-911.71299,139.91685)"
         d="m 612.14286,645.2193 a 42.142857,42.142857 0 1 1 -84.28572,0 42.142857,42.142857 0 1 1 84.28572,0 z"
         sodipodi:ry="42.142857"
         sodipodi:rx="42.142857"
         sodipodi:cy="645.2193"
         sodipodi:cx="570"
         id="path3787-9-0-6-9-3-8-7-1-1-3"
         style="fill:#ffffff;fill-opacity:1;stroke:none"
         sodipodi:type="arc" />
      <path
         transform="matrix(0.69497103,0,0,0.69497103,-246.72499,128.00303)"
         d="m -360,662.36218 a 27.142857,27.142857 0 1 1 -54.28571,0 27.142857,27.142857 0 1 1 54.28571,0 z"
         sodipodi:ry="27.142857"
         sodipodi:rx="27.142857"
         sodipodi:cy="662.36218"
         sodipodi:cx="-387.14285"
         id="path3896-12-9-4-0-8-9-7-5-6-2"
         style="fill:#333333;fill-opacity:1;stroke:none"
         sodipodi:type="arc" />
      <path
         transform="matrix(0.60574889,0.34066545,-0.34066545,0.60574889,-272.90024,177.17731)"
         d="m 612.14286,645.2193 a 42.142857,42.142857 0 1 1 -84.28572,0 42.142857,42.142857 0 1 1 84.28572,0 z"
         sodipodi:ry="42.142857"
         sodipodi:rx="42.142857"
         sodipodi:cy="645.2193"
         sodipodi:cx="570"
         id="path3787-5-3-8-0-7-2-9-5-9-6-41"
         style="fill:#ccff00;fill-opacity:1;stroke:none"
         sodipodi:type="arc" />
      <path
         transform="matrix(0.60574889,0.34066545,-0.34066545,0.60574889,312.83601,492.46382)"
         d="m -360,662.36218 a 27.142857,27.142857 0 1 1 -54.28571,0 27.142857,27.142857 0 1 1 54.28571,0 z"
         sodipodi:ry="27.142857"
         sodipodi:rx="27.142857"
         sodipodi:cy="662.36218"
         sodipodi:cx="-387.14285"
         id="path3896-1-4-7-6-4-6-1-1-4-6-0"
         style="fill:#333333;fill-opacity:1;stroke:none"
         sodipodi:type="arc" />
      <path
         transform="matrix(0.60574889,0.34066545,-0.34066545,0.60574889,-316.11758,17.890363)"
         d="m 612.14286,645.2193 a 42.142857,42.142857 0 1 1 -84.28572,0 42.142857,42.142857 0 1 1 84.28572,0 z"
         sodipodi:ry="42.142857"
         sodipodi:rx="42.142857"
         sodipodi:cy="645.2193"
         sodipodi:cx="570"
         id="path3787-5-3-8-0-7-2-9-5-9-6"
         style="fill:#ffffff;fill-opacity:1;stroke:none"
         sodipodi:type="arc" />
      <path
         transform="matrix(0.60574889,0.34066545,-0.34066545,0.60574889,269.61867,333.17688)"
         d="m -360,662.36218 a 27.142857,27.142857 0 1 1 -54.28571,0 27.142857,27.142857 0 1 1 54.28571,0 z"
         sodipodi:ry="27.142857"
         sodipodi:rx="27.142857"
         sodipodi:cy="662.36218"
         sodipodi:cx="-387.14285"
         id="path3896-1-4-7-6-4-6-1-1-4-6"
         style="fill:#333333;fill-opacity:1;stroke:none"
         sodipodi:type="arc" />
      <g
         transform="matrix(-0.00202905,0.36902632,-0.36902632,-0.00202905,107.5199,-509.02383)"
         style="fill:#ccff00;stroke:none"
         id="g3261-7-4">
        <path
           style="fill:#ccff00;stroke:none"
           d="m 3198.5714,336.6479 c 0,0 -18.5714,24.28571 -15.7143,41.42857 2.8572,17.14286 25.7143,50 25.7143,50 1.3288,13.89088 3.3508,29.78734 3.5504,31.60189 4.2857,37.14285 49.7251,40.59173 49.7251,96.30601 0,55.71429 -6.1326,44.94924 -28.9898,74.94924 -22.8571,30 -26.6853,54.01654 -22.8571,80 5.9594,40.44816 38.3816,100.24775 141.4286,84.28572 71.5424,-11.08194 81.4285,-32.85715 81.4285,-32.85715 0,0 0.7293,5.90898 -39.8687,14.28572 -65.6722,13.5504 -153.277,-26.19054 -139.6113,-92.61204 5.2417,-25.4775 19.9282,-32.39667 41.082,-57.14286 42.001,-55.2481 32.3876,-97.13291 25.5409,-117.07107 -6.8467,-19.93815 -20.9211,-28.24272 -29.2634,-44.68322 -7.9839,-15.73428 -29.2862,-25.17935 -36.9709,-48.23339 -2.5822,-28.96011 -2.683,-42.90223 -15.1943,-58.82885 -9.3441,-11.89482 -30,-21.42857 -40,-21.42857 z"
           id="path3245-1-7"
           inkscape:connector-curvature="0"
           sodipodi:nodetypes="csccsssscssczscac" />
        <path
           style="fill:#ccff00;stroke:none"
           d="m 3281.5373,466.82287 c 23.8824,-13.32688 23.2015,-11.53014 33.7144,-28.35069 0,0 3.8311,-13.79224 -6.8961,-20.68835 -10.7274,-6.89612 -18.3775,-17.98929 -10.1776,-19.43476 3.6713,-0.64718 2.5151,-1.25359 8.6451,-1.25359 6.1299,0 9.4779,-1.67997 8.9815,-4.96996 -34.831,2.85741 -14.0759,-9.20037 -23.54,-19.54957 -5.3637,0 -1.0842,0.2092 -4.9155,8.63779 -9.408,15.52794 -18.4764,-1.11016 -24.2014,-4.80661 -3.8312,2.2987 -0.5393,8.33167 7.7669,17.33627 11.0553,7.83506 -8.8984,23.64281 -1.6371,27.10537 5.1919,2.03051 3.4673,-8.52155 8.0648,-14.65143 4.5974,-6.12988 12.6236,6.98907 12.6236,6.98907 2.0885,5.83451 6.4549,12.36455 5.0662,16.76328 -2.7638,8.75454 -14.7105,13.60454 -17.4855,19.49187 -4.4589,9.4597 1.2399,17.20058 3.9907,17.38131 z"
           id="path3247-0-7"
           inkscape:connector-curvature="0"
           sodipodi:nodetypes="ccsssccccccsccsc" />
        <path
           style="fill:#ccff00;stroke:none"
           d="m 3225.3572,463.79075 c 7.8571,3.21429 16.7857,4.64286 11.4286,10.71429 -5.3572,6.07142 -13.5715,10 -22.5,14.28571 -8.9286,4.28571 -15,10.35714 -21.4286,1.07143 -6.4286,-9.28572 -16.0714,-27.5 -18.5714,-27.14286 -2.5,0.35714 -13.9286,15.35714 -14.6429,20.35714 -0.7143,5 -6.0714,2.5 -6.0714,2.5 0,0 -6.4286,-2.5 0,-7.85714 9.0428,-16.74701 -0.5924,-11.01156 -14.7961,-15.633 -1.3818,-0.44962 0.1532,-4.72414 3.0104,-5.08128 2.8571,-0.35715 14.0996,-1.42497 15.3568,-6.8933 0.7896,-3.43429 -6.7854,-8.1067 -6.7854,-8.1067 0,0 -0.7143,-8.57143 3.5714,-5 4.2857,3.57142 8.2446,5.62834 15.5419,7.47415 5.3586,1.35541 0.8867,-10.3313 4.4582,-12.8313 3.5714,-2.5 6.7857,5 6.7857,5 0,0 -3.2143,14.64286 0.7142,16.78572 3.9286,2.14286 5,8.57143 5,8.57143 0,0 6.2419,12.15147 11.7857,11.78571 7.0327,-0.46399 7.5,-13.21428 12.8571,-16.78571 6.8078,-5.89638 6.6434,4.02445 14.2858,6.78571 z"
           id="path3249-6-0"
           inkscape:connector-curvature="0"
           sodipodi:nodetypes="csssssccssacssccscacc" />
        <path
           style="fill:#ccff00;stroke:none"
           d="m 3233.9286,572.71932 c 0,0 8.5714,-13.92857 20,-12.14285 11.4285,1.78571 17.8571,-5.35715 18.2143,8.21428 0.3571,13.57143 5.3571,15.35715 -6.7858,20.35715 -12.1428,5 -19.6428,4.64285 -24.2857,4.64285 -4.6428,0 -9.6428,1.42857 -12.8571,3.21429 -3.2143,1.78571 -4.2857,1.78571 -6.0714,2.85714 -1.7858,1.07143 -10.3572,5 -15.3572,16.78572 -5,11.78571 -7.1428,12.14285 -7.1428,10.71428 0,-1.42857 2.7918,-12.28378 -1.4025,-15.11314 -4.2319,-2.85478 -7.8883,4.12892 -14.669,4.39886 -1.4285,0 -3.0903,-0.21173 0,-4.28572 4.3549,-5.74117 10.614,-14.49457 -4.9401,-14.0215 -15.5541,0.47308 -11.8456,-2.76421 -8.9884,-4.54993 13.4884,-0.86541 16.6653,-3.89496 6.0714,-4.64285 -7.8572,-1.42858 -10,-5.71429 0.3571,-5.35715 12.5615,1.47747 26.3672,-1.86089 33.5715,-1.78571 6.0714,0 8.5714,-3.57143 13.9285,-5.71429 5.3572,-2.14285 10.3572,-3.57143 10.3572,-3.57143 z"
           id="path3257-6-1"
           inkscape:connector-curvature="0"
           sodipodi:nodetypes="cssssscssacszccccsc" />
        <path
           style="fill:#ccff00;stroke:none"
           d="m 3321.0714,601.29075 c 0,0 -17.1428,-3.92857 -16.0714,-13.57143 1.0714,-9.64285 -1.4286,-20.71428 9.6429,-24.28571 11.0714,-3.57143 15.3571,-4.28571 21.7857,-1.42857 6.4285,2.85714 10,14.28571 10,19.28571 0,5 4.2856,4.28572 4.2856,-1.78571 0,-6.07143 -0.3571,-23.57143 4.2858,-22.14286 1.6483,22.35285 8.3242,6.56003 17.8571,5.71429 -2.8467,8.52027 -3.865,9.15467 -1.2193,12.6557 5.9527,5.622 14.7008,-1.05718 13.3622,4.13001 -1.0412,4.03458 -10.0098,2.38011 -10.3571,6.42857 -0.3676,4.28482 1.822,6.01562 9.6428,8.57143 2.1429,0.71429 3.4458,5.3392 -8.9286,3.57143 -5,-0.71429 -9.2857,-3.92857 -20,-0.35714 -10.7142,3.57143 -17.1428,6.42857 -17.1428,6.42857 0,0 0.3571,-4.64286 -5,-5 -5.3572,-0.35714 -12.1429,1.78571 -12.1429,1.78571 z"
           id="path3259-5-1"
           inkscape:connector-curvature="0"
           sodipodi:nodetypes="cssssscccsacsscsc" />
      </g>
    </g>
    <g
       id="g3252"
       transform="translate(-4,0)">
      <path
         transform="matrix(0.69497103,0,0,0.69497103,730.14711,171.91645)"
         d="m 612.14286,645.2193 c 0,23.27486 -18.868,42.14286 -42.14286,42.14286 -23.27486,0 -42.14286,-18.868 -42.14286,-42.14286 0,-23.27486 18.868,-42.14286 42.14286,-42.14286 23.27486,0 42.14286,18.868 42.14286,42.14286 z"
         sodipodi:ry="42.142857"
         sodipodi:rx="42.142857"
         sodipodi:cy="645.2193"
         sodipodi:cx="570"
         id="path3787-9-0-6-9-3-8-7"
         style="fill:#ffffff;fill-opacity:1;stroke:none"
         sodipodi:type="arc" />
      <path
         transform="matrix(0.60574889,0.34066545,-0.34066545,0.60574889,1122.0035,38.77705)"
         d="m 612.14286,645.2193 c 0,23.27486 -18.868,42.14286 -42.14286,42.14286 -23.27486,0 -42.14286,-18.868 -42.14286,-42.14286 0,-23.27486 18.868,-42.14286 42.14286,-42.14286 23.27486,0 42.14286,18.868 42.14286,42.14286 z"
         sodipodi:ry="42.142857"
         sodipodi:rx="42.142857"
         sodipodi:cy="645.2193"
         sodipodi:cx="570"
         id="path3787-5-3-8-0-7-2-9-5"
         style="fill:#ffffff;fill-opacity:1;stroke:none"
         sodipodi:type="arc" />
      <rect
         transform="matrix(-0.17145182,-0.98519251,0.97475825,-0.22326296,0,0)"
         ry="0"
         rx="33.437954"
         y="887.89667"
         x="-862.90973"
         height="111.1405"
         width="20.146585"
         id="rect3855-6-6-5-6-8-6-2-7-52"
         style="fill:#ffffff;fill-opacity:1;stroke:none" />
      <rect
         transform="matrix(0.70538792,0.70882147,-0.6705638,0.74185186,0,0)"
         ry="0"
         rx="33.437954"
         y="-458.64322"
         x="1245.0348"
         height="111.1405"
         width="20.146585"
         id="rect3855-5-71-7-0-5-8-4"
         style="fill:#ffffff;fill-opacity:1;stroke:none" />
      <rect
         transform="matrix(0.9462065,0.32356337,-0.27312062,0.9619798,0,0)"
         ry="0"
         rx="33.437954"
         y="189.49345"
         x="1362.0007"
         height="111.1405"
         width="20.146585"
         id="rect3855-6-6-5-6-8-6-2-7-9"
         style="fill:#ffffff;fill-opacity:1;stroke:none" />
      <rect
         transform="matrix(0.70519563,-0.70901279,0.7452801,0.66675151,0,0)"
         ry="0"
         rx="33.437954"
         y="1225.9425"
         x="367.98801"
         height="111.1405"
         width="20.146585"
         id="rect3855-6-6-5-6-8-6-2-7"
         style="fill:#ffffff;fill-opacity:1;stroke:none" />
      <path
         transform="matrix(0.69497103,0,0,0.69497103,1395.1352,160.00263)"
         d="m -360,662.36218 c 0,14.99059 -12.15227,27.14286 -27.14285,27.14286 -14.99059,0 -27.14286,-12.15227 -27.14286,-27.14286 0,-14.99058 12.15227,-27.14285 27.14286,-27.14285 14.99058,0 27.14285,12.15227 27.14285,27.14285 z"
         sodipodi:ry="27.142857"
         sodipodi:rx="27.142857"
         sodipodi:cy="662.36218"
         sodipodi:cx="-387.14285"
         id="path3896-12-9-4-0-8-9-7"
         style="fill:#333333;fill-opacity:1;stroke:none"
         sodipodi:type="arc" />
      <path
         transform="matrix(0.60574889,0.34066545,-0.34066545,0.60574889,1707.7398,354.06357)"
         d="m -360,662.36218 c 0,14.99059 -12.15227,27.14286 -27.14285,27.14286 -14.99059,0 -27.14286,-12.15227 -27.14286,-27.14286 0,-14.99058 12.15227,-27.14285 27.14286,-27.14285 14.99058,0 27.14285,12.15227 27.14285,27.14285 z"
         sodipodi:ry="27.142857"
         sodipodi:rx="27.142857"
         sodipodi:cy="662.36218"
         sodipodi:cx="-387.14285"
         id="path3896-1-4-7-6-4-6-1-1"
         style="fill:#333333;fill-opacity:1;stroke:none"
         sodipodi:type="arc" />
      <path
         transform="matrix(0.69497103,0,0,0.69497103,374.52989,367.84697)"
         d="m 612.14286,645.2193 c 0,23.27486 -18.868,42.14286 -42.14286,42.14286 -23.27486,0 -42.14286,-18.868 -42.14286,-42.14286 0,-23.27486 18.868,-42.14286 42.14286,-42.14286 23.27486,0 42.14286,18.868 42.14286,42.14286 z"
         sodipodi:ry="42.142857"
         sodipodi:rx="42.142857"
         sodipodi:cy="645.2193"
         sodipodi:cx="570"
         id="path3787-9-0-6-9-3-8-7-75-2"
         style="fill:#ffffff;fill-opacity:1;stroke:none"
         sodipodi:type="arc" />
      <path
         transform="matrix(0.69497103,0,0,0.69497103,1039.518,355.93315)"
         d="m -360,662.36218 c 0,14.99059 -12.15227,27.14286 -27.14285,27.14286 -14.99059,0 -27.14286,-12.15227 -27.14286,-27.14286 0,-14.99058 12.15227,-27.14285 27.14286,-27.14285 14.99058,0 27.14285,12.15227 27.14285,27.14285 z"
         sodipodi:ry="27.142857"
         sodipodi:rx="27.142857"
         sodipodi:cy="662.36218"
         sodipodi:cx="-387.14285"
         id="path3896-12-9-4-0-8-9-7-54-1"
         style="fill:#333333;fill-opacity:1;stroke:none"
         sodipodi:type="arc" />
      <path
         transform="matrix(0.60574889,0.34066545,-0.34066545,0.60574889,1087.4296,143.33378)"
         d="m 612.14286,645.2193 c 0,23.27486 -18.868,42.14286 -42.14286,42.14286 -23.27486,0 -42.14286,-18.868 -42.14286,-42.14286 0,-23.27486 18.868,-42.14286 42.14286,-42.14286 23.27486,0 42.14286,18.868 42.14286,42.14286 z"
         sodipodi:ry="42.142857"
         sodipodi:rx="42.142857"
         sodipodi:cy="645.2193"
         sodipodi:cx="570"
         id="path3787-5-3-8-0-7-2-9-5-0-9"
         style="fill:#ffffff;fill-opacity:1;stroke:none"
         sodipodi:type="arc" />
      <rect
         transform="matrix(0.85696467,-0.51537515,0.55993131,0.82853903,0,0)"
         ry="0"
         rx="33.437954"
         y="1261.1403"
         x="586.62927"
         height="111.1405"
         width="20.146585"
         id="rect3855-6-6-5-6-8-6-2-7-29"
         style="fill:#ffffff;fill-opacity:1;stroke:none" />
      <rect
         transform="matrix(0.58012096,0.81453034,-0.78274325,0.62234477,0,0)"
         ry="0"
         rx="33.437954"
         y="-565.10028"
         x="1318.1669"
         height="111.1405"
         width="20.146585"
         id="rect3855-6-6-5-6-8-6-2-7-3"
         style="fill:#ffffff;fill-opacity:1;stroke:none" />
      <rect
         transform="matrix(0.01661287,-0.999862,0.99934326,-0.03623597,0,0)"
         ry="0"
         rx="33.437954"
         y="1100.428"
         x="-781.1582"
         height="111.1405"
         width="20.146585"
         id="rect3855-6-6-5-6-8-6-2-7-5"
         style="fill:#ffffff;fill-opacity:1;stroke:none" />
      <path
         transform="matrix(0.60574889,0.34066545,-0.34066545,0.60574889,1673.166,458.62021)"
         d="m -360,662.36218 c 0,14.99059 -12.15227,27.14286 -27.14285,27.14286 -14.99059,0 -27.14286,-12.15227 -27.14286,-27.14286 0,-14.99058 12.15227,-27.14285 27.14286,-27.14285 14.99058,0 27.14285,12.15227 27.14285,27.14285 z"
         sodipodi:ry="27.142857"
         sodipodi:rx="27.142857"
         sodipodi:cy="662.36218"
         sodipodi:cx="-387.14285"
         id="path3896-1-4-7-6-4-6-1-1-7-1"
         style="fill:#333333;fill-opacity:1;stroke:none"
         sodipodi:type="arc" />
      <path
         transform="matrix(0.69497103,0,0,0.69497103,731.04833,350.56275)"
         d="m 612.14286,645.2193 c 0,23.27486 -18.868,42.14286 -42.14286,42.14286 -23.27486,0 -42.14286,-18.868 -42.14286,-42.14286 0,-23.27486 18.868,-42.14286 42.14286,-42.14286 23.27486,0 42.14286,18.868 42.14286,42.14286 z"
         sodipodi:ry="42.142857"
         sodipodi:rx="42.142857"
         sodipodi:cy="645.2193"
         sodipodi:cx="570"
         id="path3787-9-0-6-9-3-8-7-5-1"
         style="fill:#ffffff;fill-opacity:1;stroke:none"
         sodipodi:type="arc" />
      <path
         transform="matrix(0.60574889,0.34066545,-0.34066545,0.60574889,1154.1079,242.11632)"
         d="m 612.14286,645.2193 c 0,23.27486 -18.868,42.14286 -42.14286,42.14286 -23.27486,0 -42.14286,-18.868 -42.14286,-42.14286 0,-23.27486 18.868,-42.14286 42.14286,-42.14286 23.27486,0 42.14286,18.868 42.14286,42.14286 z"
         sodipodi:ry="42.142857"
         sodipodi:rx="42.142857"
         sodipodi:cy="645.2193"
         sodipodi:cx="570"
         id="path3787-5-3-8-0-7-2-9-5-0-7"
         style="fill:#ccff00;fill-opacity:1;stroke:none"
         sodipodi:type="arc" />
      <rect
         transform="matrix(0.85696467,-0.51537515,0.55993131,0.82853903,0,0)"
         ry="0"
         rx="33.437954"
         y="1244.802"
         x="476.27679"
         height="111.1405"
         width="20.146585"
         id="rect3855-6-6-5-6-8-6-2-7-39"
         style="fill:#ffffff;fill-opacity:1;stroke:none" />
      <rect
         transform="matrix(0.70225913,0.71192143,-0.67382474,0.73889121,0,0)"
         ry="0"
         rx="33.437954"
         y="-248.21745"
         x="1364.0981"
         height="111.1405"
         width="20.146585"
         id="rect3855-6-6-5-6-8-6-2-7-8"
         style="fill:#ffffff;fill-opacity:1;stroke:none" />
      <path
         transform="matrix(0.69497103,0,0,0.69497103,1396.0365,338.64893)"
         d="m -360,662.36218 c 0,14.99059 -12.15227,27.14286 -27.14285,27.14286 -14.99059,0 -27.14286,-12.15227 -27.14286,-27.14286 0,-14.99058 12.15227,-27.14285 27.14286,-27.14285 14.99058,0 27.14285,12.15227 27.14285,27.14285 z"
         sodipodi:ry="27.142857"
         sodipodi:rx="27.142857"
         sodipodi:cy="662.36218"
         sodipodi:cx="-387.14285"
         id="path3896-12-9-4-0-8-9-7-1-8"
         style="fill:#333333;fill-opacity:1;stroke:none"
         sodipodi:type="arc" />
      <path
         transform="matrix(0.60574889,0.34066545,-0.34066545,0.60574889,1739.8442,557.40284)"
         d="m -360,662.36218 c 0,14.99059 -12.15227,27.14286 -27.14285,27.14286 -14.99059,0 -27.14286,-12.15227 -27.14286,-27.14286 0,-14.99058 12.15227,-27.14285 27.14286,-27.14285 14.99058,0 27.14285,12.15227 27.14285,27.14285 z"
         sodipodi:ry="27.142857"
         sodipodi:rx="27.142857"
         sodipodi:cy="662.36218"
         sodipodi:cx="-387.14285"
         id="path3896-1-4-7-6-4-6-1-1-7-7"
         style="fill:#333333;fill-opacity:1;stroke:none"
         sodipodi:type="arc" />
      <path
         transform="matrix(0.60574889,0.34066545,-0.34066545,0.60574889,483.80767,69.728673)"
         d="m 612.14286,645.2193 c 0,23.27486 -18.868,42.14286 -42.14286,42.14286 -23.27486,0 -42.14286,-18.868 -42.14286,-42.14286 0,-23.27486 18.868,-42.14286 42.14286,-42.14286 23.27486,0 42.14286,18.868 42.14286,42.14286 z"
         sodipodi:ry="42.142857"
         sodipodi:rx="42.142857"
         sodipodi:cy="645.2193"
         sodipodi:cx="570"
         id="path3787-5-3-8-0-7-2-9-5-92-2"
         style="fill:#ffffff;fill-opacity:1;stroke:none"
         sodipodi:type="arc" />
      <rect
         transform="matrix(0.93108093,0.36481269,-0.31511145,0.94905467,0,0)"
         ry="0"
         rx="33.437954"
         y="392.7677"
         x="776.04987"
         height="111.1405"
         width="20.146585"
         id="rect3855-6-6-5-6-8-6-2-7-57"
         style="fill:#ffffff;fill-opacity:1;stroke:none" />
      <path
         transform="matrix(0.60574889,0.34066545,-0.34066545,0.60574889,1069.544,385.01519)"
         d="m -360,662.36218 c 0,14.99059 -12.15227,27.14286 -27.14285,27.14286 -14.99059,0 -27.14286,-12.15227 -27.14286,-27.14286 0,-14.99058 12.15227,-27.14285 27.14286,-27.14285 14.99058,0 27.14285,12.15227 27.14285,27.14285 z"
         sodipodi:ry="27.142857"
         sodipodi:rx="27.142857"
         sodipodi:cy="662.36218"
         sodipodi:cx="-387.14285"
         id="path3896-1-4-7-6-4-6-1-1-6-9"
         style="fill:#333333;fill-opacity:1;stroke:none"
         sodipodi:type="arc" />
      <path
         transform="matrix(0.60574889,0.34066545,-0.34066545,0.60574889,444.29467,180.85911)"
         d="m 612.14286,645.2193 c 0,23.27486 -18.868,42.14286 -42.14286,42.14286 -23.27486,0 -42.14286,-18.868 -42.14286,-42.14286 0,-23.27486 18.868,-42.14286 42.14286,-42.14286 23.27486,0 42.14286,18.868 42.14286,42.14286 z"
         sodipodi:ry="42.142857"
         sodipodi:rx="42.142857"
         sodipodi:cy="645.2193"
         sodipodi:cx="570"
         id="path3787-5-3-8-0-7-2-9-5-0-5"
         style="fill:#ffffff;fill-opacity:1;stroke:none"
         sodipodi:type="arc" />
      <rect
         transform="matrix(0.36346597,-0.93160748,0.94950933,0.31373879,0,0)"
         ry="0"
         rx="33.437954"
         y="811.63947"
         x="-562.12415"
         height="111.1405"
         width="20.146585"
         id="rect3855-6-6-5-6-8-6-2-7-26"
         style="fill:#ffffff;fill-opacity:1;stroke:none" />
      <path
         transform="matrix(0.60574889,0.34066545,-0.34066545,0.60574889,1030.0311,496.14563)"
         d="m -360,662.36218 c 0,14.99059 -12.15227,27.14286 -27.14285,27.14286 -14.99059,0 -27.14286,-12.15227 -27.14286,-27.14286 0,-14.99058 12.15227,-27.14285 27.14286,-27.14285 14.99058,0 27.14285,12.15227 27.14285,27.14285 z"
         sodipodi:ry="27.142857"
         sodipodi:rx="27.142857"
         sodipodi:cy="662.36218"
         sodipodi:cx="-387.14285"
         id="path3896-1-4-7-6-4-6-1-1-7-9"
         style="fill:#333333;fill-opacity:1;stroke:none"
         sodipodi:type="arc" />
      <path
         transform="matrix(0.69497103,0,0,0.69497103,695.57318,283.88185)"
         d="m 612.14286,645.2193 c 0,23.27486 -18.868,42.14286 -42.14286,42.14286 -23.27486,0 -42.14286,-18.868 -42.14286,-42.14286 0,-23.27486 18.868,-42.14286 42.14286,-42.14286 23.27486,0 42.14286,18.868 42.14286,42.14286 z"
         sodipodi:ry="42.142857"
         sodipodi:rx="42.142857"
         sodipodi:cy="645.2193"
         sodipodi:cx="570"
         id="path3787-9-0-6-9-3-8-7-5-4"
         style="fill:#ffffff;fill-opacity:1;stroke:none"
         sodipodi:type="arc" />
      <rect
         transform="matrix(0.81119671,-0.58477338,0.62681456,0.77916847,0,0)"
         ry="0"
         rx="33.437954"
         y="1118.9635"
         x="384.13358"
         height="111.1405"
         width="20.146585"
         id="rect3855-6-6-5-6-8-6-2-7-4"
         style="fill:#ffffff;fill-opacity:1;stroke:none" />
      <path
         transform="matrix(0.69497103,0,0,0.69497103,1360.5613,271.96803)"
         d="m -360,662.36218 c 0,14.99059 -12.15227,27.14286 -27.14285,27.14286 -14.99059,0 -27.14286,-12.15227 -27.14286,-27.14286 0,-14.99058 12.15227,-27.14285 27.14286,-27.14285 14.99058,0 27.14285,12.15227 27.14285,27.14285 z"
         sodipodi:ry="27.142857"
         sodipodi:rx="27.142857"
         sodipodi:cy="662.36218"
         sodipodi:cx="-387.14285"
         id="path3896-12-9-4-0-8-9-7-1-0"
         style="fill:#333333;fill-opacity:1;stroke:none"
         sodipodi:type="arc" />
      <rect
         transform="matrix(0.85696467,-0.51537515,0.55993131,0.82853903,0,0)"
         ry="0"
         rx="33.437954"
         y="1180.756"
         x="371.1478"
         height="111.1405"
         width="20.146585"
         id="rect3855-6-6-5-6-8-6-2-7-1"
         style="fill:#ffffff;fill-opacity:1;stroke:none" />
      <path
         transform="matrix(0.60574889,0.34066545,-0.34066545,0.60574889,926.90793,293.97708)"
         d="m 612.14286,645.2193 c 0,23.27486 -18.868,42.14286 -42.14286,42.14286 -23.27486,0 -42.14286,-18.868 -42.14286,-42.14286 0,-23.27486 18.868,-42.14286 42.14286,-42.14286 23.27486,0 42.14286,18.868 42.14286,42.14286 z"
         sodipodi:ry="42.142857"
         sodipodi:rx="42.142857"
         sodipodi:cy="645.2193"
         sodipodi:cx="570"
         id="path3787-5-3-8-0-7-2-9-5-92-1"
         style="fill:#ffffff;fill-opacity:1;stroke:none"
         sodipodi:type="arc" />
      <rect
         transform="matrix(0.31310901,-0.94971719,0.96493325,0.26249538,0,0)"
         ry="0"
         rx="33.437954"
         y="1138.3848"
         x="-583.69421"
         height="111.1405"
         width="20.146585"
         id="rect3855-6-6-5-6-8-6-2-7-28"
         style="fill:#ffffff;fill-opacity:1;stroke:none" />
      <path
         transform="matrix(0.60574889,0.34066545,-0.34066545,0.60574889,1512.6442,609.2636)"
         d="m -360,662.36218 c 0,14.99059 -12.15227,27.14286 -27.14285,27.14286 -14.99059,0 -27.14286,-12.15227 -27.14286,-27.14286 0,-14.99058 12.15227,-27.14285 27.14286,-27.14285 14.99058,0 27.14285,12.15227 27.14285,27.14285 z"
         sodipodi:ry="27.142857"
         sodipodi:rx="27.142857"
         sodipodi:cy="662.36218"
         sodipodi:cx="-387.14285"
         id="path3896-1-4-7-6-4-6-1-1-6-3"
         style="fill:#333333;fill-opacity:1;stroke:none"
         sodipodi:type="arc" />
      <rect
         transform="matrix(0.2964604,-0.95504515,0.96937417,0.24558852,0,0)"
         ry="0"
         rx="33.437954"
         y="1058.2594"
         x="-523.26355"
         height="111.1405"
         width="20.146585"
         id="rect3855-6-6-5-6-8-6-2-7-852"
         style="fill:#ffffff;fill-opacity:1;stroke:none" />
      <path
         transform="matrix(0.60574889,0.34066545,-0.34066545,0.60574889,860.22976,195.19462)"
         d="m 612.14286,645.2193 c 0,23.27486 -18.868,42.14286 -42.14286,42.14286 -23.27486,0 -42.14286,-18.868 -42.14286,-42.14286 0,-23.27486 18.868,-42.14286 42.14286,-42.14286 23.27486,0 42.14286,18.868 42.14286,42.14286 z"
         sodipodi:ry="42.142857"
         sodipodi:rx="42.142857"
         sodipodi:cy="645.2193"
         sodipodi:cx="570"
         id="path3787-5-3-8-0-7-2-9-5-92"
         style="fill:#ccff00;fill-opacity:1;stroke:none"
         sodipodi:type="arc" />
      <path
         transform="matrix(0.60574889,0.34066545,-0.34066545,0.60574889,1445.9661,510.48114)"
         d="m -360,662.36218 c 0,14.99059 -12.15227,27.14286 -27.14285,27.14286 -14.99059,0 -27.14286,-12.15227 -27.14286,-27.14286 0,-14.99058 12.15227,-27.14285 27.14286,-27.14285 14.99058,0 27.14285,12.15227 27.14285,27.14285 z"
         sodipodi:ry="27.142857"
         sodipodi:rx="27.142857"
         sodipodi:cy="662.36218"
         sodipodi:cx="-387.14285"
         id="path3896-1-4-7-6-4-6-1-1-6"
         style="fill:#333333;fill-opacity:1;stroke:none"
         sodipodi:type="arc" />
      <path
         transform="matrix(0.60574889,0.34066545,-0.34066545,0.60574889,892.33404,54.42943)"
         d="m 612.14286,645.2193 c 0,23.27486 -18.868,42.14286 -42.14286,42.14286 -23.27486,0 -42.14286,-18.868 -42.14286,-42.14286 0,-23.27486 18.868,-42.14286 42.14286,-42.14286 23.27486,0 42.14286,18.868 42.14286,42.14286 z"
         sodipodi:ry="42.142857"
         sodipodi:rx="42.142857"
         sodipodi:cy="645.2193"
         sodipodi:cx="570"
         id="path3787-5-3-8-0-7-2-9-5-9-60"
         style="fill:#ffffff;fill-opacity:1;stroke:none"
         sodipodi:type="arc" />
      <rect
         transform="matrix(0.50857641,-0.86101686,0.88668392,0.46237607,0,0)"
         ry="0"
         rx="33.437954"
         y="1090.4794"
         x="-106.60435"
         height="111.1405"
         width="20.146585"
         id="rect3855-6-6-5-6-8-6-2-7-80"
         style="fill:#ffffff;fill-opacity:1;stroke:none" />
      <path
         transform="matrix(0.60574889,0.34066545,-0.34066545,0.60574889,1478.0704,369.71595)"
         d="m -360,662.36218 c 0,14.99059 -12.15227,27.14286 -27.14285,27.14286 -14.99059,0 -27.14286,-12.15227 -27.14286,-27.14286 0,-14.99058 12.15227,-27.14285 27.14286,-27.14285 14.99058,0 27.14285,12.15227 27.14285,27.14285 z"
         sodipodi:ry="27.142857"
         sodipodi:rx="27.142857"
         sodipodi:cy="662.36218"
         sodipodi:cx="-387.14285"
         id="path3896-1-4-7-6-4-6-1-1-4-5"
         style="fill:#333333;fill-opacity:1;stroke:none"
         sodipodi:type="arc" />
      <rect
         transform="matrix(-0.50083475,-0.86554293,0.83787351,-0.54586444,0,0)"
         ry="0"
         rx="33.437954"
         y="391.72766"
         x="-1000.4166"
         height="111.1405"
         width="20.146585"
         id="rect3855-6-6-5-6-8-6-2-7-852-1"
         style="fill:#ffffff;fill-opacity:1;stroke:none" />
      <path
         transform="matrix(0.69497103,0,0,0.69497103,520.23418,138.17751)"
         d="m 612.14286,645.2193 c 0,23.27486 -18.868,42.14286 -42.14286,42.14286 -23.27486,0 -42.14286,-18.868 -42.14286,-42.14286 0,-23.27486 18.868,-42.14286 42.14286,-42.14286 23.27486,0 42.14286,18.868 42.14286,42.14286 z"
         sodipodi:ry="42.142857"
         sodipodi:rx="42.142857"
         sodipodi:cy="645.2193"
         sodipodi:cx="570"
         id="path3787-9-0-6-9-3-8-7-75-7"
         style="fill:#ffffff;fill-opacity:1;stroke:none"
         sodipodi:type="arc" />
      <path
         transform="matrix(0.69497103,0,0,0.69497103,1185.2222,126.2637)"
         d="m -360,662.36218 c 0,14.99059 -12.15227,27.14286 -27.14285,27.14286 -14.99059,0 -27.14286,-12.15227 -27.14286,-27.14286 0,-14.99058 12.15227,-27.14285 27.14286,-27.14285 14.99058,0 27.14285,12.15227 27.14285,27.14285 z"
         sodipodi:ry="27.142857"
         sodipodi:rx="27.142857"
         sodipodi:cy="662.36218"
         sodipodi:cx="-387.14285"
         id="path3896-12-9-4-0-8-9-7-54-4"
         style="fill:#333333;fill-opacity:1;stroke:none"
         sodipodi:type="arc" />
      <rect
         transform="matrix(-0.39680217,-0.91790416,0.89565796,-0.44474354,0,0)"
         ry="0"
         rx="33.437954"
         y="414.55737"
         x="-1174.5116"
         height="111.1405"
         width="20.146585"
         id="rect3855-6-6-5-6-8-6-2-7-852-0"
         style="fill:#ffffff;fill-opacity:1;stroke:none" />
      <path
         transform="matrix(0.69497103,0,0,0.69497103,473.31247,301.1688)"
         d="m 612.14286,645.2193 c 0,23.27486 -18.868,42.14286 -42.14286,42.14286 -23.27486,0 -42.14286,-18.868 -42.14286,-42.14286 0,-23.27486 18.868,-42.14286 42.14286,-42.14286 23.27486,0 42.14286,18.868 42.14286,42.14286 z"
         sodipodi:ry="42.142857"
         sodipodi:rx="42.142857"
         sodipodi:cy="645.2193"
         sodipodi:cx="570"
         id="path3787-9-0-6-9-3-8-7-1-3"
         style="fill:#ffffff;fill-opacity:1;stroke:none"
         sodipodi:type="arc" />
      <rect
         transform="matrix(0.94054555,-0.33966758,0.38888496,0.92128632,0,0)"
         ry="0"
         rx="33.437954"
         y="886.3559"
         x="500.03549"
         height="111.1405"
         width="20.146585"
         id="rect3855-6-6-5-6-8-6-2-7-94"
         style="fill:#ffffff;fill-opacity:1;stroke:none" />
      <path
         transform="matrix(0.69497103,0,0,0.69497103,1138.3006,289.25498)"
         d="m -360,662.36218 c 0,14.99059 -12.15227,27.14286 -27.14285,27.14286 -14.99059,0 -27.14286,-12.15227 -27.14286,-27.14286 0,-14.99058 12.15227,-27.14285 27.14286,-27.14285 14.99058,0 27.14285,12.15227 27.14285,27.14285 z"
         sodipodi:ry="27.142857"
         sodipodi:rx="27.142857"
         sodipodi:cy="662.36218"
         sodipodi:cx="-387.14285"
         id="path3896-12-9-4-0-8-9-7-5-7"
         style="fill:#333333;fill-opacity:1;stroke:none"
         sodipodi:type="arc" />
      <path
         transform="matrix(0.69497103,0,0,0.69497103,428.86031,197.44711)"
         d="m 612.14286,645.2193 c 0,23.27486 -18.868,42.14286 -42.14286,42.14286 -23.27486,0 -42.14286,-18.868 -42.14286,-42.14286 0,-23.27486 18.868,-42.14286 42.14286,-42.14286 23.27486,0 42.14286,18.868 42.14286,42.14286 z"
         sodipodi:ry="42.142857"
         sodipodi:rx="42.142857"
         sodipodi:cy="645.2193"
         sodipodi:cx="570"
         id="path3787-9-0-6-9-3-8-7-75-0"
         style="fill:#ffffff;fill-opacity:1;stroke:none"
         sodipodi:type="arc" />
      <rect
         transform="matrix(0.53678108,-0.84372156,0.87090291,0.49145511,0,0)"
         ry="0"
         rx="33.437954"
         y="935.12189"
         x="-165.4313"
         height="111.1405"
         width="20.146585"
         id="rect3855-6-6-5-6-8-6-2-7-852-4"
         style="fill:#ffffff;fill-opacity:1;stroke:none" />
      <rect
         transform="matrix(-0.59650347,-0.8026105,0.76997452,-0.63807463,0,0)"
         ry="0"
         rx="33.437954"
         y="161.90179"
         x="-1035.9772"
         height="111.1405"
         width="20.146585"
         id="rect3855-6-6-5-6-8-6-2-7-852-7"
         style="fill:#ffffff;fill-opacity:1;stroke:none" />
      <path
         transform="matrix(0.69497103,0,0,0.69497103,1093.8484,185.53329)"
         d="m -360,662.36218 c 0,14.99059 -12.15227,27.14286 -27.14285,27.14286 -14.99059,0 -27.14286,-12.15227 -27.14286,-27.14286 0,-14.99058 12.15227,-27.14285 27.14286,-27.14285 14.99058,0 27.14285,12.15227 27.14285,27.14285 z"
         sodipodi:ry="27.142857"
         sodipodi:rx="27.142857"
         sodipodi:cy="662.36218"
         sodipodi:cx="-387.14285"
         id="path3896-12-9-4-0-8-9-7-54-9"
         style="fill:#333333;fill-opacity:1;stroke:none"
         sodipodi:type="arc" />
      <path
         transform="matrix(0.69497103,0,0,0.69497103,338.72117,141.88193)"
         d="m 612.14286,645.2193 c 0,23.27486 -18.868,42.14286 -42.14286,42.14286 -23.27486,0 -42.14286,-18.868 -42.14286,-42.14286 0,-23.27486 18.868,-42.14286 42.14286,-42.14286 23.27486,0 42.14286,18.868 42.14286,42.14286 z"
         sodipodi:ry="42.142857"
         sodipodi:rx="42.142857"
         sodipodi:cy="645.2193"
         sodipodi:cx="570"
         id="path3787-9-0-6-9-3-8-7-5-3"
         style="fill:#ccff00;fill-opacity:1;stroke:none"
         sodipodi:type="arc" />
      <path
         transform="matrix(0.69497103,0,0,0.69497103,1003.7093,129.96812)"
         d="m -360,662.36218 c 0,14.99059 -12.15227,27.14286 -27.14285,27.14286 -14.99059,0 -27.14286,-12.15227 -27.14286,-27.14286 0,-14.99058 12.15227,-27.14285 27.14286,-27.14285 14.99058,0 27.14285,12.15227 27.14285,27.14285 z"
         sodipodi:ry="27.142857"
         sodipodi:rx="27.142857"
         sodipodi:cy="662.36218"
         sodipodi:cx="-387.14285"
         id="path3896-12-9-4-0-8-9-7-1-86"
         style="fill:#333333;fill-opacity:1;stroke:none"
         sodipodi:type="arc" />
      <path
         transform="matrix(0.69497103,0,0,0.69497103,439.97341,428.35137)"
         d="m 612.14286,645.2193 c 0,23.27486 -18.868,42.14286 -42.14286,42.14286 -23.27486,0 -42.14286,-18.868 -42.14286,-42.14286 0,-23.27486 18.868,-42.14286 42.14286,-42.14286 23.27486,0 42.14286,18.868 42.14286,42.14286 z"
         sodipodi:ry="42.142857"
         sodipodi:rx="42.142857"
         sodipodi:cy="645.2193"
         sodipodi:cx="570"
         id="path3787-9-0-6-9-3-8-7-1-1-6"
         style="fill:#ffffff;fill-opacity:1;stroke:none"
         sodipodi:type="arc" />
      <path
         transform="matrix(0.60574889,0.34066545,-0.34066545,0.60574889,607.09947,134.69031)"
         d="m 612.14286,645.2193 c 0,23.27486 -18.868,42.14286 -42.14286,42.14286 -23.27486,0 -42.14286,-18.868 -42.14286,-42.14286 0,-23.27486 18.868,-42.14286 42.14286,-42.14286 23.27486,0 42.14286,18.868 42.14286,42.14286 z"
         sodipodi:ry="42.142857"
         sodipodi:rx="42.142857"
         sodipodi:cy="645.2193"
         sodipodi:cx="570"
         id="path3787-5-3-8-0-7-2-9-5-9-6-4"
         style="fill:#ffffff;fill-opacity:1;stroke:none"
         sodipodi:type="arc" />
      <path
         transform="matrix(0.69497103,0,0,0.69497103,1104.9613,416.43755)"
         d="m -360,662.36218 c 0,14.99059 -12.15227,27.14286 -27.14285,27.14286 -14.99059,0 -27.14286,-12.15227 -27.14286,-27.14286 0,-14.99058 12.15227,-27.14285 27.14286,-27.14285 14.99058,0 27.14285,12.15227 27.14285,27.14285 z"
         sodipodi:ry="27.142857"
         sodipodi:rx="27.142857"
         sodipodi:cy="662.36218"
         sodipodi:cx="-387.14285"
         id="path3896-12-9-4-0-8-9-7-5-6-3"
         style="fill:#333333;fill-opacity:1;stroke:none"
         sodipodi:type="arc" />
      <rect
         transform="matrix(-0.75117437,-0.66010383,0.61949516,-0.78500047,0,0)"
         ry="0"
         rx="33.437954"
         y="-165.25905"
         x="-1033.8965"
         height="111.1405"
         width="20.146585"
         id="rect3855-6-6-5-6-8-6-2-7-852-07"
         style="fill:#ffffff;fill-opacity:1;stroke:none" />
      <path
         transform="matrix(0.60574889,0.34066545,-0.34066545,0.60574889,1192.8357,449.97682)"
         d="m -360,662.36218 c 0,14.99059 -12.15227,27.14286 -27.14285,27.14286 -14.99059,0 -27.14286,-12.15227 -27.14286,-27.14286 0,-14.99058 12.15227,-27.14285 27.14286,-27.14285 14.99058,0 27.14285,12.15227 27.14285,27.14285 z"
         sodipodi:ry="27.142857"
         sodipodi:rx="27.142857"
         sodipodi:cy="662.36218"
         sodipodi:cx="-387.14285"
         id="path3896-1-4-7-6-4-6-1-1-4-6-1"
         style="fill:#333333;fill-opacity:1;stroke:none"
         sodipodi:type="arc" />
      <path
         transform="matrix(0.69497103,0,0,0.69497103,528.87762,391.30786)"
         d="m 612.14286,645.2193 c 0,23.27486 -18.868,42.14286 -42.14286,42.14286 -23.27486,0 -42.14286,-18.868 -42.14286,-42.14286 0,-23.27486 18.868,-42.14286 42.14286,-42.14286 23.27486,0 42.14286,18.868 42.14286,42.14286 z"
         sodipodi:ry="42.142857"
         sodipodi:rx="42.142857"
         sodipodi:cy="645.2193"
         sodipodi:cx="570"
         id="path3787-9-0-6-9-3-8-7-75-2-5"
         style="fill:#ffffff;fill-opacity:1;stroke:none"
         sodipodi:type="arc" />
      <path
         transform="matrix(0.69497103,0,0,0.69497103,1193.8658,379.39405)"
         d="m -360,662.36218 c 0,14.99059 -12.15227,27.14286 -27.14285,27.14286 -14.99059,0 -27.14286,-12.15227 -27.14286,-27.14286 0,-14.99058 12.15227,-27.14285 27.14286,-27.14285 14.99058,0 27.14285,12.15227 27.14285,27.14285 z"
         sodipodi:ry="27.142857"
         sodipodi:rx="27.142857"
         sodipodi:cy="662.36218"
         sodipodi:cx="-387.14285"
         id="path3896-12-9-4-0-8-9-7-54-1-4"
         style="fill:#333333;fill-opacity:1;stroke:none"
         sodipodi:type="arc" />
      <path
         transform="matrix(0.69497103,0,0,0.69497103,272.04305,354.26444)"
         d="m 612.14286,645.2193 c 0,23.27486 -18.868,42.14286 -42.14286,42.14286 -23.27486,0 -42.14286,-18.868 -42.14286,-42.14286 0,-23.27486 18.868,-42.14286 42.14286,-42.14286 23.27486,0 42.14286,18.868 42.14286,42.14286 z"
         sodipodi:ry="42.142857"
         sodipodi:rx="42.142857"
         sodipodi:cy="645.2193"
         sodipodi:cx="570"
         id="path3787-9-0-6-9-3-8-7-1-15"
         style="fill:#ffffff;fill-opacity:1;stroke:none"
         sodipodi:type="arc" />
      <rect
         transform="matrix(0.97383697,-0.22724778,0.27838106,0.96047071,0,0)"
         ry="0"
         rx="33.437954"
         y="928.89313"
         x="409.94983"
         height="111.1405"
         width="20.146585"
         id="rect3855-6-6-5-6-8-6-2-7-852-3"
         style="fill:#ffffff;fill-opacity:1;stroke:none" />
      <path
         transform="matrix(0.69497103,0,0,0.69497103,937.03108,342.35063)"
         d="m -360,662.36218 c 0,14.99059 -12.15227,27.14286 -27.14285,27.14286 -14.99059,0 -27.14286,-12.15227 -27.14286,-27.14286 0,-14.99058 12.15227,-27.14285 27.14286,-27.14285 14.99058,0 27.14285,12.15227 27.14285,27.14285 z"
         sodipodi:ry="27.142857"
         sodipodi:rx="27.142857"
         sodipodi:cy="662.36218"
         sodipodi:cx="-387.14285"
         id="path3896-12-9-4-0-8-9-7-5-0"
         style="fill:#333333;fill-opacity:1;stroke:none"
         sodipodi:type="arc" />
      <path
         transform="matrix(0.69497103,0,0,0.69497103,294.38207,436.09904)"
         d="m 612.14286,645.2193 c 0,23.27486 -18.868,42.14286 -42.14286,42.14286 -23.27486,0 -42.14286,-18.868 -42.14286,-42.14286 0,-23.27486 18.868,-42.14286 42.14286,-42.14286 23.27486,0 42.14286,18.868 42.14286,42.14286 z"
         sodipodi:ry="42.142857"
         sodipodi:rx="42.142857"
         sodipodi:cy="645.2193"
         sodipodi:cx="570"
         id="path3787-9-0-6-9-3-8-7-5"
         style="fill:#ffffff;fill-opacity:1;stroke:none"
         sodipodi:type="arc" />
      <path
         transform="matrix(0.69497103,0,0,0.69497103,959.3702,424.18522)"
         d="m -360,662.36218 c 0,14.99059 -12.15227,27.14286 -27.14285,27.14286 -14.99059,0 -27.14286,-12.15227 -27.14286,-27.14286 0,-14.99058 12.15227,-27.14285 27.14286,-27.14285 14.99058,0 27.14285,12.15227 27.14285,27.14285 z"
         sodipodi:ry="27.142857"
         sodipodi:rx="27.142857"
         sodipodi:cy="662.36218"
         sodipodi:cx="-387.14285"
         id="path3896-12-9-4-0-8-9-7-1"
         style="fill:#333333;fill-opacity:1;stroke:none"
         sodipodi:type="arc" />
      <path
         transform="matrix(0.60574889,0.34066545,-0.34066545,0.60574889,1054.6528,293.33448)"
         d="m 612.14286,645.2193 c 0,23.27486 -18.868,42.14286 -42.14286,42.14286 -23.27486,0 -42.14286,-18.868 -42.14286,-42.14286 0,-23.27486 18.868,-42.14286 42.14286,-42.14286 23.27486,0 42.14286,18.868 42.14286,42.14286 z"
         sodipodi:ry="42.142857"
         sodipodi:rx="42.142857"
         sodipodi:cy="645.2193"
         sodipodi:cx="570"
         id="path3787-5-3-8-0-7-2-9-5-92-4"
         style="fill:#ffffff;fill-opacity:1;stroke:none"
         sodipodi:type="arc" />
      <path
         transform="matrix(0.60574889,0.34066545,-0.34066545,0.60574889,1640.3891,608.621)"
         d="m -360,662.36218 c 0,14.99059 -12.15227,27.14286 -27.14285,27.14286 -14.99059,0 -27.14286,-12.15227 -27.14286,-27.14286 0,-14.99058 12.15227,-27.14285 27.14286,-27.14285 14.99058,0 27.14285,12.15227 27.14285,27.14285 z"
         sodipodi:ry="27.142857"
         sodipodi:rx="27.142857"
         sodipodi:cy="662.36218"
         sodipodi:cx="-387.14285"
         id="path3896-1-4-7-6-4-6-1-1-6-1"
         style="fill:#333333;fill-opacity:1;stroke:none"
         sodipodi:type="arc" />
    </g>
  </g>
</svg>
