<?xml version="1.0" encoding="UTF-8" standalone="no"?>
<!-- Created with Inkscape (http://www.inkscape.org/) -->

<svg
   xmlns:dc="http://purl.org/dc/elements/1.1/"
   xmlns:cc="http://creativecommons.org/ns#"
   xmlns:rdf="http://www.w3.org/1999/02/22-rdf-syntax-ns#"
   xmlns:svg="http://www.w3.org/2000/svg"
   xmlns="http://www.w3.org/2000/svg"
   xmlns:sodipodi="http://sodipodi.sourceforge.net/DTD/sodipodi-0.dtd"
   xmlns:inkscape="http://www.inkscape.org/namespaces/inkscape"
   width="145"
   height="145"
   id="svg4484"
   version="1.1"
   inkscape:version="0.48.4 r9939"
   sodipodi:docname="favicon.svg"
   inkscape:export-filename="/home/svet/Dropbox/falanster/digital-lab/landing_page/favicon/favicon_192x192.png"
   inkscape:export-xdpi="119.17242"
   inkscape:export-ydpi="119.17242">
  <defs
     id="defs4486">
    <inkscape:path-effect
       effect="spiro"
       id="path-effect8824-6"
       is_visible="true" />
  </defs>
  <sodipodi:namedview
     id="base"
     pagecolor="#ffffff"
     bordercolor="#666666"
     borderopacity="1.0"
     inkscape:pageopacity="0.0"
     inkscape:pageshadow="2"
     inkscape:zoom="0.175"
     inkscape:cx="1050.3559"
     inkscape:cy="191.71123"
     inkscape:document-units="px"
     inkscape:current-layer="layer1"
     showgrid="false"
     fit-margin-top="0"
     fit-margin-left="0"
     fit-margin-right="0"
     fit-margin-bottom="0"
     inkscape:window-width="1301"
     inkscape:window-height="744"
     inkscape:window-x="65"
     inkscape:window-y="24"
     inkscape:window-maximized="1" />
  <metadata
     id="metadata4489">
    <rdf:RDF>
      <cc:Work
         rdf:about="">
        <dc:format>image/svg+xml</dc:format>
        <dc:type
           rdf:resource="http://purl.org/dc/dcmitype/StillImage" />
        <dc:title></dc:title>
      </cc:Work>
    </rdf:RDF>
  </metadata>
  <g
     inkscape:label="Layer 1"
     inkscape:groupmode="layer"
     id="layer1"
     transform="translate(-50.991977,-40.083437)">
    <rect
       style="fill:#333333;fill-opacity:1;fill-rule:nonzero;stroke:none"
       id="rect3241"
       width="145"
       height="145"
       x="0"
       y="0.034268491"
       transform="translate(50.991977,40.049169)"
       ry="50.714287" />
    <g
       id="g3234"
       transform="matrix(1.6425174,0,0,1.6425174,-78.12518,-31.015277)"
       style="fill:#ccff00">
      <path
         style="fill:#ccff00;fill-opacity:1;stroke:none"
         d="m 100.61601,54.719356 c 4.26885,0 7.70551,3.213457 7.70551,7.205062 l 0,26.169034 c 0,3.991604 -3.43666,7.205062 -7.70551,7.205062 -4.268849,0 -7.705506,-3.213458 -7.705506,-7.205062 l 0,-26.169034 c 0,-3.991605 3.436657,-7.205062 7.705506,-7.205062 z"
         id="rect2985-79-1-9-3-2-4-9"
         inkscape:connector-curvature="0" />
      <path
         style="fill:#ccff00;fill-opacity:1;stroke:none"
         d="m 94.33035,87.709928 c 0,-4.268851 3.213457,-7.705505 7.20506,-7.705505 l 20.26917,0 c 3.99161,0 7.20507,3.436654 7.20507,7.705505 0,4.26885 -3.21346,7.705506 -7.20507,7.705506 l -20.26917,0 c -3.991603,0 -7.20506,-3.436656 -7.20506,-7.705506 z"
         id="rect2985-79-4-5-5-7-5-5-2"
         inkscape:connector-curvature="0" />
      <path
         style="fill:#ccff00;fill-opacity:1;stroke:none"
         d="m 143.64557,59.937747 c 4.26885,0 7.70551,3.213457 7.70551,7.205062 l 0,27.576342 c 0,3.991605 -3.43666,7.205059 -7.70551,7.205059 -4.26885,0 -7.70551,-3.213454 -7.70551,-7.205059 l 0,-27.576342 c 0,-3.991605 3.43666,-7.205062 7.70551,-7.205062 z"
         id="rect2985-79-7-0-7-2-4-6-9"
         inkscape:connector-curvature="0" />
      <path
         style="fill:#ccff00;fill-opacity:1;stroke:none"
         d="m 122.31671,65.826277 c 4.26885,0 7.70551,3.213457 7.70551,7.205062 l 0,44.930121 c 0,3.99161 -3.43666,7.20507 -7.70551,7.20507 -4.26885,0 -7.70551,-3.21346 -7.70551,-7.20507 l 0,-44.930121 c 0,-3.991605 3.43666,-7.205062 7.70551,-7.205062 z"
         id="rect2985-79-5-8-8-2-7-1-3"
         inkscape:connector-curvature="0" />
      <path
         style="fill:#ccff00;fill-opacity:1;stroke:none"
         d="m 121.54026,94.248791 c 0,-4.26885 3.21346,-7.705505 7.20506,-7.705505 l 13.10846,0 c 3.9916,0 7.20506,3.436655 7.20506,7.705505 0,4.26885 -3.21346,7.705509 -7.20506,7.705509 l -13.10846,0 c -3.9916,0 -7.20506,-3.436659 -7.20506,-7.705509 z"
         id="rect2985-79-4-5-6-7-6-7-1-8"
         inkscape:connector-curvature="0" />
    </g>
  </g>
</svg>
